%TF.GenerationSoftware,KiCad,Pcbnew,7.0.9*%
%TF.CreationDate,2023-12-13T20:57:05-06:00*%
%TF.ProjectId,12V to 5V converter,31325620-746f-4203-9556-20636f6e7665,1.0*%
%TF.SameCoordinates,Original*%
%TF.FileFunction,Drillmap*%
%TF.FilePolarity,Positive*%
%FSLAX45Y45*%
G04 Gerber Fmt 4.5, Leading zero omitted, Abs format (unit mm)*
G04 Created by KiCad (PCBNEW 7.0.9) date 2023-12-13 20:57:05*
%MOMM*%
%LPD*%
G01*
G04 APERTURE LIST*
%ADD10C,0.100000*%
%ADD11C,0.200000*%
%ADD12C,0.110000*%
%ADD13C,0.130000*%
%ADD14C,0.230000*%
G04 APERTURE END LIST*
D10*
X10025000Y-10350000D02*
X10025000Y-8250000D01*
X10025000Y-8250000D02*
X16500000Y-8250000D01*
X16500000Y-8250000D02*
X16500000Y-10350000D01*
X16500000Y-10350000D02*
X10025000Y-10350000D01*
D11*
D10*
X12210000Y-8860000D02*
X12290000Y-8940000D01*
X12290000Y-8860000D02*
X12210000Y-8940000D01*
X12210000Y-9860000D02*
X12290000Y-9940000D01*
X12290000Y-9860000D02*
X12210000Y-9940000D01*
X13585000Y-8860000D02*
X13665000Y-8940000D01*
X13665000Y-8860000D02*
X13585000Y-8940000D01*
X13585000Y-9860000D02*
X13665000Y-9940000D01*
X13665000Y-9860000D02*
X13585000Y-9940000D01*
X14245000Y-8520000D02*
G75*
G03*
X14245000Y-8520000I-45000J0D01*
G01*
X14245000Y-8850000D02*
G75*
G03*
X14245000Y-8850000I-45000J0D01*
G01*
X14495000Y-8520000D02*
G75*
G03*
X14495000Y-8520000I-45000J0D01*
G01*
X14495000Y-8850000D02*
G75*
G03*
X14495000Y-8850000I-45000J0D01*
G01*
X14745000Y-8520000D02*
G75*
G03*
X14745000Y-8520000I-45000J0D01*
G01*
X14745000Y-8850000D02*
G75*
G03*
X14745000Y-8850000I-45000J0D01*
G01*
X15409530Y-8904000D02*
X15409530Y-8996000D01*
X15363530Y-8950000D02*
X15455530Y-8950000D01*
X15409530Y-9154000D02*
X15409530Y-9246000D01*
X15363530Y-9200000D02*
X15455530Y-9200000D01*
X15409530Y-9354000D02*
X15409530Y-9446000D01*
X15363530Y-9400000D02*
X15455530Y-9400000D01*
X15409530Y-9604000D02*
X15409530Y-9696000D01*
X15363530Y-9650000D02*
X15455530Y-9650000D01*
X15671530Y-8904000D02*
X15671530Y-8996000D01*
X15625530Y-8950000D02*
X15717530Y-8950000D01*
X15671530Y-9154000D02*
X15671530Y-9246000D01*
X15625530Y-9200000D02*
X15717530Y-9200000D01*
X15671530Y-9354000D02*
X15671530Y-9446000D01*
X15625530Y-9400000D02*
X15717530Y-9400000D01*
X15671530Y-9604000D02*
X15671530Y-9696000D01*
X15625530Y-9650000D02*
X15717530Y-9650000D01*
D12*
X11722891Y-8928891D02*
X11722891Y-8851109D01*
X11645109Y-8851109D01*
X11645109Y-8928891D01*
X11722891Y-8928891D01*
X11722891Y-9944891D02*
X11722891Y-9867109D01*
X11645109Y-9867109D01*
X11645109Y-9944891D01*
X11722891Y-9944891D01*
X13013891Y-9138891D02*
X13013891Y-9061109D01*
X12936109Y-9061109D01*
X12936109Y-9138891D01*
X13013891Y-9138891D01*
X13013891Y-9392891D02*
X13013891Y-9315109D01*
X12936109Y-9315109D01*
X12936109Y-9392891D01*
X13013891Y-9392891D01*
X13013891Y-9646891D02*
X13013891Y-9569109D01*
X12936109Y-9569109D01*
X12936109Y-9646891D01*
X13013891Y-9646891D01*
D13*
X10769500Y-9140000D02*
X10834500Y-9075000D01*
X10769500Y-9010000D01*
X10704500Y-9075000D01*
X10769500Y-9140000D01*
X10769500Y-9640000D02*
X10834500Y-9575000D01*
X10769500Y-9510000D01*
X10704500Y-9575000D01*
X10769500Y-9640000D01*
X14198500Y-9890000D02*
X14263500Y-9825000D01*
X14198500Y-9760000D01*
X14133500Y-9825000D01*
X14198500Y-9890000D01*
X14698500Y-9890000D02*
X14763500Y-9825000D01*
X14698500Y-9760000D01*
X14633500Y-9825000D01*
X14698500Y-9890000D01*
D14*
X15259530Y-8528000D02*
X15489530Y-8758000D01*
X15489530Y-8528000D02*
X15259530Y-8758000D01*
X15489530Y-8643000D02*
G75*
G03*
X15489530Y-8643000I-115000J0D01*
G01*
X15259530Y-9842000D02*
X15489530Y-10072000D01*
X15489530Y-9842000D02*
X15259530Y-10072000D01*
X15489530Y-9957000D02*
G75*
G03*
X15489530Y-9957000I-115000J0D01*
G01*
X15827530Y-8528000D02*
X16057530Y-8758000D01*
X16057530Y-8528000D02*
X15827530Y-8758000D01*
X16057530Y-8643000D02*
G75*
G03*
X16057530Y-8643000I-115000J0D01*
G01*
X15827530Y-9842000D02*
X16057530Y-10072000D01*
X16057530Y-9842000D02*
X15827530Y-10072000D01*
X16057530Y-9957000D02*
G75*
G03*
X16057530Y-9957000I-115000J0D01*
G01*
D11*
X10280777Y-10666484D02*
X10280777Y-10466484D01*
X10280777Y-10466484D02*
X10328396Y-10466484D01*
X10328396Y-10466484D02*
X10356967Y-10476008D01*
X10356967Y-10476008D02*
X10376015Y-10495055D01*
X10376015Y-10495055D02*
X10385539Y-10514103D01*
X10385539Y-10514103D02*
X10395063Y-10552198D01*
X10395063Y-10552198D02*
X10395063Y-10580770D01*
X10395063Y-10580770D02*
X10385539Y-10618865D01*
X10385539Y-10618865D02*
X10376015Y-10637912D01*
X10376015Y-10637912D02*
X10356967Y-10656960D01*
X10356967Y-10656960D02*
X10328396Y-10666484D01*
X10328396Y-10666484D02*
X10280777Y-10666484D01*
X10480777Y-10666484D02*
X10480777Y-10533150D01*
X10480777Y-10571246D02*
X10490301Y-10552198D01*
X10490301Y-10552198D02*
X10499824Y-10542674D01*
X10499824Y-10542674D02*
X10518872Y-10533150D01*
X10518872Y-10533150D02*
X10537920Y-10533150D01*
X10604586Y-10666484D02*
X10604586Y-10533150D01*
X10604586Y-10466484D02*
X10595063Y-10476008D01*
X10595063Y-10476008D02*
X10604586Y-10485531D01*
X10604586Y-10485531D02*
X10614110Y-10476008D01*
X10614110Y-10476008D02*
X10604586Y-10466484D01*
X10604586Y-10466484D02*
X10604586Y-10485531D01*
X10728396Y-10666484D02*
X10709348Y-10656960D01*
X10709348Y-10656960D02*
X10699824Y-10637912D01*
X10699824Y-10637912D02*
X10699824Y-10466484D01*
X10833158Y-10666484D02*
X10814110Y-10656960D01*
X10814110Y-10656960D02*
X10804586Y-10637912D01*
X10804586Y-10637912D02*
X10804586Y-10466484D01*
X11061729Y-10666484D02*
X11061729Y-10466484D01*
X11061729Y-10466484D02*
X11128396Y-10609341D01*
X11128396Y-10609341D02*
X11195062Y-10466484D01*
X11195062Y-10466484D02*
X11195062Y-10666484D01*
X11376015Y-10666484D02*
X11376015Y-10561722D01*
X11376015Y-10561722D02*
X11366491Y-10542674D01*
X11366491Y-10542674D02*
X11347443Y-10533150D01*
X11347443Y-10533150D02*
X11309348Y-10533150D01*
X11309348Y-10533150D02*
X11290301Y-10542674D01*
X11376015Y-10656960D02*
X11356967Y-10666484D01*
X11356967Y-10666484D02*
X11309348Y-10666484D01*
X11309348Y-10666484D02*
X11290301Y-10656960D01*
X11290301Y-10656960D02*
X11280777Y-10637912D01*
X11280777Y-10637912D02*
X11280777Y-10618865D01*
X11280777Y-10618865D02*
X11290301Y-10599817D01*
X11290301Y-10599817D02*
X11309348Y-10590293D01*
X11309348Y-10590293D02*
X11356967Y-10590293D01*
X11356967Y-10590293D02*
X11376015Y-10580770D01*
X11471253Y-10533150D02*
X11471253Y-10733150D01*
X11471253Y-10542674D02*
X11490301Y-10533150D01*
X11490301Y-10533150D02*
X11528396Y-10533150D01*
X11528396Y-10533150D02*
X11547443Y-10542674D01*
X11547443Y-10542674D02*
X11556967Y-10552198D01*
X11556967Y-10552198D02*
X11566491Y-10571246D01*
X11566491Y-10571246D02*
X11566491Y-10628389D01*
X11566491Y-10628389D02*
X11556967Y-10647436D01*
X11556967Y-10647436D02*
X11547443Y-10656960D01*
X11547443Y-10656960D02*
X11528396Y-10666484D01*
X11528396Y-10666484D02*
X11490301Y-10666484D01*
X11490301Y-10666484D02*
X11471253Y-10656960D01*
X11652205Y-10647436D02*
X11661729Y-10656960D01*
X11661729Y-10656960D02*
X11652205Y-10666484D01*
X11652205Y-10666484D02*
X11642682Y-10656960D01*
X11642682Y-10656960D02*
X11652205Y-10647436D01*
X11652205Y-10647436D02*
X11652205Y-10666484D01*
X11652205Y-10542674D02*
X11661729Y-10552198D01*
X11661729Y-10552198D02*
X11652205Y-10561722D01*
X11652205Y-10561722D02*
X11642682Y-10552198D01*
X11642682Y-10552198D02*
X11652205Y-10542674D01*
X11652205Y-10542674D02*
X11652205Y-10561722D01*
D10*
X9940000Y-10955000D02*
X10020000Y-11035000D01*
X10020000Y-10955000D02*
X9940000Y-11035000D01*
D11*
X10318872Y-10886484D02*
X10337920Y-10886484D01*
X10337920Y-10886484D02*
X10356967Y-10896008D01*
X10356967Y-10896008D02*
X10366491Y-10905531D01*
X10366491Y-10905531D02*
X10376015Y-10924579D01*
X10376015Y-10924579D02*
X10385539Y-10962674D01*
X10385539Y-10962674D02*
X10385539Y-11010293D01*
X10385539Y-11010293D02*
X10376015Y-11048389D01*
X10376015Y-11048389D02*
X10366491Y-11067436D01*
X10366491Y-11067436D02*
X10356967Y-11076960D01*
X10356967Y-11076960D02*
X10337920Y-11086484D01*
X10337920Y-11086484D02*
X10318872Y-11086484D01*
X10318872Y-11086484D02*
X10299824Y-11076960D01*
X10299824Y-11076960D02*
X10290301Y-11067436D01*
X10290301Y-11067436D02*
X10280777Y-11048389D01*
X10280777Y-11048389D02*
X10271253Y-11010293D01*
X10271253Y-11010293D02*
X10271253Y-10962674D01*
X10271253Y-10962674D02*
X10280777Y-10924579D01*
X10280777Y-10924579D02*
X10290301Y-10905531D01*
X10290301Y-10905531D02*
X10299824Y-10896008D01*
X10299824Y-10896008D02*
X10318872Y-10886484D01*
X10471253Y-11067436D02*
X10480777Y-11076960D01*
X10480777Y-11076960D02*
X10471253Y-11086484D01*
X10471253Y-11086484D02*
X10461729Y-11076960D01*
X10461729Y-11076960D02*
X10471253Y-11067436D01*
X10471253Y-11067436D02*
X10471253Y-11086484D01*
X10595063Y-10972198D02*
X10576015Y-10962674D01*
X10576015Y-10962674D02*
X10566491Y-10953150D01*
X10566491Y-10953150D02*
X10556967Y-10934103D01*
X10556967Y-10934103D02*
X10556967Y-10924579D01*
X10556967Y-10924579D02*
X10566491Y-10905531D01*
X10566491Y-10905531D02*
X10576015Y-10896008D01*
X10576015Y-10896008D02*
X10595063Y-10886484D01*
X10595063Y-10886484D02*
X10633158Y-10886484D01*
X10633158Y-10886484D02*
X10652205Y-10896008D01*
X10652205Y-10896008D02*
X10661729Y-10905531D01*
X10661729Y-10905531D02*
X10671253Y-10924579D01*
X10671253Y-10924579D02*
X10671253Y-10934103D01*
X10671253Y-10934103D02*
X10661729Y-10953150D01*
X10661729Y-10953150D02*
X10652205Y-10962674D01*
X10652205Y-10962674D02*
X10633158Y-10972198D01*
X10633158Y-10972198D02*
X10595063Y-10972198D01*
X10595063Y-10972198D02*
X10576015Y-10981722D01*
X10576015Y-10981722D02*
X10566491Y-10991246D01*
X10566491Y-10991246D02*
X10556967Y-11010293D01*
X10556967Y-11010293D02*
X10556967Y-11048389D01*
X10556967Y-11048389D02*
X10566491Y-11067436D01*
X10566491Y-11067436D02*
X10576015Y-11076960D01*
X10576015Y-11076960D02*
X10595063Y-11086484D01*
X10595063Y-11086484D02*
X10633158Y-11086484D01*
X10633158Y-11086484D02*
X10652205Y-11076960D01*
X10652205Y-11076960D02*
X10661729Y-11067436D01*
X10661729Y-11067436D02*
X10671253Y-11048389D01*
X10671253Y-11048389D02*
X10671253Y-11010293D01*
X10671253Y-11010293D02*
X10661729Y-10991246D01*
X10661729Y-10991246D02*
X10652205Y-10981722D01*
X10652205Y-10981722D02*
X10633158Y-10972198D01*
X10795063Y-10886484D02*
X10814110Y-10886484D01*
X10814110Y-10886484D02*
X10833158Y-10896008D01*
X10833158Y-10896008D02*
X10842682Y-10905531D01*
X10842682Y-10905531D02*
X10852205Y-10924579D01*
X10852205Y-10924579D02*
X10861729Y-10962674D01*
X10861729Y-10962674D02*
X10861729Y-11010293D01*
X10861729Y-11010293D02*
X10852205Y-11048389D01*
X10852205Y-11048389D02*
X10842682Y-11067436D01*
X10842682Y-11067436D02*
X10833158Y-11076960D01*
X10833158Y-11076960D02*
X10814110Y-11086484D01*
X10814110Y-11086484D02*
X10795063Y-11086484D01*
X10795063Y-11086484D02*
X10776015Y-11076960D01*
X10776015Y-11076960D02*
X10766491Y-11067436D01*
X10766491Y-11067436D02*
X10756967Y-11048389D01*
X10756967Y-11048389D02*
X10747444Y-11010293D01*
X10747444Y-11010293D02*
X10747444Y-10962674D01*
X10747444Y-10962674D02*
X10756967Y-10924579D01*
X10756967Y-10924579D02*
X10766491Y-10905531D01*
X10766491Y-10905531D02*
X10776015Y-10896008D01*
X10776015Y-10896008D02*
X10795063Y-10886484D01*
X10985539Y-10886484D02*
X11004586Y-10886484D01*
X11004586Y-10886484D02*
X11023634Y-10896008D01*
X11023634Y-10896008D02*
X11033158Y-10905531D01*
X11033158Y-10905531D02*
X11042682Y-10924579D01*
X11042682Y-10924579D02*
X11052205Y-10962674D01*
X11052205Y-10962674D02*
X11052205Y-11010293D01*
X11052205Y-11010293D02*
X11042682Y-11048389D01*
X11042682Y-11048389D02*
X11033158Y-11067436D01*
X11033158Y-11067436D02*
X11023634Y-11076960D01*
X11023634Y-11076960D02*
X11004586Y-11086484D01*
X11004586Y-11086484D02*
X10985539Y-11086484D01*
X10985539Y-11086484D02*
X10966491Y-11076960D01*
X10966491Y-11076960D02*
X10956967Y-11067436D01*
X10956967Y-11067436D02*
X10947444Y-11048389D01*
X10947444Y-11048389D02*
X10937920Y-11010293D01*
X10937920Y-11010293D02*
X10937920Y-10962674D01*
X10937920Y-10962674D02*
X10947444Y-10924579D01*
X10947444Y-10924579D02*
X10956967Y-10905531D01*
X10956967Y-10905531D02*
X10966491Y-10896008D01*
X10966491Y-10896008D02*
X10985539Y-10886484D01*
X11137920Y-11086484D02*
X11137920Y-10953150D01*
X11137920Y-10972198D02*
X11147444Y-10962674D01*
X11147444Y-10962674D02*
X11166491Y-10953150D01*
X11166491Y-10953150D02*
X11195063Y-10953150D01*
X11195063Y-10953150D02*
X11214110Y-10962674D01*
X11214110Y-10962674D02*
X11223634Y-10981722D01*
X11223634Y-10981722D02*
X11223634Y-11086484D01*
X11223634Y-10981722D02*
X11233158Y-10962674D01*
X11233158Y-10962674D02*
X11252205Y-10953150D01*
X11252205Y-10953150D02*
X11280777Y-10953150D01*
X11280777Y-10953150D02*
X11299824Y-10962674D01*
X11299824Y-10962674D02*
X11309348Y-10981722D01*
X11309348Y-10981722D02*
X11309348Y-11086484D01*
X11404586Y-11086484D02*
X11404586Y-10953150D01*
X11404586Y-10972198D02*
X11414110Y-10962674D01*
X11414110Y-10962674D02*
X11433158Y-10953150D01*
X11433158Y-10953150D02*
X11461729Y-10953150D01*
X11461729Y-10953150D02*
X11480777Y-10962674D01*
X11480777Y-10962674D02*
X11490301Y-10981722D01*
X11490301Y-10981722D02*
X11490301Y-11086484D01*
X11490301Y-10981722D02*
X11499824Y-10962674D01*
X11499824Y-10962674D02*
X11518872Y-10953150D01*
X11518872Y-10953150D02*
X11547443Y-10953150D01*
X11547443Y-10953150D02*
X11566491Y-10962674D01*
X11566491Y-10962674D02*
X11576015Y-10981722D01*
X11576015Y-10981722D02*
X11576015Y-11086484D01*
X11966491Y-10876960D02*
X11795063Y-11134103D01*
X12223634Y-10886484D02*
X12242682Y-10886484D01*
X12242682Y-10886484D02*
X12261729Y-10896008D01*
X12261729Y-10896008D02*
X12271253Y-10905531D01*
X12271253Y-10905531D02*
X12280777Y-10924579D01*
X12280777Y-10924579D02*
X12290301Y-10962674D01*
X12290301Y-10962674D02*
X12290301Y-11010293D01*
X12290301Y-11010293D02*
X12280777Y-11048389D01*
X12280777Y-11048389D02*
X12271253Y-11067436D01*
X12271253Y-11067436D02*
X12261729Y-11076960D01*
X12261729Y-11076960D02*
X12242682Y-11086484D01*
X12242682Y-11086484D02*
X12223634Y-11086484D01*
X12223634Y-11086484D02*
X12204586Y-11076960D01*
X12204586Y-11076960D02*
X12195063Y-11067436D01*
X12195063Y-11067436D02*
X12185539Y-11048389D01*
X12185539Y-11048389D02*
X12176015Y-11010293D01*
X12176015Y-11010293D02*
X12176015Y-10962674D01*
X12176015Y-10962674D02*
X12185539Y-10924579D01*
X12185539Y-10924579D02*
X12195063Y-10905531D01*
X12195063Y-10905531D02*
X12204586Y-10896008D01*
X12204586Y-10896008D02*
X12223634Y-10886484D01*
X12376015Y-11067436D02*
X12385539Y-11076960D01*
X12385539Y-11076960D02*
X12376015Y-11086484D01*
X12376015Y-11086484D02*
X12366491Y-11076960D01*
X12366491Y-11076960D02*
X12376015Y-11067436D01*
X12376015Y-11067436D02*
X12376015Y-11086484D01*
X12509348Y-10886484D02*
X12528396Y-10886484D01*
X12528396Y-10886484D02*
X12547444Y-10896008D01*
X12547444Y-10896008D02*
X12556967Y-10905531D01*
X12556967Y-10905531D02*
X12566491Y-10924579D01*
X12566491Y-10924579D02*
X12576015Y-10962674D01*
X12576015Y-10962674D02*
X12576015Y-11010293D01*
X12576015Y-11010293D02*
X12566491Y-11048389D01*
X12566491Y-11048389D02*
X12556967Y-11067436D01*
X12556967Y-11067436D02*
X12547444Y-11076960D01*
X12547444Y-11076960D02*
X12528396Y-11086484D01*
X12528396Y-11086484D02*
X12509348Y-11086484D01*
X12509348Y-11086484D02*
X12490301Y-11076960D01*
X12490301Y-11076960D02*
X12480777Y-11067436D01*
X12480777Y-11067436D02*
X12471253Y-11048389D01*
X12471253Y-11048389D02*
X12461729Y-11010293D01*
X12461729Y-11010293D02*
X12461729Y-10962674D01*
X12461729Y-10962674D02*
X12471253Y-10924579D01*
X12471253Y-10924579D02*
X12480777Y-10905531D01*
X12480777Y-10905531D02*
X12490301Y-10896008D01*
X12490301Y-10896008D02*
X12509348Y-10886484D01*
X12642682Y-10886484D02*
X12766491Y-10886484D01*
X12766491Y-10886484D02*
X12699825Y-10962674D01*
X12699825Y-10962674D02*
X12728396Y-10962674D01*
X12728396Y-10962674D02*
X12747444Y-10972198D01*
X12747444Y-10972198D02*
X12756967Y-10981722D01*
X12756967Y-10981722D02*
X12766491Y-11000770D01*
X12766491Y-11000770D02*
X12766491Y-11048389D01*
X12766491Y-11048389D02*
X12756967Y-11067436D01*
X12756967Y-11067436D02*
X12747444Y-11076960D01*
X12747444Y-11076960D02*
X12728396Y-11086484D01*
X12728396Y-11086484D02*
X12671253Y-11086484D01*
X12671253Y-11086484D02*
X12652206Y-11076960D01*
X12652206Y-11076960D02*
X12642682Y-11067436D01*
X12956967Y-11086484D02*
X12842682Y-11086484D01*
X12899825Y-11086484D02*
X12899825Y-10886484D01*
X12899825Y-10886484D02*
X12880777Y-10915055D01*
X12880777Y-10915055D02*
X12861729Y-10934103D01*
X12861729Y-10934103D02*
X12842682Y-10943627D01*
X13137920Y-10886484D02*
X13042682Y-10886484D01*
X13042682Y-10886484D02*
X13033158Y-10981722D01*
X13033158Y-10981722D02*
X13042682Y-10972198D01*
X13042682Y-10972198D02*
X13061729Y-10962674D01*
X13061729Y-10962674D02*
X13109348Y-10962674D01*
X13109348Y-10962674D02*
X13128396Y-10972198D01*
X13128396Y-10972198D02*
X13137920Y-10981722D01*
X13137920Y-10981722D02*
X13147444Y-11000770D01*
X13147444Y-11000770D02*
X13147444Y-11048389D01*
X13147444Y-11048389D02*
X13137920Y-11067436D01*
X13137920Y-11067436D02*
X13128396Y-11076960D01*
X13128396Y-11076960D02*
X13109348Y-11086484D01*
X13109348Y-11086484D02*
X13061729Y-11086484D01*
X13061729Y-11086484D02*
X13042682Y-11076960D01*
X13042682Y-11076960D02*
X13033158Y-11067436D01*
X13223634Y-10886484D02*
X13223634Y-10924579D01*
X13299825Y-10886484D02*
X13299825Y-10924579D01*
X13595063Y-11162674D02*
X13585539Y-11153150D01*
X13585539Y-11153150D02*
X13566491Y-11124579D01*
X13566491Y-11124579D02*
X13556968Y-11105531D01*
X13556968Y-11105531D02*
X13547444Y-11076960D01*
X13547444Y-11076960D02*
X13537920Y-11029341D01*
X13537920Y-11029341D02*
X13537920Y-10991246D01*
X13537920Y-10991246D02*
X13547444Y-10943627D01*
X13547444Y-10943627D02*
X13556968Y-10915055D01*
X13556968Y-10915055D02*
X13566491Y-10896008D01*
X13566491Y-10896008D02*
X13585539Y-10867436D01*
X13585539Y-10867436D02*
X13595063Y-10857912D01*
X13756968Y-10953150D02*
X13756968Y-11086484D01*
X13709348Y-10876960D02*
X13661729Y-11019817D01*
X13661729Y-11019817D02*
X13785539Y-11019817D01*
X14014110Y-11086484D02*
X14014110Y-10886484D01*
X14099825Y-11086484D02*
X14099825Y-10981722D01*
X14099825Y-10981722D02*
X14090301Y-10962674D01*
X14090301Y-10962674D02*
X14071253Y-10953150D01*
X14071253Y-10953150D02*
X14042682Y-10953150D01*
X14042682Y-10953150D02*
X14023634Y-10962674D01*
X14023634Y-10962674D02*
X14014110Y-10972198D01*
X14223634Y-11086484D02*
X14204587Y-11076960D01*
X14204587Y-11076960D02*
X14195063Y-11067436D01*
X14195063Y-11067436D02*
X14185539Y-11048389D01*
X14185539Y-11048389D02*
X14185539Y-10991246D01*
X14185539Y-10991246D02*
X14195063Y-10972198D01*
X14195063Y-10972198D02*
X14204587Y-10962674D01*
X14204587Y-10962674D02*
X14223634Y-10953150D01*
X14223634Y-10953150D02*
X14252206Y-10953150D01*
X14252206Y-10953150D02*
X14271253Y-10962674D01*
X14271253Y-10962674D02*
X14280777Y-10972198D01*
X14280777Y-10972198D02*
X14290301Y-10991246D01*
X14290301Y-10991246D02*
X14290301Y-11048389D01*
X14290301Y-11048389D02*
X14280777Y-11067436D01*
X14280777Y-11067436D02*
X14271253Y-11076960D01*
X14271253Y-11076960D02*
X14252206Y-11086484D01*
X14252206Y-11086484D02*
X14223634Y-11086484D01*
X14404587Y-11086484D02*
X14385539Y-11076960D01*
X14385539Y-11076960D02*
X14376015Y-11057912D01*
X14376015Y-11057912D02*
X14376015Y-10886484D01*
X14556968Y-11076960D02*
X14537920Y-11086484D01*
X14537920Y-11086484D02*
X14499825Y-11086484D01*
X14499825Y-11086484D02*
X14480777Y-11076960D01*
X14480777Y-11076960D02*
X14471253Y-11057912D01*
X14471253Y-11057912D02*
X14471253Y-10981722D01*
X14471253Y-10981722D02*
X14480777Y-10962674D01*
X14480777Y-10962674D02*
X14499825Y-10953150D01*
X14499825Y-10953150D02*
X14537920Y-10953150D01*
X14537920Y-10953150D02*
X14556968Y-10962674D01*
X14556968Y-10962674D02*
X14566491Y-10981722D01*
X14566491Y-10981722D02*
X14566491Y-11000770D01*
X14566491Y-11000770D02*
X14471253Y-11019817D01*
X14642682Y-11076960D02*
X14661730Y-11086484D01*
X14661730Y-11086484D02*
X14699825Y-11086484D01*
X14699825Y-11086484D02*
X14718872Y-11076960D01*
X14718872Y-11076960D02*
X14728396Y-11057912D01*
X14728396Y-11057912D02*
X14728396Y-11048389D01*
X14728396Y-11048389D02*
X14718872Y-11029341D01*
X14718872Y-11029341D02*
X14699825Y-11019817D01*
X14699825Y-11019817D02*
X14671253Y-11019817D01*
X14671253Y-11019817D02*
X14652206Y-11010293D01*
X14652206Y-11010293D02*
X14642682Y-10991246D01*
X14642682Y-10991246D02*
X14642682Y-10981722D01*
X14642682Y-10981722D02*
X14652206Y-10962674D01*
X14652206Y-10962674D02*
X14671253Y-10953150D01*
X14671253Y-10953150D02*
X14699825Y-10953150D01*
X14699825Y-10953150D02*
X14718872Y-10962674D01*
X14795063Y-11162674D02*
X14804587Y-11153150D01*
X14804587Y-11153150D02*
X14823634Y-11124579D01*
X14823634Y-11124579D02*
X14833158Y-11105531D01*
X14833158Y-11105531D02*
X14842682Y-11076960D01*
X14842682Y-11076960D02*
X14852206Y-11029341D01*
X14852206Y-11029341D02*
X14852206Y-10991246D01*
X14852206Y-10991246D02*
X14842682Y-10943627D01*
X14842682Y-10943627D02*
X14833158Y-10915055D01*
X14833158Y-10915055D02*
X14823634Y-10896008D01*
X14823634Y-10896008D02*
X14804587Y-10867436D01*
X14804587Y-10867436D02*
X14795063Y-10857912D01*
D10*
X10020000Y-11259000D02*
G75*
G03*
X10020000Y-11259000I-45000J0D01*
G01*
D11*
X10318872Y-11150484D02*
X10337920Y-11150484D01*
X10337920Y-11150484D02*
X10356967Y-11160008D01*
X10356967Y-11160008D02*
X10366491Y-11169531D01*
X10366491Y-11169531D02*
X10376015Y-11188579D01*
X10376015Y-11188579D02*
X10385539Y-11226674D01*
X10385539Y-11226674D02*
X10385539Y-11274293D01*
X10385539Y-11274293D02*
X10376015Y-11312388D01*
X10376015Y-11312388D02*
X10366491Y-11331436D01*
X10366491Y-11331436D02*
X10356967Y-11340960D01*
X10356967Y-11340960D02*
X10337920Y-11350484D01*
X10337920Y-11350484D02*
X10318872Y-11350484D01*
X10318872Y-11350484D02*
X10299824Y-11340960D01*
X10299824Y-11340960D02*
X10290301Y-11331436D01*
X10290301Y-11331436D02*
X10280777Y-11312388D01*
X10280777Y-11312388D02*
X10271253Y-11274293D01*
X10271253Y-11274293D02*
X10271253Y-11226674D01*
X10271253Y-11226674D02*
X10280777Y-11188579D01*
X10280777Y-11188579D02*
X10290301Y-11169531D01*
X10290301Y-11169531D02*
X10299824Y-11160008D01*
X10299824Y-11160008D02*
X10318872Y-11150484D01*
X10471253Y-11331436D02*
X10480777Y-11340960D01*
X10480777Y-11340960D02*
X10471253Y-11350484D01*
X10471253Y-11350484D02*
X10461729Y-11340960D01*
X10461729Y-11340960D02*
X10471253Y-11331436D01*
X10471253Y-11331436D02*
X10471253Y-11350484D01*
X10576015Y-11350484D02*
X10614110Y-11350484D01*
X10614110Y-11350484D02*
X10633158Y-11340960D01*
X10633158Y-11340960D02*
X10642682Y-11331436D01*
X10642682Y-11331436D02*
X10661729Y-11302865D01*
X10661729Y-11302865D02*
X10671253Y-11264769D01*
X10671253Y-11264769D02*
X10671253Y-11188579D01*
X10671253Y-11188579D02*
X10661729Y-11169531D01*
X10661729Y-11169531D02*
X10652205Y-11160008D01*
X10652205Y-11160008D02*
X10633158Y-11150484D01*
X10633158Y-11150484D02*
X10595063Y-11150484D01*
X10595063Y-11150484D02*
X10576015Y-11160008D01*
X10576015Y-11160008D02*
X10566491Y-11169531D01*
X10566491Y-11169531D02*
X10556967Y-11188579D01*
X10556967Y-11188579D02*
X10556967Y-11236198D01*
X10556967Y-11236198D02*
X10566491Y-11255246D01*
X10566491Y-11255246D02*
X10576015Y-11264769D01*
X10576015Y-11264769D02*
X10595063Y-11274293D01*
X10595063Y-11274293D02*
X10633158Y-11274293D01*
X10633158Y-11274293D02*
X10652205Y-11264769D01*
X10652205Y-11264769D02*
X10661729Y-11255246D01*
X10661729Y-11255246D02*
X10671253Y-11236198D01*
X10795063Y-11150484D02*
X10814110Y-11150484D01*
X10814110Y-11150484D02*
X10833158Y-11160008D01*
X10833158Y-11160008D02*
X10842682Y-11169531D01*
X10842682Y-11169531D02*
X10852205Y-11188579D01*
X10852205Y-11188579D02*
X10861729Y-11226674D01*
X10861729Y-11226674D02*
X10861729Y-11274293D01*
X10861729Y-11274293D02*
X10852205Y-11312388D01*
X10852205Y-11312388D02*
X10842682Y-11331436D01*
X10842682Y-11331436D02*
X10833158Y-11340960D01*
X10833158Y-11340960D02*
X10814110Y-11350484D01*
X10814110Y-11350484D02*
X10795063Y-11350484D01*
X10795063Y-11350484D02*
X10776015Y-11340960D01*
X10776015Y-11340960D02*
X10766491Y-11331436D01*
X10766491Y-11331436D02*
X10756967Y-11312388D01*
X10756967Y-11312388D02*
X10747444Y-11274293D01*
X10747444Y-11274293D02*
X10747444Y-11226674D01*
X10747444Y-11226674D02*
X10756967Y-11188579D01*
X10756967Y-11188579D02*
X10766491Y-11169531D01*
X10766491Y-11169531D02*
X10776015Y-11160008D01*
X10776015Y-11160008D02*
X10795063Y-11150484D01*
X10985539Y-11150484D02*
X11004586Y-11150484D01*
X11004586Y-11150484D02*
X11023634Y-11160008D01*
X11023634Y-11160008D02*
X11033158Y-11169531D01*
X11033158Y-11169531D02*
X11042682Y-11188579D01*
X11042682Y-11188579D02*
X11052205Y-11226674D01*
X11052205Y-11226674D02*
X11052205Y-11274293D01*
X11052205Y-11274293D02*
X11042682Y-11312388D01*
X11042682Y-11312388D02*
X11033158Y-11331436D01*
X11033158Y-11331436D02*
X11023634Y-11340960D01*
X11023634Y-11340960D02*
X11004586Y-11350484D01*
X11004586Y-11350484D02*
X10985539Y-11350484D01*
X10985539Y-11350484D02*
X10966491Y-11340960D01*
X10966491Y-11340960D02*
X10956967Y-11331436D01*
X10956967Y-11331436D02*
X10947444Y-11312388D01*
X10947444Y-11312388D02*
X10937920Y-11274293D01*
X10937920Y-11274293D02*
X10937920Y-11226674D01*
X10937920Y-11226674D02*
X10947444Y-11188579D01*
X10947444Y-11188579D02*
X10956967Y-11169531D01*
X10956967Y-11169531D02*
X10966491Y-11160008D01*
X10966491Y-11160008D02*
X10985539Y-11150484D01*
X11137920Y-11350484D02*
X11137920Y-11217150D01*
X11137920Y-11236198D02*
X11147444Y-11226674D01*
X11147444Y-11226674D02*
X11166491Y-11217150D01*
X11166491Y-11217150D02*
X11195063Y-11217150D01*
X11195063Y-11217150D02*
X11214110Y-11226674D01*
X11214110Y-11226674D02*
X11223634Y-11245722D01*
X11223634Y-11245722D02*
X11223634Y-11350484D01*
X11223634Y-11245722D02*
X11233158Y-11226674D01*
X11233158Y-11226674D02*
X11252205Y-11217150D01*
X11252205Y-11217150D02*
X11280777Y-11217150D01*
X11280777Y-11217150D02*
X11299824Y-11226674D01*
X11299824Y-11226674D02*
X11309348Y-11245722D01*
X11309348Y-11245722D02*
X11309348Y-11350484D01*
X11404586Y-11350484D02*
X11404586Y-11217150D01*
X11404586Y-11236198D02*
X11414110Y-11226674D01*
X11414110Y-11226674D02*
X11433158Y-11217150D01*
X11433158Y-11217150D02*
X11461729Y-11217150D01*
X11461729Y-11217150D02*
X11480777Y-11226674D01*
X11480777Y-11226674D02*
X11490301Y-11245722D01*
X11490301Y-11245722D02*
X11490301Y-11350484D01*
X11490301Y-11245722D02*
X11499824Y-11226674D01*
X11499824Y-11226674D02*
X11518872Y-11217150D01*
X11518872Y-11217150D02*
X11547443Y-11217150D01*
X11547443Y-11217150D02*
X11566491Y-11226674D01*
X11566491Y-11226674D02*
X11576015Y-11245722D01*
X11576015Y-11245722D02*
X11576015Y-11350484D01*
X11966491Y-11140960D02*
X11795063Y-11398103D01*
X12223634Y-11150484D02*
X12242682Y-11150484D01*
X12242682Y-11150484D02*
X12261729Y-11160008D01*
X12261729Y-11160008D02*
X12271253Y-11169531D01*
X12271253Y-11169531D02*
X12280777Y-11188579D01*
X12280777Y-11188579D02*
X12290301Y-11226674D01*
X12290301Y-11226674D02*
X12290301Y-11274293D01*
X12290301Y-11274293D02*
X12280777Y-11312388D01*
X12280777Y-11312388D02*
X12271253Y-11331436D01*
X12271253Y-11331436D02*
X12261729Y-11340960D01*
X12261729Y-11340960D02*
X12242682Y-11350484D01*
X12242682Y-11350484D02*
X12223634Y-11350484D01*
X12223634Y-11350484D02*
X12204586Y-11340960D01*
X12204586Y-11340960D02*
X12195063Y-11331436D01*
X12195063Y-11331436D02*
X12185539Y-11312388D01*
X12185539Y-11312388D02*
X12176015Y-11274293D01*
X12176015Y-11274293D02*
X12176015Y-11226674D01*
X12176015Y-11226674D02*
X12185539Y-11188579D01*
X12185539Y-11188579D02*
X12195063Y-11169531D01*
X12195063Y-11169531D02*
X12204586Y-11160008D01*
X12204586Y-11160008D02*
X12223634Y-11150484D01*
X12376015Y-11331436D02*
X12385539Y-11340960D01*
X12385539Y-11340960D02*
X12376015Y-11350484D01*
X12376015Y-11350484D02*
X12366491Y-11340960D01*
X12366491Y-11340960D02*
X12376015Y-11331436D01*
X12376015Y-11331436D02*
X12376015Y-11350484D01*
X12509348Y-11150484D02*
X12528396Y-11150484D01*
X12528396Y-11150484D02*
X12547444Y-11160008D01*
X12547444Y-11160008D02*
X12556967Y-11169531D01*
X12556967Y-11169531D02*
X12566491Y-11188579D01*
X12566491Y-11188579D02*
X12576015Y-11226674D01*
X12576015Y-11226674D02*
X12576015Y-11274293D01*
X12576015Y-11274293D02*
X12566491Y-11312388D01*
X12566491Y-11312388D02*
X12556967Y-11331436D01*
X12556967Y-11331436D02*
X12547444Y-11340960D01*
X12547444Y-11340960D02*
X12528396Y-11350484D01*
X12528396Y-11350484D02*
X12509348Y-11350484D01*
X12509348Y-11350484D02*
X12490301Y-11340960D01*
X12490301Y-11340960D02*
X12480777Y-11331436D01*
X12480777Y-11331436D02*
X12471253Y-11312388D01*
X12471253Y-11312388D02*
X12461729Y-11274293D01*
X12461729Y-11274293D02*
X12461729Y-11226674D01*
X12461729Y-11226674D02*
X12471253Y-11188579D01*
X12471253Y-11188579D02*
X12480777Y-11169531D01*
X12480777Y-11169531D02*
X12490301Y-11160008D01*
X12490301Y-11160008D02*
X12509348Y-11150484D01*
X12642682Y-11150484D02*
X12766491Y-11150484D01*
X12766491Y-11150484D02*
X12699825Y-11226674D01*
X12699825Y-11226674D02*
X12728396Y-11226674D01*
X12728396Y-11226674D02*
X12747444Y-11236198D01*
X12747444Y-11236198D02*
X12756967Y-11245722D01*
X12756967Y-11245722D02*
X12766491Y-11264769D01*
X12766491Y-11264769D02*
X12766491Y-11312388D01*
X12766491Y-11312388D02*
X12756967Y-11331436D01*
X12756967Y-11331436D02*
X12747444Y-11340960D01*
X12747444Y-11340960D02*
X12728396Y-11350484D01*
X12728396Y-11350484D02*
X12671253Y-11350484D01*
X12671253Y-11350484D02*
X12652206Y-11340960D01*
X12652206Y-11340960D02*
X12642682Y-11331436D01*
X12947444Y-11150484D02*
X12852206Y-11150484D01*
X12852206Y-11150484D02*
X12842682Y-11245722D01*
X12842682Y-11245722D02*
X12852206Y-11236198D01*
X12852206Y-11236198D02*
X12871253Y-11226674D01*
X12871253Y-11226674D02*
X12918872Y-11226674D01*
X12918872Y-11226674D02*
X12937920Y-11236198D01*
X12937920Y-11236198D02*
X12947444Y-11245722D01*
X12947444Y-11245722D02*
X12956967Y-11264769D01*
X12956967Y-11264769D02*
X12956967Y-11312388D01*
X12956967Y-11312388D02*
X12947444Y-11331436D01*
X12947444Y-11331436D02*
X12937920Y-11340960D01*
X12937920Y-11340960D02*
X12918872Y-11350484D01*
X12918872Y-11350484D02*
X12871253Y-11350484D01*
X12871253Y-11350484D02*
X12852206Y-11340960D01*
X12852206Y-11340960D02*
X12842682Y-11331436D01*
X13128396Y-11217150D02*
X13128396Y-11350484D01*
X13080777Y-11140960D02*
X13033158Y-11283817D01*
X13033158Y-11283817D02*
X13156967Y-11283817D01*
X13223634Y-11150484D02*
X13223634Y-11188579D01*
X13299825Y-11150484D02*
X13299825Y-11188579D01*
X13595063Y-11426674D02*
X13585539Y-11417150D01*
X13585539Y-11417150D02*
X13566491Y-11388579D01*
X13566491Y-11388579D02*
X13556968Y-11369531D01*
X13556968Y-11369531D02*
X13547444Y-11340960D01*
X13547444Y-11340960D02*
X13537920Y-11293341D01*
X13537920Y-11293341D02*
X13537920Y-11255246D01*
X13537920Y-11255246D02*
X13547444Y-11207627D01*
X13547444Y-11207627D02*
X13556968Y-11179055D01*
X13556968Y-11179055D02*
X13566491Y-11160008D01*
X13566491Y-11160008D02*
X13585539Y-11131436D01*
X13585539Y-11131436D02*
X13595063Y-11121912D01*
X13756968Y-11150484D02*
X13718872Y-11150484D01*
X13718872Y-11150484D02*
X13699825Y-11160008D01*
X13699825Y-11160008D02*
X13690301Y-11169531D01*
X13690301Y-11169531D02*
X13671253Y-11198103D01*
X13671253Y-11198103D02*
X13661729Y-11236198D01*
X13661729Y-11236198D02*
X13661729Y-11312388D01*
X13661729Y-11312388D02*
X13671253Y-11331436D01*
X13671253Y-11331436D02*
X13680777Y-11340960D01*
X13680777Y-11340960D02*
X13699825Y-11350484D01*
X13699825Y-11350484D02*
X13737920Y-11350484D01*
X13737920Y-11350484D02*
X13756968Y-11340960D01*
X13756968Y-11340960D02*
X13766491Y-11331436D01*
X13766491Y-11331436D02*
X13776015Y-11312388D01*
X13776015Y-11312388D02*
X13776015Y-11264769D01*
X13776015Y-11264769D02*
X13766491Y-11245722D01*
X13766491Y-11245722D02*
X13756968Y-11236198D01*
X13756968Y-11236198D02*
X13737920Y-11226674D01*
X13737920Y-11226674D02*
X13699825Y-11226674D01*
X13699825Y-11226674D02*
X13680777Y-11236198D01*
X13680777Y-11236198D02*
X13671253Y-11245722D01*
X13671253Y-11245722D02*
X13661729Y-11264769D01*
X14014110Y-11350484D02*
X14014110Y-11150484D01*
X14099825Y-11350484D02*
X14099825Y-11245722D01*
X14099825Y-11245722D02*
X14090301Y-11226674D01*
X14090301Y-11226674D02*
X14071253Y-11217150D01*
X14071253Y-11217150D02*
X14042682Y-11217150D01*
X14042682Y-11217150D02*
X14023634Y-11226674D01*
X14023634Y-11226674D02*
X14014110Y-11236198D01*
X14223634Y-11350484D02*
X14204587Y-11340960D01*
X14204587Y-11340960D02*
X14195063Y-11331436D01*
X14195063Y-11331436D02*
X14185539Y-11312388D01*
X14185539Y-11312388D02*
X14185539Y-11255246D01*
X14185539Y-11255246D02*
X14195063Y-11236198D01*
X14195063Y-11236198D02*
X14204587Y-11226674D01*
X14204587Y-11226674D02*
X14223634Y-11217150D01*
X14223634Y-11217150D02*
X14252206Y-11217150D01*
X14252206Y-11217150D02*
X14271253Y-11226674D01*
X14271253Y-11226674D02*
X14280777Y-11236198D01*
X14280777Y-11236198D02*
X14290301Y-11255246D01*
X14290301Y-11255246D02*
X14290301Y-11312388D01*
X14290301Y-11312388D02*
X14280777Y-11331436D01*
X14280777Y-11331436D02*
X14271253Y-11340960D01*
X14271253Y-11340960D02*
X14252206Y-11350484D01*
X14252206Y-11350484D02*
X14223634Y-11350484D01*
X14404587Y-11350484D02*
X14385539Y-11340960D01*
X14385539Y-11340960D02*
X14376015Y-11321912D01*
X14376015Y-11321912D02*
X14376015Y-11150484D01*
X14556968Y-11340960D02*
X14537920Y-11350484D01*
X14537920Y-11350484D02*
X14499825Y-11350484D01*
X14499825Y-11350484D02*
X14480777Y-11340960D01*
X14480777Y-11340960D02*
X14471253Y-11321912D01*
X14471253Y-11321912D02*
X14471253Y-11245722D01*
X14471253Y-11245722D02*
X14480777Y-11226674D01*
X14480777Y-11226674D02*
X14499825Y-11217150D01*
X14499825Y-11217150D02*
X14537920Y-11217150D01*
X14537920Y-11217150D02*
X14556968Y-11226674D01*
X14556968Y-11226674D02*
X14566491Y-11245722D01*
X14566491Y-11245722D02*
X14566491Y-11264769D01*
X14566491Y-11264769D02*
X14471253Y-11283817D01*
X14642682Y-11340960D02*
X14661730Y-11350484D01*
X14661730Y-11350484D02*
X14699825Y-11350484D01*
X14699825Y-11350484D02*
X14718872Y-11340960D01*
X14718872Y-11340960D02*
X14728396Y-11321912D01*
X14728396Y-11321912D02*
X14728396Y-11312388D01*
X14728396Y-11312388D02*
X14718872Y-11293341D01*
X14718872Y-11293341D02*
X14699825Y-11283817D01*
X14699825Y-11283817D02*
X14671253Y-11283817D01*
X14671253Y-11283817D02*
X14652206Y-11274293D01*
X14652206Y-11274293D02*
X14642682Y-11255246D01*
X14642682Y-11255246D02*
X14642682Y-11245722D01*
X14642682Y-11245722D02*
X14652206Y-11226674D01*
X14652206Y-11226674D02*
X14671253Y-11217150D01*
X14671253Y-11217150D02*
X14699825Y-11217150D01*
X14699825Y-11217150D02*
X14718872Y-11226674D01*
X14795063Y-11426674D02*
X14804587Y-11417150D01*
X14804587Y-11417150D02*
X14823634Y-11388579D01*
X14823634Y-11388579D02*
X14833158Y-11369531D01*
X14833158Y-11369531D02*
X14842682Y-11340960D01*
X14842682Y-11340960D02*
X14852206Y-11293341D01*
X14852206Y-11293341D02*
X14852206Y-11255246D01*
X14852206Y-11255246D02*
X14842682Y-11207627D01*
X14842682Y-11207627D02*
X14833158Y-11179055D01*
X14833158Y-11179055D02*
X14823634Y-11160008D01*
X14823634Y-11160008D02*
X14804587Y-11131436D01*
X14804587Y-11131436D02*
X14795063Y-11121912D01*
D10*
X9974000Y-11477000D02*
X9974000Y-11569000D01*
X9928000Y-11523000D02*
X10020000Y-11523000D01*
D11*
X10318872Y-11414484D02*
X10337920Y-11414484D01*
X10337920Y-11414484D02*
X10356967Y-11424008D01*
X10356967Y-11424008D02*
X10366491Y-11433531D01*
X10366491Y-11433531D02*
X10376015Y-11452579D01*
X10376015Y-11452579D02*
X10385539Y-11490674D01*
X10385539Y-11490674D02*
X10385539Y-11538293D01*
X10385539Y-11538293D02*
X10376015Y-11576388D01*
X10376015Y-11576388D02*
X10366491Y-11595436D01*
X10366491Y-11595436D02*
X10356967Y-11604960D01*
X10356967Y-11604960D02*
X10337920Y-11614484D01*
X10337920Y-11614484D02*
X10318872Y-11614484D01*
X10318872Y-11614484D02*
X10299824Y-11604960D01*
X10299824Y-11604960D02*
X10290301Y-11595436D01*
X10290301Y-11595436D02*
X10280777Y-11576388D01*
X10280777Y-11576388D02*
X10271253Y-11538293D01*
X10271253Y-11538293D02*
X10271253Y-11490674D01*
X10271253Y-11490674D02*
X10280777Y-11452579D01*
X10280777Y-11452579D02*
X10290301Y-11433531D01*
X10290301Y-11433531D02*
X10299824Y-11424008D01*
X10299824Y-11424008D02*
X10318872Y-11414484D01*
X10471253Y-11595436D02*
X10480777Y-11604960D01*
X10480777Y-11604960D02*
X10471253Y-11614484D01*
X10471253Y-11614484D02*
X10461729Y-11604960D01*
X10461729Y-11604960D02*
X10471253Y-11595436D01*
X10471253Y-11595436D02*
X10471253Y-11614484D01*
X10576015Y-11614484D02*
X10614110Y-11614484D01*
X10614110Y-11614484D02*
X10633158Y-11604960D01*
X10633158Y-11604960D02*
X10642682Y-11595436D01*
X10642682Y-11595436D02*
X10661729Y-11566865D01*
X10661729Y-11566865D02*
X10671253Y-11528769D01*
X10671253Y-11528769D02*
X10671253Y-11452579D01*
X10671253Y-11452579D02*
X10661729Y-11433531D01*
X10661729Y-11433531D02*
X10652205Y-11424008D01*
X10652205Y-11424008D02*
X10633158Y-11414484D01*
X10633158Y-11414484D02*
X10595063Y-11414484D01*
X10595063Y-11414484D02*
X10576015Y-11424008D01*
X10576015Y-11424008D02*
X10566491Y-11433531D01*
X10566491Y-11433531D02*
X10556967Y-11452579D01*
X10556967Y-11452579D02*
X10556967Y-11500198D01*
X10556967Y-11500198D02*
X10566491Y-11519246D01*
X10566491Y-11519246D02*
X10576015Y-11528769D01*
X10576015Y-11528769D02*
X10595063Y-11538293D01*
X10595063Y-11538293D02*
X10633158Y-11538293D01*
X10633158Y-11538293D02*
X10652205Y-11528769D01*
X10652205Y-11528769D02*
X10661729Y-11519246D01*
X10661729Y-11519246D02*
X10671253Y-11500198D01*
X10747444Y-11433531D02*
X10756967Y-11424008D01*
X10756967Y-11424008D02*
X10776015Y-11414484D01*
X10776015Y-11414484D02*
X10823634Y-11414484D01*
X10823634Y-11414484D02*
X10842682Y-11424008D01*
X10842682Y-11424008D02*
X10852205Y-11433531D01*
X10852205Y-11433531D02*
X10861729Y-11452579D01*
X10861729Y-11452579D02*
X10861729Y-11471627D01*
X10861729Y-11471627D02*
X10852205Y-11500198D01*
X10852205Y-11500198D02*
X10737920Y-11614484D01*
X10737920Y-11614484D02*
X10861729Y-11614484D01*
X10985539Y-11414484D02*
X11004586Y-11414484D01*
X11004586Y-11414484D02*
X11023634Y-11424008D01*
X11023634Y-11424008D02*
X11033158Y-11433531D01*
X11033158Y-11433531D02*
X11042682Y-11452579D01*
X11042682Y-11452579D02*
X11052205Y-11490674D01*
X11052205Y-11490674D02*
X11052205Y-11538293D01*
X11052205Y-11538293D02*
X11042682Y-11576388D01*
X11042682Y-11576388D02*
X11033158Y-11595436D01*
X11033158Y-11595436D02*
X11023634Y-11604960D01*
X11023634Y-11604960D02*
X11004586Y-11614484D01*
X11004586Y-11614484D02*
X10985539Y-11614484D01*
X10985539Y-11614484D02*
X10966491Y-11604960D01*
X10966491Y-11604960D02*
X10956967Y-11595436D01*
X10956967Y-11595436D02*
X10947444Y-11576388D01*
X10947444Y-11576388D02*
X10937920Y-11538293D01*
X10937920Y-11538293D02*
X10937920Y-11490674D01*
X10937920Y-11490674D02*
X10947444Y-11452579D01*
X10947444Y-11452579D02*
X10956967Y-11433531D01*
X10956967Y-11433531D02*
X10966491Y-11424008D01*
X10966491Y-11424008D02*
X10985539Y-11414484D01*
X11137920Y-11614484D02*
X11137920Y-11481150D01*
X11137920Y-11500198D02*
X11147444Y-11490674D01*
X11147444Y-11490674D02*
X11166491Y-11481150D01*
X11166491Y-11481150D02*
X11195063Y-11481150D01*
X11195063Y-11481150D02*
X11214110Y-11490674D01*
X11214110Y-11490674D02*
X11223634Y-11509722D01*
X11223634Y-11509722D02*
X11223634Y-11614484D01*
X11223634Y-11509722D02*
X11233158Y-11490674D01*
X11233158Y-11490674D02*
X11252205Y-11481150D01*
X11252205Y-11481150D02*
X11280777Y-11481150D01*
X11280777Y-11481150D02*
X11299824Y-11490674D01*
X11299824Y-11490674D02*
X11309348Y-11509722D01*
X11309348Y-11509722D02*
X11309348Y-11614484D01*
X11404586Y-11614484D02*
X11404586Y-11481150D01*
X11404586Y-11500198D02*
X11414110Y-11490674D01*
X11414110Y-11490674D02*
X11433158Y-11481150D01*
X11433158Y-11481150D02*
X11461729Y-11481150D01*
X11461729Y-11481150D02*
X11480777Y-11490674D01*
X11480777Y-11490674D02*
X11490301Y-11509722D01*
X11490301Y-11509722D02*
X11490301Y-11614484D01*
X11490301Y-11509722D02*
X11499824Y-11490674D01*
X11499824Y-11490674D02*
X11518872Y-11481150D01*
X11518872Y-11481150D02*
X11547443Y-11481150D01*
X11547443Y-11481150D02*
X11566491Y-11490674D01*
X11566491Y-11490674D02*
X11576015Y-11509722D01*
X11576015Y-11509722D02*
X11576015Y-11614484D01*
X11966491Y-11404960D02*
X11795063Y-11662103D01*
X12223634Y-11414484D02*
X12242682Y-11414484D01*
X12242682Y-11414484D02*
X12261729Y-11424008D01*
X12261729Y-11424008D02*
X12271253Y-11433531D01*
X12271253Y-11433531D02*
X12280777Y-11452579D01*
X12280777Y-11452579D02*
X12290301Y-11490674D01*
X12290301Y-11490674D02*
X12290301Y-11538293D01*
X12290301Y-11538293D02*
X12280777Y-11576388D01*
X12280777Y-11576388D02*
X12271253Y-11595436D01*
X12271253Y-11595436D02*
X12261729Y-11604960D01*
X12261729Y-11604960D02*
X12242682Y-11614484D01*
X12242682Y-11614484D02*
X12223634Y-11614484D01*
X12223634Y-11614484D02*
X12204586Y-11604960D01*
X12204586Y-11604960D02*
X12195063Y-11595436D01*
X12195063Y-11595436D02*
X12185539Y-11576388D01*
X12185539Y-11576388D02*
X12176015Y-11538293D01*
X12176015Y-11538293D02*
X12176015Y-11490674D01*
X12176015Y-11490674D02*
X12185539Y-11452579D01*
X12185539Y-11452579D02*
X12195063Y-11433531D01*
X12195063Y-11433531D02*
X12204586Y-11424008D01*
X12204586Y-11424008D02*
X12223634Y-11414484D01*
X12376015Y-11595436D02*
X12385539Y-11604960D01*
X12385539Y-11604960D02*
X12376015Y-11614484D01*
X12376015Y-11614484D02*
X12366491Y-11604960D01*
X12366491Y-11604960D02*
X12376015Y-11595436D01*
X12376015Y-11595436D02*
X12376015Y-11614484D01*
X12509348Y-11414484D02*
X12528396Y-11414484D01*
X12528396Y-11414484D02*
X12547444Y-11424008D01*
X12547444Y-11424008D02*
X12556967Y-11433531D01*
X12556967Y-11433531D02*
X12566491Y-11452579D01*
X12566491Y-11452579D02*
X12576015Y-11490674D01*
X12576015Y-11490674D02*
X12576015Y-11538293D01*
X12576015Y-11538293D02*
X12566491Y-11576388D01*
X12566491Y-11576388D02*
X12556967Y-11595436D01*
X12556967Y-11595436D02*
X12547444Y-11604960D01*
X12547444Y-11604960D02*
X12528396Y-11614484D01*
X12528396Y-11614484D02*
X12509348Y-11614484D01*
X12509348Y-11614484D02*
X12490301Y-11604960D01*
X12490301Y-11604960D02*
X12480777Y-11595436D01*
X12480777Y-11595436D02*
X12471253Y-11576388D01*
X12471253Y-11576388D02*
X12461729Y-11538293D01*
X12461729Y-11538293D02*
X12461729Y-11490674D01*
X12461729Y-11490674D02*
X12471253Y-11452579D01*
X12471253Y-11452579D02*
X12480777Y-11433531D01*
X12480777Y-11433531D02*
X12490301Y-11424008D01*
X12490301Y-11424008D02*
X12509348Y-11414484D01*
X12642682Y-11414484D02*
X12766491Y-11414484D01*
X12766491Y-11414484D02*
X12699825Y-11490674D01*
X12699825Y-11490674D02*
X12728396Y-11490674D01*
X12728396Y-11490674D02*
X12747444Y-11500198D01*
X12747444Y-11500198D02*
X12756967Y-11509722D01*
X12756967Y-11509722D02*
X12766491Y-11528769D01*
X12766491Y-11528769D02*
X12766491Y-11576388D01*
X12766491Y-11576388D02*
X12756967Y-11595436D01*
X12756967Y-11595436D02*
X12747444Y-11604960D01*
X12747444Y-11604960D02*
X12728396Y-11614484D01*
X12728396Y-11614484D02*
X12671253Y-11614484D01*
X12671253Y-11614484D02*
X12652206Y-11604960D01*
X12652206Y-11604960D02*
X12642682Y-11595436D01*
X12937920Y-11414484D02*
X12899825Y-11414484D01*
X12899825Y-11414484D02*
X12880777Y-11424008D01*
X12880777Y-11424008D02*
X12871253Y-11433531D01*
X12871253Y-11433531D02*
X12852206Y-11462103D01*
X12852206Y-11462103D02*
X12842682Y-11500198D01*
X12842682Y-11500198D02*
X12842682Y-11576388D01*
X12842682Y-11576388D02*
X12852206Y-11595436D01*
X12852206Y-11595436D02*
X12861729Y-11604960D01*
X12861729Y-11604960D02*
X12880777Y-11614484D01*
X12880777Y-11614484D02*
X12918872Y-11614484D01*
X12918872Y-11614484D02*
X12937920Y-11604960D01*
X12937920Y-11604960D02*
X12947444Y-11595436D01*
X12947444Y-11595436D02*
X12956967Y-11576388D01*
X12956967Y-11576388D02*
X12956967Y-11528769D01*
X12956967Y-11528769D02*
X12947444Y-11509722D01*
X12947444Y-11509722D02*
X12937920Y-11500198D01*
X12937920Y-11500198D02*
X12918872Y-11490674D01*
X12918872Y-11490674D02*
X12880777Y-11490674D01*
X12880777Y-11490674D02*
X12861729Y-11500198D01*
X12861729Y-11500198D02*
X12852206Y-11509722D01*
X12852206Y-11509722D02*
X12842682Y-11528769D01*
X13033158Y-11433531D02*
X13042682Y-11424008D01*
X13042682Y-11424008D02*
X13061729Y-11414484D01*
X13061729Y-11414484D02*
X13109348Y-11414484D01*
X13109348Y-11414484D02*
X13128396Y-11424008D01*
X13128396Y-11424008D02*
X13137920Y-11433531D01*
X13137920Y-11433531D02*
X13147444Y-11452579D01*
X13147444Y-11452579D02*
X13147444Y-11471627D01*
X13147444Y-11471627D02*
X13137920Y-11500198D01*
X13137920Y-11500198D02*
X13023634Y-11614484D01*
X13023634Y-11614484D02*
X13147444Y-11614484D01*
X13223634Y-11414484D02*
X13223634Y-11452579D01*
X13299825Y-11414484D02*
X13299825Y-11452579D01*
X13595063Y-11690674D02*
X13585539Y-11681150D01*
X13585539Y-11681150D02*
X13566491Y-11652579D01*
X13566491Y-11652579D02*
X13556968Y-11633531D01*
X13556968Y-11633531D02*
X13547444Y-11604960D01*
X13547444Y-11604960D02*
X13537920Y-11557341D01*
X13537920Y-11557341D02*
X13537920Y-11519246D01*
X13537920Y-11519246D02*
X13547444Y-11471627D01*
X13547444Y-11471627D02*
X13556968Y-11443055D01*
X13556968Y-11443055D02*
X13566491Y-11424008D01*
X13566491Y-11424008D02*
X13585539Y-11395436D01*
X13585539Y-11395436D02*
X13595063Y-11385912D01*
X13699825Y-11500198D02*
X13680777Y-11490674D01*
X13680777Y-11490674D02*
X13671253Y-11481150D01*
X13671253Y-11481150D02*
X13661729Y-11462103D01*
X13661729Y-11462103D02*
X13661729Y-11452579D01*
X13661729Y-11452579D02*
X13671253Y-11433531D01*
X13671253Y-11433531D02*
X13680777Y-11424008D01*
X13680777Y-11424008D02*
X13699825Y-11414484D01*
X13699825Y-11414484D02*
X13737920Y-11414484D01*
X13737920Y-11414484D02*
X13756968Y-11424008D01*
X13756968Y-11424008D02*
X13766491Y-11433531D01*
X13766491Y-11433531D02*
X13776015Y-11452579D01*
X13776015Y-11452579D02*
X13776015Y-11462103D01*
X13776015Y-11462103D02*
X13766491Y-11481150D01*
X13766491Y-11481150D02*
X13756968Y-11490674D01*
X13756968Y-11490674D02*
X13737920Y-11500198D01*
X13737920Y-11500198D02*
X13699825Y-11500198D01*
X13699825Y-11500198D02*
X13680777Y-11509722D01*
X13680777Y-11509722D02*
X13671253Y-11519246D01*
X13671253Y-11519246D02*
X13661729Y-11538293D01*
X13661729Y-11538293D02*
X13661729Y-11576388D01*
X13661729Y-11576388D02*
X13671253Y-11595436D01*
X13671253Y-11595436D02*
X13680777Y-11604960D01*
X13680777Y-11604960D02*
X13699825Y-11614484D01*
X13699825Y-11614484D02*
X13737920Y-11614484D01*
X13737920Y-11614484D02*
X13756968Y-11604960D01*
X13756968Y-11604960D02*
X13766491Y-11595436D01*
X13766491Y-11595436D02*
X13776015Y-11576388D01*
X13776015Y-11576388D02*
X13776015Y-11538293D01*
X13776015Y-11538293D02*
X13766491Y-11519246D01*
X13766491Y-11519246D02*
X13756968Y-11509722D01*
X13756968Y-11509722D02*
X13737920Y-11500198D01*
X14014110Y-11614484D02*
X14014110Y-11414484D01*
X14099825Y-11614484D02*
X14099825Y-11509722D01*
X14099825Y-11509722D02*
X14090301Y-11490674D01*
X14090301Y-11490674D02*
X14071253Y-11481150D01*
X14071253Y-11481150D02*
X14042682Y-11481150D01*
X14042682Y-11481150D02*
X14023634Y-11490674D01*
X14023634Y-11490674D02*
X14014110Y-11500198D01*
X14223634Y-11614484D02*
X14204587Y-11604960D01*
X14204587Y-11604960D02*
X14195063Y-11595436D01*
X14195063Y-11595436D02*
X14185539Y-11576388D01*
X14185539Y-11576388D02*
X14185539Y-11519246D01*
X14185539Y-11519246D02*
X14195063Y-11500198D01*
X14195063Y-11500198D02*
X14204587Y-11490674D01*
X14204587Y-11490674D02*
X14223634Y-11481150D01*
X14223634Y-11481150D02*
X14252206Y-11481150D01*
X14252206Y-11481150D02*
X14271253Y-11490674D01*
X14271253Y-11490674D02*
X14280777Y-11500198D01*
X14280777Y-11500198D02*
X14290301Y-11519246D01*
X14290301Y-11519246D02*
X14290301Y-11576388D01*
X14290301Y-11576388D02*
X14280777Y-11595436D01*
X14280777Y-11595436D02*
X14271253Y-11604960D01*
X14271253Y-11604960D02*
X14252206Y-11614484D01*
X14252206Y-11614484D02*
X14223634Y-11614484D01*
X14404587Y-11614484D02*
X14385539Y-11604960D01*
X14385539Y-11604960D02*
X14376015Y-11585912D01*
X14376015Y-11585912D02*
X14376015Y-11414484D01*
X14556968Y-11604960D02*
X14537920Y-11614484D01*
X14537920Y-11614484D02*
X14499825Y-11614484D01*
X14499825Y-11614484D02*
X14480777Y-11604960D01*
X14480777Y-11604960D02*
X14471253Y-11585912D01*
X14471253Y-11585912D02*
X14471253Y-11509722D01*
X14471253Y-11509722D02*
X14480777Y-11490674D01*
X14480777Y-11490674D02*
X14499825Y-11481150D01*
X14499825Y-11481150D02*
X14537920Y-11481150D01*
X14537920Y-11481150D02*
X14556968Y-11490674D01*
X14556968Y-11490674D02*
X14566491Y-11509722D01*
X14566491Y-11509722D02*
X14566491Y-11528769D01*
X14566491Y-11528769D02*
X14471253Y-11547817D01*
X14642682Y-11604960D02*
X14661730Y-11614484D01*
X14661730Y-11614484D02*
X14699825Y-11614484D01*
X14699825Y-11614484D02*
X14718872Y-11604960D01*
X14718872Y-11604960D02*
X14728396Y-11585912D01*
X14728396Y-11585912D02*
X14728396Y-11576388D01*
X14728396Y-11576388D02*
X14718872Y-11557341D01*
X14718872Y-11557341D02*
X14699825Y-11547817D01*
X14699825Y-11547817D02*
X14671253Y-11547817D01*
X14671253Y-11547817D02*
X14652206Y-11538293D01*
X14652206Y-11538293D02*
X14642682Y-11519246D01*
X14642682Y-11519246D02*
X14642682Y-11509722D01*
X14642682Y-11509722D02*
X14652206Y-11490674D01*
X14652206Y-11490674D02*
X14671253Y-11481150D01*
X14671253Y-11481150D02*
X14699825Y-11481150D01*
X14699825Y-11481150D02*
X14718872Y-11490674D01*
X14795063Y-11690674D02*
X14804587Y-11681150D01*
X14804587Y-11681150D02*
X14823634Y-11652579D01*
X14823634Y-11652579D02*
X14833158Y-11633531D01*
X14833158Y-11633531D02*
X14842682Y-11604960D01*
X14842682Y-11604960D02*
X14852206Y-11557341D01*
X14852206Y-11557341D02*
X14852206Y-11519246D01*
X14852206Y-11519246D02*
X14842682Y-11471627D01*
X14842682Y-11471627D02*
X14833158Y-11443055D01*
X14833158Y-11443055D02*
X14823634Y-11424008D01*
X14823634Y-11424008D02*
X14804587Y-11395436D01*
X14804587Y-11395436D02*
X14795063Y-11385912D01*
D12*
X10003891Y-11825891D02*
X10003891Y-11748109D01*
X9926109Y-11748109D01*
X9926109Y-11825891D01*
X10003891Y-11825891D01*
D11*
X10385539Y-11878484D02*
X10271253Y-11878484D01*
X10328396Y-11878484D02*
X10328396Y-11678484D01*
X10328396Y-11678484D02*
X10309348Y-11707055D01*
X10309348Y-11707055D02*
X10290301Y-11726103D01*
X10290301Y-11726103D02*
X10271253Y-11735627D01*
X10471253Y-11859436D02*
X10480777Y-11868960D01*
X10480777Y-11868960D02*
X10471253Y-11878484D01*
X10471253Y-11878484D02*
X10461729Y-11868960D01*
X10461729Y-11868960D02*
X10471253Y-11859436D01*
X10471253Y-11859436D02*
X10471253Y-11878484D01*
X10671253Y-11878484D02*
X10556967Y-11878484D01*
X10614110Y-11878484D02*
X10614110Y-11678484D01*
X10614110Y-11678484D02*
X10595063Y-11707055D01*
X10595063Y-11707055D02*
X10576015Y-11726103D01*
X10576015Y-11726103D02*
X10556967Y-11735627D01*
X10795063Y-11678484D02*
X10814110Y-11678484D01*
X10814110Y-11678484D02*
X10833158Y-11688008D01*
X10833158Y-11688008D02*
X10842682Y-11697531D01*
X10842682Y-11697531D02*
X10852205Y-11716579D01*
X10852205Y-11716579D02*
X10861729Y-11754674D01*
X10861729Y-11754674D02*
X10861729Y-11802293D01*
X10861729Y-11802293D02*
X10852205Y-11840388D01*
X10852205Y-11840388D02*
X10842682Y-11859436D01*
X10842682Y-11859436D02*
X10833158Y-11868960D01*
X10833158Y-11868960D02*
X10814110Y-11878484D01*
X10814110Y-11878484D02*
X10795063Y-11878484D01*
X10795063Y-11878484D02*
X10776015Y-11868960D01*
X10776015Y-11868960D02*
X10766491Y-11859436D01*
X10766491Y-11859436D02*
X10756967Y-11840388D01*
X10756967Y-11840388D02*
X10747444Y-11802293D01*
X10747444Y-11802293D02*
X10747444Y-11754674D01*
X10747444Y-11754674D02*
X10756967Y-11716579D01*
X10756967Y-11716579D02*
X10766491Y-11697531D01*
X10766491Y-11697531D02*
X10776015Y-11688008D01*
X10776015Y-11688008D02*
X10795063Y-11678484D01*
X10985539Y-11678484D02*
X11004586Y-11678484D01*
X11004586Y-11678484D02*
X11023634Y-11688008D01*
X11023634Y-11688008D02*
X11033158Y-11697531D01*
X11033158Y-11697531D02*
X11042682Y-11716579D01*
X11042682Y-11716579D02*
X11052205Y-11754674D01*
X11052205Y-11754674D02*
X11052205Y-11802293D01*
X11052205Y-11802293D02*
X11042682Y-11840388D01*
X11042682Y-11840388D02*
X11033158Y-11859436D01*
X11033158Y-11859436D02*
X11023634Y-11868960D01*
X11023634Y-11868960D02*
X11004586Y-11878484D01*
X11004586Y-11878484D02*
X10985539Y-11878484D01*
X10985539Y-11878484D02*
X10966491Y-11868960D01*
X10966491Y-11868960D02*
X10956967Y-11859436D01*
X10956967Y-11859436D02*
X10947444Y-11840388D01*
X10947444Y-11840388D02*
X10937920Y-11802293D01*
X10937920Y-11802293D02*
X10937920Y-11754674D01*
X10937920Y-11754674D02*
X10947444Y-11716579D01*
X10947444Y-11716579D02*
X10956967Y-11697531D01*
X10956967Y-11697531D02*
X10966491Y-11688008D01*
X10966491Y-11688008D02*
X10985539Y-11678484D01*
X11137920Y-11878484D02*
X11137920Y-11745150D01*
X11137920Y-11764198D02*
X11147444Y-11754674D01*
X11147444Y-11754674D02*
X11166491Y-11745150D01*
X11166491Y-11745150D02*
X11195063Y-11745150D01*
X11195063Y-11745150D02*
X11214110Y-11754674D01*
X11214110Y-11754674D02*
X11223634Y-11773722D01*
X11223634Y-11773722D02*
X11223634Y-11878484D01*
X11223634Y-11773722D02*
X11233158Y-11754674D01*
X11233158Y-11754674D02*
X11252205Y-11745150D01*
X11252205Y-11745150D02*
X11280777Y-11745150D01*
X11280777Y-11745150D02*
X11299824Y-11754674D01*
X11299824Y-11754674D02*
X11309348Y-11773722D01*
X11309348Y-11773722D02*
X11309348Y-11878484D01*
X11404586Y-11878484D02*
X11404586Y-11745150D01*
X11404586Y-11764198D02*
X11414110Y-11754674D01*
X11414110Y-11754674D02*
X11433158Y-11745150D01*
X11433158Y-11745150D02*
X11461729Y-11745150D01*
X11461729Y-11745150D02*
X11480777Y-11754674D01*
X11480777Y-11754674D02*
X11490301Y-11773722D01*
X11490301Y-11773722D02*
X11490301Y-11878484D01*
X11490301Y-11773722D02*
X11499824Y-11754674D01*
X11499824Y-11754674D02*
X11518872Y-11745150D01*
X11518872Y-11745150D02*
X11547443Y-11745150D01*
X11547443Y-11745150D02*
X11566491Y-11754674D01*
X11566491Y-11754674D02*
X11576015Y-11773722D01*
X11576015Y-11773722D02*
X11576015Y-11878484D01*
X11966491Y-11668960D02*
X11795063Y-11926103D01*
X12223634Y-11678484D02*
X12242682Y-11678484D01*
X12242682Y-11678484D02*
X12261729Y-11688008D01*
X12261729Y-11688008D02*
X12271253Y-11697531D01*
X12271253Y-11697531D02*
X12280777Y-11716579D01*
X12280777Y-11716579D02*
X12290301Y-11754674D01*
X12290301Y-11754674D02*
X12290301Y-11802293D01*
X12290301Y-11802293D02*
X12280777Y-11840388D01*
X12280777Y-11840388D02*
X12271253Y-11859436D01*
X12271253Y-11859436D02*
X12261729Y-11868960D01*
X12261729Y-11868960D02*
X12242682Y-11878484D01*
X12242682Y-11878484D02*
X12223634Y-11878484D01*
X12223634Y-11878484D02*
X12204586Y-11868960D01*
X12204586Y-11868960D02*
X12195063Y-11859436D01*
X12195063Y-11859436D02*
X12185539Y-11840388D01*
X12185539Y-11840388D02*
X12176015Y-11802293D01*
X12176015Y-11802293D02*
X12176015Y-11754674D01*
X12176015Y-11754674D02*
X12185539Y-11716579D01*
X12185539Y-11716579D02*
X12195063Y-11697531D01*
X12195063Y-11697531D02*
X12204586Y-11688008D01*
X12204586Y-11688008D02*
X12223634Y-11678484D01*
X12376015Y-11859436D02*
X12385539Y-11868960D01*
X12385539Y-11868960D02*
X12376015Y-11878484D01*
X12376015Y-11878484D02*
X12366491Y-11868960D01*
X12366491Y-11868960D02*
X12376015Y-11859436D01*
X12376015Y-11859436D02*
X12376015Y-11878484D01*
X12509348Y-11678484D02*
X12528396Y-11678484D01*
X12528396Y-11678484D02*
X12547444Y-11688008D01*
X12547444Y-11688008D02*
X12556967Y-11697531D01*
X12556967Y-11697531D02*
X12566491Y-11716579D01*
X12566491Y-11716579D02*
X12576015Y-11754674D01*
X12576015Y-11754674D02*
X12576015Y-11802293D01*
X12576015Y-11802293D02*
X12566491Y-11840388D01*
X12566491Y-11840388D02*
X12556967Y-11859436D01*
X12556967Y-11859436D02*
X12547444Y-11868960D01*
X12547444Y-11868960D02*
X12528396Y-11878484D01*
X12528396Y-11878484D02*
X12509348Y-11878484D01*
X12509348Y-11878484D02*
X12490301Y-11868960D01*
X12490301Y-11868960D02*
X12480777Y-11859436D01*
X12480777Y-11859436D02*
X12471253Y-11840388D01*
X12471253Y-11840388D02*
X12461729Y-11802293D01*
X12461729Y-11802293D02*
X12461729Y-11754674D01*
X12461729Y-11754674D02*
X12471253Y-11716579D01*
X12471253Y-11716579D02*
X12480777Y-11697531D01*
X12480777Y-11697531D02*
X12490301Y-11688008D01*
X12490301Y-11688008D02*
X12509348Y-11678484D01*
X12747444Y-11745150D02*
X12747444Y-11878484D01*
X12699825Y-11668960D02*
X12652206Y-11811817D01*
X12652206Y-11811817D02*
X12776015Y-11811817D01*
X12833158Y-11678484D02*
X12956967Y-11678484D01*
X12956967Y-11678484D02*
X12890301Y-11754674D01*
X12890301Y-11754674D02*
X12918872Y-11754674D01*
X12918872Y-11754674D02*
X12937920Y-11764198D01*
X12937920Y-11764198D02*
X12947444Y-11773722D01*
X12947444Y-11773722D02*
X12956967Y-11792769D01*
X12956967Y-11792769D02*
X12956967Y-11840388D01*
X12956967Y-11840388D02*
X12947444Y-11859436D01*
X12947444Y-11859436D02*
X12937920Y-11868960D01*
X12937920Y-11868960D02*
X12918872Y-11878484D01*
X12918872Y-11878484D02*
X12861729Y-11878484D01*
X12861729Y-11878484D02*
X12842682Y-11868960D01*
X12842682Y-11868960D02*
X12833158Y-11859436D01*
X13023634Y-11678484D02*
X13147444Y-11678484D01*
X13147444Y-11678484D02*
X13080777Y-11754674D01*
X13080777Y-11754674D02*
X13109348Y-11754674D01*
X13109348Y-11754674D02*
X13128396Y-11764198D01*
X13128396Y-11764198D02*
X13137920Y-11773722D01*
X13137920Y-11773722D02*
X13147444Y-11792769D01*
X13147444Y-11792769D02*
X13147444Y-11840388D01*
X13147444Y-11840388D02*
X13137920Y-11859436D01*
X13137920Y-11859436D02*
X13128396Y-11868960D01*
X13128396Y-11868960D02*
X13109348Y-11878484D01*
X13109348Y-11878484D02*
X13052206Y-11878484D01*
X13052206Y-11878484D02*
X13033158Y-11868960D01*
X13033158Y-11868960D02*
X13023634Y-11859436D01*
X13223634Y-11678484D02*
X13223634Y-11716579D01*
X13299825Y-11678484D02*
X13299825Y-11716579D01*
X13595063Y-11954674D02*
X13585539Y-11945150D01*
X13585539Y-11945150D02*
X13566491Y-11916579D01*
X13566491Y-11916579D02*
X13556968Y-11897531D01*
X13556968Y-11897531D02*
X13547444Y-11868960D01*
X13547444Y-11868960D02*
X13537920Y-11821341D01*
X13537920Y-11821341D02*
X13537920Y-11783246D01*
X13537920Y-11783246D02*
X13547444Y-11735627D01*
X13547444Y-11735627D02*
X13556968Y-11707055D01*
X13556968Y-11707055D02*
X13566491Y-11688008D01*
X13566491Y-11688008D02*
X13585539Y-11659436D01*
X13585539Y-11659436D02*
X13595063Y-11649912D01*
X13766491Y-11678484D02*
X13671253Y-11678484D01*
X13671253Y-11678484D02*
X13661729Y-11773722D01*
X13661729Y-11773722D02*
X13671253Y-11764198D01*
X13671253Y-11764198D02*
X13690301Y-11754674D01*
X13690301Y-11754674D02*
X13737920Y-11754674D01*
X13737920Y-11754674D02*
X13756968Y-11764198D01*
X13756968Y-11764198D02*
X13766491Y-11773722D01*
X13766491Y-11773722D02*
X13776015Y-11792769D01*
X13776015Y-11792769D02*
X13776015Y-11840388D01*
X13776015Y-11840388D02*
X13766491Y-11859436D01*
X13766491Y-11859436D02*
X13756968Y-11868960D01*
X13756968Y-11868960D02*
X13737920Y-11878484D01*
X13737920Y-11878484D02*
X13690301Y-11878484D01*
X13690301Y-11878484D02*
X13671253Y-11868960D01*
X13671253Y-11868960D02*
X13661729Y-11859436D01*
X14014110Y-11878484D02*
X14014110Y-11678484D01*
X14099825Y-11878484D02*
X14099825Y-11773722D01*
X14099825Y-11773722D02*
X14090301Y-11754674D01*
X14090301Y-11754674D02*
X14071253Y-11745150D01*
X14071253Y-11745150D02*
X14042682Y-11745150D01*
X14042682Y-11745150D02*
X14023634Y-11754674D01*
X14023634Y-11754674D02*
X14014110Y-11764198D01*
X14223634Y-11878484D02*
X14204587Y-11868960D01*
X14204587Y-11868960D02*
X14195063Y-11859436D01*
X14195063Y-11859436D02*
X14185539Y-11840388D01*
X14185539Y-11840388D02*
X14185539Y-11783246D01*
X14185539Y-11783246D02*
X14195063Y-11764198D01*
X14195063Y-11764198D02*
X14204587Y-11754674D01*
X14204587Y-11754674D02*
X14223634Y-11745150D01*
X14223634Y-11745150D02*
X14252206Y-11745150D01*
X14252206Y-11745150D02*
X14271253Y-11754674D01*
X14271253Y-11754674D02*
X14280777Y-11764198D01*
X14280777Y-11764198D02*
X14290301Y-11783246D01*
X14290301Y-11783246D02*
X14290301Y-11840388D01*
X14290301Y-11840388D02*
X14280777Y-11859436D01*
X14280777Y-11859436D02*
X14271253Y-11868960D01*
X14271253Y-11868960D02*
X14252206Y-11878484D01*
X14252206Y-11878484D02*
X14223634Y-11878484D01*
X14404587Y-11878484D02*
X14385539Y-11868960D01*
X14385539Y-11868960D02*
X14376015Y-11849912D01*
X14376015Y-11849912D02*
X14376015Y-11678484D01*
X14556968Y-11868960D02*
X14537920Y-11878484D01*
X14537920Y-11878484D02*
X14499825Y-11878484D01*
X14499825Y-11878484D02*
X14480777Y-11868960D01*
X14480777Y-11868960D02*
X14471253Y-11849912D01*
X14471253Y-11849912D02*
X14471253Y-11773722D01*
X14471253Y-11773722D02*
X14480777Y-11754674D01*
X14480777Y-11754674D02*
X14499825Y-11745150D01*
X14499825Y-11745150D02*
X14537920Y-11745150D01*
X14537920Y-11745150D02*
X14556968Y-11754674D01*
X14556968Y-11754674D02*
X14566491Y-11773722D01*
X14566491Y-11773722D02*
X14566491Y-11792769D01*
X14566491Y-11792769D02*
X14471253Y-11811817D01*
X14642682Y-11868960D02*
X14661730Y-11878484D01*
X14661730Y-11878484D02*
X14699825Y-11878484D01*
X14699825Y-11878484D02*
X14718872Y-11868960D01*
X14718872Y-11868960D02*
X14728396Y-11849912D01*
X14728396Y-11849912D02*
X14728396Y-11840388D01*
X14728396Y-11840388D02*
X14718872Y-11821341D01*
X14718872Y-11821341D02*
X14699825Y-11811817D01*
X14699825Y-11811817D02*
X14671253Y-11811817D01*
X14671253Y-11811817D02*
X14652206Y-11802293D01*
X14652206Y-11802293D02*
X14642682Y-11783246D01*
X14642682Y-11783246D02*
X14642682Y-11773722D01*
X14642682Y-11773722D02*
X14652206Y-11754674D01*
X14652206Y-11754674D02*
X14671253Y-11745150D01*
X14671253Y-11745150D02*
X14699825Y-11745150D01*
X14699825Y-11745150D02*
X14718872Y-11754674D01*
X14795063Y-11954674D02*
X14804587Y-11945150D01*
X14804587Y-11945150D02*
X14823634Y-11916579D01*
X14823634Y-11916579D02*
X14833158Y-11897531D01*
X14833158Y-11897531D02*
X14842682Y-11868960D01*
X14842682Y-11868960D02*
X14852206Y-11821341D01*
X14852206Y-11821341D02*
X14852206Y-11783246D01*
X14852206Y-11783246D02*
X14842682Y-11735627D01*
X14842682Y-11735627D02*
X14833158Y-11707055D01*
X14833158Y-11707055D02*
X14823634Y-11688008D01*
X14823634Y-11688008D02*
X14804587Y-11659436D01*
X14804587Y-11659436D02*
X14795063Y-11649912D01*
D13*
X9955000Y-12116000D02*
X10020000Y-12051000D01*
X9955000Y-11986000D01*
X9890000Y-12051000D01*
X9955000Y-12116000D01*
D11*
X10385539Y-12142484D02*
X10271253Y-12142484D01*
X10328396Y-12142484D02*
X10328396Y-11942484D01*
X10328396Y-11942484D02*
X10309348Y-11971055D01*
X10309348Y-11971055D02*
X10290301Y-11990103D01*
X10290301Y-11990103D02*
X10271253Y-11999627D01*
X10471253Y-12123436D02*
X10480777Y-12132960D01*
X10480777Y-12132960D02*
X10471253Y-12142484D01*
X10471253Y-12142484D02*
X10461729Y-12132960D01*
X10461729Y-12132960D02*
X10471253Y-12123436D01*
X10471253Y-12123436D02*
X10471253Y-12142484D01*
X10547444Y-11942484D02*
X10671253Y-11942484D01*
X10671253Y-11942484D02*
X10604586Y-12018674D01*
X10604586Y-12018674D02*
X10633158Y-12018674D01*
X10633158Y-12018674D02*
X10652205Y-12028198D01*
X10652205Y-12028198D02*
X10661729Y-12037722D01*
X10661729Y-12037722D02*
X10671253Y-12056769D01*
X10671253Y-12056769D02*
X10671253Y-12104388D01*
X10671253Y-12104388D02*
X10661729Y-12123436D01*
X10661729Y-12123436D02*
X10652205Y-12132960D01*
X10652205Y-12132960D02*
X10633158Y-12142484D01*
X10633158Y-12142484D02*
X10576015Y-12142484D01*
X10576015Y-12142484D02*
X10556967Y-12132960D01*
X10556967Y-12132960D02*
X10547444Y-12123436D01*
X10795063Y-11942484D02*
X10814110Y-11942484D01*
X10814110Y-11942484D02*
X10833158Y-11952008D01*
X10833158Y-11952008D02*
X10842682Y-11961531D01*
X10842682Y-11961531D02*
X10852205Y-11980579D01*
X10852205Y-11980579D02*
X10861729Y-12018674D01*
X10861729Y-12018674D02*
X10861729Y-12066293D01*
X10861729Y-12066293D02*
X10852205Y-12104388D01*
X10852205Y-12104388D02*
X10842682Y-12123436D01*
X10842682Y-12123436D02*
X10833158Y-12132960D01*
X10833158Y-12132960D02*
X10814110Y-12142484D01*
X10814110Y-12142484D02*
X10795063Y-12142484D01*
X10795063Y-12142484D02*
X10776015Y-12132960D01*
X10776015Y-12132960D02*
X10766491Y-12123436D01*
X10766491Y-12123436D02*
X10756967Y-12104388D01*
X10756967Y-12104388D02*
X10747444Y-12066293D01*
X10747444Y-12066293D02*
X10747444Y-12018674D01*
X10747444Y-12018674D02*
X10756967Y-11980579D01*
X10756967Y-11980579D02*
X10766491Y-11961531D01*
X10766491Y-11961531D02*
X10776015Y-11952008D01*
X10776015Y-11952008D02*
X10795063Y-11942484D01*
X10985539Y-11942484D02*
X11004586Y-11942484D01*
X11004586Y-11942484D02*
X11023634Y-11952008D01*
X11023634Y-11952008D02*
X11033158Y-11961531D01*
X11033158Y-11961531D02*
X11042682Y-11980579D01*
X11042682Y-11980579D02*
X11052205Y-12018674D01*
X11052205Y-12018674D02*
X11052205Y-12066293D01*
X11052205Y-12066293D02*
X11042682Y-12104388D01*
X11042682Y-12104388D02*
X11033158Y-12123436D01*
X11033158Y-12123436D02*
X11023634Y-12132960D01*
X11023634Y-12132960D02*
X11004586Y-12142484D01*
X11004586Y-12142484D02*
X10985539Y-12142484D01*
X10985539Y-12142484D02*
X10966491Y-12132960D01*
X10966491Y-12132960D02*
X10956967Y-12123436D01*
X10956967Y-12123436D02*
X10947444Y-12104388D01*
X10947444Y-12104388D02*
X10937920Y-12066293D01*
X10937920Y-12066293D02*
X10937920Y-12018674D01*
X10937920Y-12018674D02*
X10947444Y-11980579D01*
X10947444Y-11980579D02*
X10956967Y-11961531D01*
X10956967Y-11961531D02*
X10966491Y-11952008D01*
X10966491Y-11952008D02*
X10985539Y-11942484D01*
X11137920Y-12142484D02*
X11137920Y-12009150D01*
X11137920Y-12028198D02*
X11147444Y-12018674D01*
X11147444Y-12018674D02*
X11166491Y-12009150D01*
X11166491Y-12009150D02*
X11195063Y-12009150D01*
X11195063Y-12009150D02*
X11214110Y-12018674D01*
X11214110Y-12018674D02*
X11223634Y-12037722D01*
X11223634Y-12037722D02*
X11223634Y-12142484D01*
X11223634Y-12037722D02*
X11233158Y-12018674D01*
X11233158Y-12018674D02*
X11252205Y-12009150D01*
X11252205Y-12009150D02*
X11280777Y-12009150D01*
X11280777Y-12009150D02*
X11299824Y-12018674D01*
X11299824Y-12018674D02*
X11309348Y-12037722D01*
X11309348Y-12037722D02*
X11309348Y-12142484D01*
X11404586Y-12142484D02*
X11404586Y-12009150D01*
X11404586Y-12028198D02*
X11414110Y-12018674D01*
X11414110Y-12018674D02*
X11433158Y-12009150D01*
X11433158Y-12009150D02*
X11461729Y-12009150D01*
X11461729Y-12009150D02*
X11480777Y-12018674D01*
X11480777Y-12018674D02*
X11490301Y-12037722D01*
X11490301Y-12037722D02*
X11490301Y-12142484D01*
X11490301Y-12037722D02*
X11499824Y-12018674D01*
X11499824Y-12018674D02*
X11518872Y-12009150D01*
X11518872Y-12009150D02*
X11547443Y-12009150D01*
X11547443Y-12009150D02*
X11566491Y-12018674D01*
X11566491Y-12018674D02*
X11576015Y-12037722D01*
X11576015Y-12037722D02*
X11576015Y-12142484D01*
X11966491Y-11932960D02*
X11795063Y-12190103D01*
X12223634Y-11942484D02*
X12242682Y-11942484D01*
X12242682Y-11942484D02*
X12261729Y-11952008D01*
X12261729Y-11952008D02*
X12271253Y-11961531D01*
X12271253Y-11961531D02*
X12280777Y-11980579D01*
X12280777Y-11980579D02*
X12290301Y-12018674D01*
X12290301Y-12018674D02*
X12290301Y-12066293D01*
X12290301Y-12066293D02*
X12280777Y-12104388D01*
X12280777Y-12104388D02*
X12271253Y-12123436D01*
X12271253Y-12123436D02*
X12261729Y-12132960D01*
X12261729Y-12132960D02*
X12242682Y-12142484D01*
X12242682Y-12142484D02*
X12223634Y-12142484D01*
X12223634Y-12142484D02*
X12204586Y-12132960D01*
X12204586Y-12132960D02*
X12195063Y-12123436D01*
X12195063Y-12123436D02*
X12185539Y-12104388D01*
X12185539Y-12104388D02*
X12176015Y-12066293D01*
X12176015Y-12066293D02*
X12176015Y-12018674D01*
X12176015Y-12018674D02*
X12185539Y-11980579D01*
X12185539Y-11980579D02*
X12195063Y-11961531D01*
X12195063Y-11961531D02*
X12204586Y-11952008D01*
X12204586Y-11952008D02*
X12223634Y-11942484D01*
X12376015Y-12123436D02*
X12385539Y-12132960D01*
X12385539Y-12132960D02*
X12376015Y-12142484D01*
X12376015Y-12142484D02*
X12366491Y-12132960D01*
X12366491Y-12132960D02*
X12376015Y-12123436D01*
X12376015Y-12123436D02*
X12376015Y-12142484D01*
X12509348Y-11942484D02*
X12528396Y-11942484D01*
X12528396Y-11942484D02*
X12547444Y-11952008D01*
X12547444Y-11952008D02*
X12556967Y-11961531D01*
X12556967Y-11961531D02*
X12566491Y-11980579D01*
X12566491Y-11980579D02*
X12576015Y-12018674D01*
X12576015Y-12018674D02*
X12576015Y-12066293D01*
X12576015Y-12066293D02*
X12566491Y-12104388D01*
X12566491Y-12104388D02*
X12556967Y-12123436D01*
X12556967Y-12123436D02*
X12547444Y-12132960D01*
X12547444Y-12132960D02*
X12528396Y-12142484D01*
X12528396Y-12142484D02*
X12509348Y-12142484D01*
X12509348Y-12142484D02*
X12490301Y-12132960D01*
X12490301Y-12132960D02*
X12480777Y-12123436D01*
X12480777Y-12123436D02*
X12471253Y-12104388D01*
X12471253Y-12104388D02*
X12461729Y-12066293D01*
X12461729Y-12066293D02*
X12461729Y-12018674D01*
X12461729Y-12018674D02*
X12471253Y-11980579D01*
X12471253Y-11980579D02*
X12480777Y-11961531D01*
X12480777Y-11961531D02*
X12490301Y-11952008D01*
X12490301Y-11952008D02*
X12509348Y-11942484D01*
X12756967Y-11942484D02*
X12661729Y-11942484D01*
X12661729Y-11942484D02*
X12652206Y-12037722D01*
X12652206Y-12037722D02*
X12661729Y-12028198D01*
X12661729Y-12028198D02*
X12680777Y-12018674D01*
X12680777Y-12018674D02*
X12728396Y-12018674D01*
X12728396Y-12018674D02*
X12747444Y-12028198D01*
X12747444Y-12028198D02*
X12756967Y-12037722D01*
X12756967Y-12037722D02*
X12766491Y-12056769D01*
X12766491Y-12056769D02*
X12766491Y-12104388D01*
X12766491Y-12104388D02*
X12756967Y-12123436D01*
X12756967Y-12123436D02*
X12747444Y-12132960D01*
X12747444Y-12132960D02*
X12728396Y-12142484D01*
X12728396Y-12142484D02*
X12680777Y-12142484D01*
X12680777Y-12142484D02*
X12661729Y-12132960D01*
X12661729Y-12132960D02*
X12652206Y-12123436D01*
X12956967Y-12142484D02*
X12842682Y-12142484D01*
X12899825Y-12142484D02*
X12899825Y-11942484D01*
X12899825Y-11942484D02*
X12880777Y-11971055D01*
X12880777Y-11971055D02*
X12861729Y-11990103D01*
X12861729Y-11990103D02*
X12842682Y-11999627D01*
X13033158Y-11961531D02*
X13042682Y-11952008D01*
X13042682Y-11952008D02*
X13061729Y-11942484D01*
X13061729Y-11942484D02*
X13109348Y-11942484D01*
X13109348Y-11942484D02*
X13128396Y-11952008D01*
X13128396Y-11952008D02*
X13137920Y-11961531D01*
X13137920Y-11961531D02*
X13147444Y-11980579D01*
X13147444Y-11980579D02*
X13147444Y-11999627D01*
X13147444Y-11999627D02*
X13137920Y-12028198D01*
X13137920Y-12028198D02*
X13023634Y-12142484D01*
X13023634Y-12142484D02*
X13147444Y-12142484D01*
X13223634Y-11942484D02*
X13223634Y-11980579D01*
X13299825Y-11942484D02*
X13299825Y-11980579D01*
X13595063Y-12218674D02*
X13585539Y-12209150D01*
X13585539Y-12209150D02*
X13566491Y-12180579D01*
X13566491Y-12180579D02*
X13556968Y-12161531D01*
X13556968Y-12161531D02*
X13547444Y-12132960D01*
X13547444Y-12132960D02*
X13537920Y-12085341D01*
X13537920Y-12085341D02*
X13537920Y-12047246D01*
X13537920Y-12047246D02*
X13547444Y-11999627D01*
X13547444Y-11999627D02*
X13556968Y-11971055D01*
X13556968Y-11971055D02*
X13566491Y-11952008D01*
X13566491Y-11952008D02*
X13585539Y-11923436D01*
X13585539Y-11923436D02*
X13595063Y-11913912D01*
X13756968Y-12009150D02*
X13756968Y-12142484D01*
X13709348Y-11932960D02*
X13661729Y-12075817D01*
X13661729Y-12075817D02*
X13785539Y-12075817D01*
X14014110Y-12142484D02*
X14014110Y-11942484D01*
X14099825Y-12142484D02*
X14099825Y-12037722D01*
X14099825Y-12037722D02*
X14090301Y-12018674D01*
X14090301Y-12018674D02*
X14071253Y-12009150D01*
X14071253Y-12009150D02*
X14042682Y-12009150D01*
X14042682Y-12009150D02*
X14023634Y-12018674D01*
X14023634Y-12018674D02*
X14014110Y-12028198D01*
X14223634Y-12142484D02*
X14204587Y-12132960D01*
X14204587Y-12132960D02*
X14195063Y-12123436D01*
X14195063Y-12123436D02*
X14185539Y-12104388D01*
X14185539Y-12104388D02*
X14185539Y-12047246D01*
X14185539Y-12047246D02*
X14195063Y-12028198D01*
X14195063Y-12028198D02*
X14204587Y-12018674D01*
X14204587Y-12018674D02*
X14223634Y-12009150D01*
X14223634Y-12009150D02*
X14252206Y-12009150D01*
X14252206Y-12009150D02*
X14271253Y-12018674D01*
X14271253Y-12018674D02*
X14280777Y-12028198D01*
X14280777Y-12028198D02*
X14290301Y-12047246D01*
X14290301Y-12047246D02*
X14290301Y-12104388D01*
X14290301Y-12104388D02*
X14280777Y-12123436D01*
X14280777Y-12123436D02*
X14271253Y-12132960D01*
X14271253Y-12132960D02*
X14252206Y-12142484D01*
X14252206Y-12142484D02*
X14223634Y-12142484D01*
X14404587Y-12142484D02*
X14385539Y-12132960D01*
X14385539Y-12132960D02*
X14376015Y-12113912D01*
X14376015Y-12113912D02*
X14376015Y-11942484D01*
X14556968Y-12132960D02*
X14537920Y-12142484D01*
X14537920Y-12142484D02*
X14499825Y-12142484D01*
X14499825Y-12142484D02*
X14480777Y-12132960D01*
X14480777Y-12132960D02*
X14471253Y-12113912D01*
X14471253Y-12113912D02*
X14471253Y-12037722D01*
X14471253Y-12037722D02*
X14480777Y-12018674D01*
X14480777Y-12018674D02*
X14499825Y-12009150D01*
X14499825Y-12009150D02*
X14537920Y-12009150D01*
X14537920Y-12009150D02*
X14556968Y-12018674D01*
X14556968Y-12018674D02*
X14566491Y-12037722D01*
X14566491Y-12037722D02*
X14566491Y-12056769D01*
X14566491Y-12056769D02*
X14471253Y-12075817D01*
X14642682Y-12132960D02*
X14661730Y-12142484D01*
X14661730Y-12142484D02*
X14699825Y-12142484D01*
X14699825Y-12142484D02*
X14718872Y-12132960D01*
X14718872Y-12132960D02*
X14728396Y-12113912D01*
X14728396Y-12113912D02*
X14728396Y-12104388D01*
X14728396Y-12104388D02*
X14718872Y-12085341D01*
X14718872Y-12085341D02*
X14699825Y-12075817D01*
X14699825Y-12075817D02*
X14671253Y-12075817D01*
X14671253Y-12075817D02*
X14652206Y-12066293D01*
X14652206Y-12066293D02*
X14642682Y-12047246D01*
X14642682Y-12047246D02*
X14642682Y-12037722D01*
X14642682Y-12037722D02*
X14652206Y-12018674D01*
X14652206Y-12018674D02*
X14671253Y-12009150D01*
X14671253Y-12009150D02*
X14699825Y-12009150D01*
X14699825Y-12009150D02*
X14718872Y-12018674D01*
X14795063Y-12218674D02*
X14804587Y-12209150D01*
X14804587Y-12209150D02*
X14823634Y-12180579D01*
X14823634Y-12180579D02*
X14833158Y-12161531D01*
X14833158Y-12161531D02*
X14842682Y-12132960D01*
X14842682Y-12132960D02*
X14852206Y-12085341D01*
X14852206Y-12085341D02*
X14852206Y-12047246D01*
X14852206Y-12047246D02*
X14842682Y-11999627D01*
X14842682Y-11999627D02*
X14833158Y-11971055D01*
X14833158Y-11971055D02*
X14823634Y-11952008D01*
X14823634Y-11952008D02*
X14804587Y-11923436D01*
X14804587Y-11923436D02*
X14795063Y-11913912D01*
X9820000Y-12215000D02*
X10020000Y-12415000D01*
X10020000Y-12215000D02*
X9820000Y-12415000D01*
X10020000Y-12315000D02*
G75*
G03*
X10020000Y-12315000I-100000J0D01*
G01*
X10271253Y-12225531D02*
X10280777Y-12216008D01*
X10280777Y-12216008D02*
X10299824Y-12206484D01*
X10299824Y-12206484D02*
X10347444Y-12206484D01*
X10347444Y-12206484D02*
X10366491Y-12216008D01*
X10366491Y-12216008D02*
X10376015Y-12225531D01*
X10376015Y-12225531D02*
X10385539Y-12244579D01*
X10385539Y-12244579D02*
X10385539Y-12263627D01*
X10385539Y-12263627D02*
X10376015Y-12292198D01*
X10376015Y-12292198D02*
X10261729Y-12406484D01*
X10261729Y-12406484D02*
X10385539Y-12406484D01*
X10471253Y-12387436D02*
X10480777Y-12396960D01*
X10480777Y-12396960D02*
X10471253Y-12406484D01*
X10471253Y-12406484D02*
X10461729Y-12396960D01*
X10461729Y-12396960D02*
X10471253Y-12387436D01*
X10471253Y-12387436D02*
X10471253Y-12406484D01*
X10547444Y-12206484D02*
X10671253Y-12206484D01*
X10671253Y-12206484D02*
X10604586Y-12282674D01*
X10604586Y-12282674D02*
X10633158Y-12282674D01*
X10633158Y-12282674D02*
X10652205Y-12292198D01*
X10652205Y-12292198D02*
X10661729Y-12301722D01*
X10661729Y-12301722D02*
X10671253Y-12320769D01*
X10671253Y-12320769D02*
X10671253Y-12368388D01*
X10671253Y-12368388D02*
X10661729Y-12387436D01*
X10661729Y-12387436D02*
X10652205Y-12396960D01*
X10652205Y-12396960D02*
X10633158Y-12406484D01*
X10633158Y-12406484D02*
X10576015Y-12406484D01*
X10576015Y-12406484D02*
X10556967Y-12396960D01*
X10556967Y-12396960D02*
X10547444Y-12387436D01*
X10795063Y-12206484D02*
X10814110Y-12206484D01*
X10814110Y-12206484D02*
X10833158Y-12216008D01*
X10833158Y-12216008D02*
X10842682Y-12225531D01*
X10842682Y-12225531D02*
X10852205Y-12244579D01*
X10852205Y-12244579D02*
X10861729Y-12282674D01*
X10861729Y-12282674D02*
X10861729Y-12330293D01*
X10861729Y-12330293D02*
X10852205Y-12368388D01*
X10852205Y-12368388D02*
X10842682Y-12387436D01*
X10842682Y-12387436D02*
X10833158Y-12396960D01*
X10833158Y-12396960D02*
X10814110Y-12406484D01*
X10814110Y-12406484D02*
X10795063Y-12406484D01*
X10795063Y-12406484D02*
X10776015Y-12396960D01*
X10776015Y-12396960D02*
X10766491Y-12387436D01*
X10766491Y-12387436D02*
X10756967Y-12368388D01*
X10756967Y-12368388D02*
X10747444Y-12330293D01*
X10747444Y-12330293D02*
X10747444Y-12282674D01*
X10747444Y-12282674D02*
X10756967Y-12244579D01*
X10756967Y-12244579D02*
X10766491Y-12225531D01*
X10766491Y-12225531D02*
X10776015Y-12216008D01*
X10776015Y-12216008D02*
X10795063Y-12206484D01*
X10985539Y-12206484D02*
X11004586Y-12206484D01*
X11004586Y-12206484D02*
X11023634Y-12216008D01*
X11023634Y-12216008D02*
X11033158Y-12225531D01*
X11033158Y-12225531D02*
X11042682Y-12244579D01*
X11042682Y-12244579D02*
X11052205Y-12282674D01*
X11052205Y-12282674D02*
X11052205Y-12330293D01*
X11052205Y-12330293D02*
X11042682Y-12368388D01*
X11042682Y-12368388D02*
X11033158Y-12387436D01*
X11033158Y-12387436D02*
X11023634Y-12396960D01*
X11023634Y-12396960D02*
X11004586Y-12406484D01*
X11004586Y-12406484D02*
X10985539Y-12406484D01*
X10985539Y-12406484D02*
X10966491Y-12396960D01*
X10966491Y-12396960D02*
X10956967Y-12387436D01*
X10956967Y-12387436D02*
X10947444Y-12368388D01*
X10947444Y-12368388D02*
X10937920Y-12330293D01*
X10937920Y-12330293D02*
X10937920Y-12282674D01*
X10937920Y-12282674D02*
X10947444Y-12244579D01*
X10947444Y-12244579D02*
X10956967Y-12225531D01*
X10956967Y-12225531D02*
X10966491Y-12216008D01*
X10966491Y-12216008D02*
X10985539Y-12206484D01*
X11137920Y-12406484D02*
X11137920Y-12273150D01*
X11137920Y-12292198D02*
X11147444Y-12282674D01*
X11147444Y-12282674D02*
X11166491Y-12273150D01*
X11166491Y-12273150D02*
X11195063Y-12273150D01*
X11195063Y-12273150D02*
X11214110Y-12282674D01*
X11214110Y-12282674D02*
X11223634Y-12301722D01*
X11223634Y-12301722D02*
X11223634Y-12406484D01*
X11223634Y-12301722D02*
X11233158Y-12282674D01*
X11233158Y-12282674D02*
X11252205Y-12273150D01*
X11252205Y-12273150D02*
X11280777Y-12273150D01*
X11280777Y-12273150D02*
X11299824Y-12282674D01*
X11299824Y-12282674D02*
X11309348Y-12301722D01*
X11309348Y-12301722D02*
X11309348Y-12406484D01*
X11404586Y-12406484D02*
X11404586Y-12273150D01*
X11404586Y-12292198D02*
X11414110Y-12282674D01*
X11414110Y-12282674D02*
X11433158Y-12273150D01*
X11433158Y-12273150D02*
X11461729Y-12273150D01*
X11461729Y-12273150D02*
X11480777Y-12282674D01*
X11480777Y-12282674D02*
X11490301Y-12301722D01*
X11490301Y-12301722D02*
X11490301Y-12406484D01*
X11490301Y-12301722D02*
X11499824Y-12282674D01*
X11499824Y-12282674D02*
X11518872Y-12273150D01*
X11518872Y-12273150D02*
X11547443Y-12273150D01*
X11547443Y-12273150D02*
X11566491Y-12282674D01*
X11566491Y-12282674D02*
X11576015Y-12301722D01*
X11576015Y-12301722D02*
X11576015Y-12406484D01*
X11966491Y-12196960D02*
X11795063Y-12454103D01*
X12223634Y-12206484D02*
X12242682Y-12206484D01*
X12242682Y-12206484D02*
X12261729Y-12216008D01*
X12261729Y-12216008D02*
X12271253Y-12225531D01*
X12271253Y-12225531D02*
X12280777Y-12244579D01*
X12280777Y-12244579D02*
X12290301Y-12282674D01*
X12290301Y-12282674D02*
X12290301Y-12330293D01*
X12290301Y-12330293D02*
X12280777Y-12368388D01*
X12280777Y-12368388D02*
X12271253Y-12387436D01*
X12271253Y-12387436D02*
X12261729Y-12396960D01*
X12261729Y-12396960D02*
X12242682Y-12406484D01*
X12242682Y-12406484D02*
X12223634Y-12406484D01*
X12223634Y-12406484D02*
X12204586Y-12396960D01*
X12204586Y-12396960D02*
X12195063Y-12387436D01*
X12195063Y-12387436D02*
X12185539Y-12368388D01*
X12185539Y-12368388D02*
X12176015Y-12330293D01*
X12176015Y-12330293D02*
X12176015Y-12282674D01*
X12176015Y-12282674D02*
X12185539Y-12244579D01*
X12185539Y-12244579D02*
X12195063Y-12225531D01*
X12195063Y-12225531D02*
X12204586Y-12216008D01*
X12204586Y-12216008D02*
X12223634Y-12206484D01*
X12376015Y-12387436D02*
X12385539Y-12396960D01*
X12385539Y-12396960D02*
X12376015Y-12406484D01*
X12376015Y-12406484D02*
X12366491Y-12396960D01*
X12366491Y-12396960D02*
X12376015Y-12387436D01*
X12376015Y-12387436D02*
X12376015Y-12406484D01*
X12509348Y-12206484D02*
X12528396Y-12206484D01*
X12528396Y-12206484D02*
X12547444Y-12216008D01*
X12547444Y-12216008D02*
X12556967Y-12225531D01*
X12556967Y-12225531D02*
X12566491Y-12244579D01*
X12566491Y-12244579D02*
X12576015Y-12282674D01*
X12576015Y-12282674D02*
X12576015Y-12330293D01*
X12576015Y-12330293D02*
X12566491Y-12368388D01*
X12566491Y-12368388D02*
X12556967Y-12387436D01*
X12556967Y-12387436D02*
X12547444Y-12396960D01*
X12547444Y-12396960D02*
X12528396Y-12406484D01*
X12528396Y-12406484D02*
X12509348Y-12406484D01*
X12509348Y-12406484D02*
X12490301Y-12396960D01*
X12490301Y-12396960D02*
X12480777Y-12387436D01*
X12480777Y-12387436D02*
X12471253Y-12368388D01*
X12471253Y-12368388D02*
X12461729Y-12330293D01*
X12461729Y-12330293D02*
X12461729Y-12282674D01*
X12461729Y-12282674D02*
X12471253Y-12244579D01*
X12471253Y-12244579D02*
X12480777Y-12225531D01*
X12480777Y-12225531D02*
X12490301Y-12216008D01*
X12490301Y-12216008D02*
X12509348Y-12206484D01*
X12671253Y-12406484D02*
X12709348Y-12406484D01*
X12709348Y-12406484D02*
X12728396Y-12396960D01*
X12728396Y-12396960D02*
X12737920Y-12387436D01*
X12737920Y-12387436D02*
X12756967Y-12358865D01*
X12756967Y-12358865D02*
X12766491Y-12320769D01*
X12766491Y-12320769D02*
X12766491Y-12244579D01*
X12766491Y-12244579D02*
X12756967Y-12225531D01*
X12756967Y-12225531D02*
X12747444Y-12216008D01*
X12747444Y-12216008D02*
X12728396Y-12206484D01*
X12728396Y-12206484D02*
X12690301Y-12206484D01*
X12690301Y-12206484D02*
X12671253Y-12216008D01*
X12671253Y-12216008D02*
X12661729Y-12225531D01*
X12661729Y-12225531D02*
X12652206Y-12244579D01*
X12652206Y-12244579D02*
X12652206Y-12292198D01*
X12652206Y-12292198D02*
X12661729Y-12311246D01*
X12661729Y-12311246D02*
X12671253Y-12320769D01*
X12671253Y-12320769D02*
X12690301Y-12330293D01*
X12690301Y-12330293D02*
X12728396Y-12330293D01*
X12728396Y-12330293D02*
X12747444Y-12320769D01*
X12747444Y-12320769D02*
X12756967Y-12311246D01*
X12756967Y-12311246D02*
X12766491Y-12292198D01*
X12890301Y-12206484D02*
X12909348Y-12206484D01*
X12909348Y-12206484D02*
X12928396Y-12216008D01*
X12928396Y-12216008D02*
X12937920Y-12225531D01*
X12937920Y-12225531D02*
X12947444Y-12244579D01*
X12947444Y-12244579D02*
X12956967Y-12282674D01*
X12956967Y-12282674D02*
X12956967Y-12330293D01*
X12956967Y-12330293D02*
X12947444Y-12368388D01*
X12947444Y-12368388D02*
X12937920Y-12387436D01*
X12937920Y-12387436D02*
X12928396Y-12396960D01*
X12928396Y-12396960D02*
X12909348Y-12406484D01*
X12909348Y-12406484D02*
X12890301Y-12406484D01*
X12890301Y-12406484D02*
X12871253Y-12396960D01*
X12871253Y-12396960D02*
X12861729Y-12387436D01*
X12861729Y-12387436D02*
X12852206Y-12368388D01*
X12852206Y-12368388D02*
X12842682Y-12330293D01*
X12842682Y-12330293D02*
X12842682Y-12282674D01*
X12842682Y-12282674D02*
X12852206Y-12244579D01*
X12852206Y-12244579D02*
X12861729Y-12225531D01*
X12861729Y-12225531D02*
X12871253Y-12216008D01*
X12871253Y-12216008D02*
X12890301Y-12206484D01*
X13128396Y-12206484D02*
X13090301Y-12206484D01*
X13090301Y-12206484D02*
X13071253Y-12216008D01*
X13071253Y-12216008D02*
X13061729Y-12225531D01*
X13061729Y-12225531D02*
X13042682Y-12254103D01*
X13042682Y-12254103D02*
X13033158Y-12292198D01*
X13033158Y-12292198D02*
X13033158Y-12368388D01*
X13033158Y-12368388D02*
X13042682Y-12387436D01*
X13042682Y-12387436D02*
X13052206Y-12396960D01*
X13052206Y-12396960D02*
X13071253Y-12406484D01*
X13071253Y-12406484D02*
X13109348Y-12406484D01*
X13109348Y-12406484D02*
X13128396Y-12396960D01*
X13128396Y-12396960D02*
X13137920Y-12387436D01*
X13137920Y-12387436D02*
X13147444Y-12368388D01*
X13147444Y-12368388D02*
X13147444Y-12320769D01*
X13147444Y-12320769D02*
X13137920Y-12301722D01*
X13137920Y-12301722D02*
X13128396Y-12292198D01*
X13128396Y-12292198D02*
X13109348Y-12282674D01*
X13109348Y-12282674D02*
X13071253Y-12282674D01*
X13071253Y-12282674D02*
X13052206Y-12292198D01*
X13052206Y-12292198D02*
X13042682Y-12301722D01*
X13042682Y-12301722D02*
X13033158Y-12320769D01*
X13223634Y-12206484D02*
X13223634Y-12244579D01*
X13299825Y-12206484D02*
X13299825Y-12244579D01*
X13595063Y-12482674D02*
X13585539Y-12473150D01*
X13585539Y-12473150D02*
X13566491Y-12444579D01*
X13566491Y-12444579D02*
X13556968Y-12425531D01*
X13556968Y-12425531D02*
X13547444Y-12396960D01*
X13547444Y-12396960D02*
X13537920Y-12349341D01*
X13537920Y-12349341D02*
X13537920Y-12311246D01*
X13537920Y-12311246D02*
X13547444Y-12263627D01*
X13547444Y-12263627D02*
X13556968Y-12235055D01*
X13556968Y-12235055D02*
X13566491Y-12216008D01*
X13566491Y-12216008D02*
X13585539Y-12187436D01*
X13585539Y-12187436D02*
X13595063Y-12177912D01*
X13756968Y-12273150D02*
X13756968Y-12406484D01*
X13709348Y-12196960D02*
X13661729Y-12339817D01*
X13661729Y-12339817D02*
X13785539Y-12339817D01*
X14014110Y-12406484D02*
X14014110Y-12206484D01*
X14099825Y-12406484D02*
X14099825Y-12301722D01*
X14099825Y-12301722D02*
X14090301Y-12282674D01*
X14090301Y-12282674D02*
X14071253Y-12273150D01*
X14071253Y-12273150D02*
X14042682Y-12273150D01*
X14042682Y-12273150D02*
X14023634Y-12282674D01*
X14023634Y-12282674D02*
X14014110Y-12292198D01*
X14223634Y-12406484D02*
X14204587Y-12396960D01*
X14204587Y-12396960D02*
X14195063Y-12387436D01*
X14195063Y-12387436D02*
X14185539Y-12368388D01*
X14185539Y-12368388D02*
X14185539Y-12311246D01*
X14185539Y-12311246D02*
X14195063Y-12292198D01*
X14195063Y-12292198D02*
X14204587Y-12282674D01*
X14204587Y-12282674D02*
X14223634Y-12273150D01*
X14223634Y-12273150D02*
X14252206Y-12273150D01*
X14252206Y-12273150D02*
X14271253Y-12282674D01*
X14271253Y-12282674D02*
X14280777Y-12292198D01*
X14280777Y-12292198D02*
X14290301Y-12311246D01*
X14290301Y-12311246D02*
X14290301Y-12368388D01*
X14290301Y-12368388D02*
X14280777Y-12387436D01*
X14280777Y-12387436D02*
X14271253Y-12396960D01*
X14271253Y-12396960D02*
X14252206Y-12406484D01*
X14252206Y-12406484D02*
X14223634Y-12406484D01*
X14404587Y-12406484D02*
X14385539Y-12396960D01*
X14385539Y-12396960D02*
X14376015Y-12377912D01*
X14376015Y-12377912D02*
X14376015Y-12206484D01*
X14556968Y-12396960D02*
X14537920Y-12406484D01*
X14537920Y-12406484D02*
X14499825Y-12406484D01*
X14499825Y-12406484D02*
X14480777Y-12396960D01*
X14480777Y-12396960D02*
X14471253Y-12377912D01*
X14471253Y-12377912D02*
X14471253Y-12301722D01*
X14471253Y-12301722D02*
X14480777Y-12282674D01*
X14480777Y-12282674D02*
X14499825Y-12273150D01*
X14499825Y-12273150D02*
X14537920Y-12273150D01*
X14537920Y-12273150D02*
X14556968Y-12282674D01*
X14556968Y-12282674D02*
X14566491Y-12301722D01*
X14566491Y-12301722D02*
X14566491Y-12320769D01*
X14566491Y-12320769D02*
X14471253Y-12339817D01*
X14642682Y-12396960D02*
X14661730Y-12406484D01*
X14661730Y-12406484D02*
X14699825Y-12406484D01*
X14699825Y-12406484D02*
X14718872Y-12396960D01*
X14718872Y-12396960D02*
X14728396Y-12377912D01*
X14728396Y-12377912D02*
X14728396Y-12368388D01*
X14728396Y-12368388D02*
X14718872Y-12349341D01*
X14718872Y-12349341D02*
X14699825Y-12339817D01*
X14699825Y-12339817D02*
X14671253Y-12339817D01*
X14671253Y-12339817D02*
X14652206Y-12330293D01*
X14652206Y-12330293D02*
X14642682Y-12311246D01*
X14642682Y-12311246D02*
X14642682Y-12301722D01*
X14642682Y-12301722D02*
X14652206Y-12282674D01*
X14652206Y-12282674D02*
X14671253Y-12273150D01*
X14671253Y-12273150D02*
X14699825Y-12273150D01*
X14699825Y-12273150D02*
X14718872Y-12282674D01*
X14795063Y-12482674D02*
X14804587Y-12473150D01*
X14804587Y-12473150D02*
X14823634Y-12444579D01*
X14823634Y-12444579D02*
X14833158Y-12425531D01*
X14833158Y-12425531D02*
X14842682Y-12396960D01*
X14842682Y-12396960D02*
X14852206Y-12349341D01*
X14852206Y-12349341D02*
X14852206Y-12311246D01*
X14852206Y-12311246D02*
X14842682Y-12263627D01*
X14842682Y-12263627D02*
X14833158Y-12235055D01*
X14833158Y-12235055D02*
X14823634Y-12216008D01*
X14823634Y-12216008D02*
X14804587Y-12187436D01*
X14804587Y-12187436D02*
X14795063Y-12177912D01*
M02*
