%TF.GenerationSoftware,KiCad,Pcbnew,7.0.9*%
%TF.CreationDate,2023-12-13T20:57:07-06:00*%
%TF.ProjectId,12V to 5V converter,31325620-746f-4203-9556-20636f6e7665,1.0*%
%TF.SameCoordinates,Original*%
%TF.FileFunction,Copper,L1,Top*%
%TF.FilePolarity,Positive*%
%FSLAX46Y46*%
G04 Gerber Fmt 4.6, Leading zero omitted, Abs format (unit mm)*
G04 Created by KiCad (PCBNEW 7.0.9) date 2023-12-13 20:57:07*
%MOMM*%
%LPD*%
G01*
G04 APERTURE LIST*
%TA.AperFunction,ComponentPad*%
%ADD10C,1.600000*%
%TD*%
%TA.AperFunction,ComponentPad*%
%ADD11C,4.000000*%
%TD*%
%TA.AperFunction,ComponentPad*%
%ADD12R,2.600000X2.600000*%
%TD*%
%TA.AperFunction,ComponentPad*%
%ADD13C,2.600000*%
%TD*%
%TA.AperFunction,ComponentPad*%
%ADD14O,1.600000X1.600000*%
%TD*%
%TA.AperFunction,ComponentPad*%
%ADD15R,1.400000X1.400000*%
%TD*%
%TA.AperFunction,ComponentPad*%
%ADD16C,1.400000*%
%TD*%
%TA.AperFunction,ComponentPad*%
%ADD17R,2.000000X1.905000*%
%TD*%
%TA.AperFunction,ComponentPad*%
%ADD18O,2.000000X1.905000*%
%TD*%
%TA.AperFunction,ComponentPad*%
%ADD19R,2.200000X2.200000*%
%TD*%
%TA.AperFunction,ComponentPad*%
%ADD20O,2.200000X2.200000*%
%TD*%
%TA.AperFunction,Conductor*%
%ADD21C,0.300000*%
%TD*%
%TA.AperFunction,Conductor*%
%ADD22C,0.250000*%
%TD*%
G04 APERTURE END LIST*
D10*
%TO.P,J3,1A,VBUS1*%
%TO.N,Net-(J2-Pin_1)*%
X154095300Y-96500000D03*
%TO.P,J3,1B,VBUS2*%
X156715300Y-96500000D03*
%TO.P,J3,2A,D-1*%
%TO.N,unconnected-(J4-D-1-Pad2A)*%
X154095300Y-94000000D03*
%TO.P,J3,2B,D-2*%
%TO.N,unconnected-(J4-D-2-Pad2B)*%
X156715300Y-94000000D03*
%TO.P,J3,3A,D+1*%
%TO.N,unconnected-(J4-D+1-Pad3A)*%
X154095300Y-92000000D03*
%TO.P,J3,3B,D+2*%
%TO.N,unconnected-(J4-D+2-Pad3B)*%
X156715300Y-92000000D03*
%TO.P,J3,4A,GND1*%
%TO.N,GND*%
X154095300Y-89500000D03*
%TO.P,J3,4B,GND2*%
X156715300Y-89500000D03*
D11*
%TO.P,J3,9,SHIELD*%
%TO.N,unconnected-(J4-SHIELD-Pad10)*%
X159425300Y-99570000D03*
%TO.P,J3,10,SHIELD*%
X159425300Y-86430000D03*
%TO.P,J3,11,SHIELD*%
X153745300Y-99570000D03*
%TO.P,J3,12,SHIELD*%
X153745300Y-86430000D03*
%TD*%
D12*
%TO.P,J2,1,Pin_1*%
%TO.N,Net-(J2-Pin_1)*%
X141985000Y-98250000D03*
D13*
%TO.P,J2,2,Pin_2*%
%TO.N,GND*%
X146985000Y-98250000D03*
%TD*%
D12*
%TO.P,J1,1,Pin_1*%
%TO.N,Net-(D1-A)*%
X107695000Y-90750000D03*
D13*
%TO.P,J1,2,Pin_2*%
%TO.N,GND*%
X107695000Y-95750000D03*
%TD*%
D10*
%TO.P,C1,1*%
%TO.N,Net-(D1-K)*%
X122500000Y-99000000D03*
D14*
%TO.P,C1,2*%
%TO.N,GND*%
X122500000Y-89000000D03*
%TD*%
D15*
%TO.P,SW1,1,A*%
%TO.N,Net-(J2-Pin_1)*%
X147000000Y-88500000D03*
D16*
%TO.P,SW1,2,B*%
%TO.N,Net-(SW1-B)*%
X144500000Y-88500000D03*
%TO.P,SW1,3,C*%
%TO.N,unconnected-(SW1-C-Pad3)*%
X142000000Y-88500000D03*
%TO.P,SW1,4*%
%TO.N,N/C*%
X147000000Y-85200000D03*
%TO.P,SW1,5*%
X144500000Y-85200000D03*
%TO.P,SW1,6*%
X142000000Y-85200000D03*
%TD*%
D17*
%TO.P,U1,1,VI*%
%TO.N,Net-(D1-K)*%
X129750000Y-96080000D03*
D18*
%TO.P,U1,2,GND*%
%TO.N,GND*%
X129750000Y-93540000D03*
%TO.P,U1,3,VO*%
%TO.N,Net-(SW1-B)*%
X129750000Y-91000000D03*
%TD*%
D19*
%TO.P,D1,1,K*%
%TO.N,Net-(D1-K)*%
X116840000Y-99060000D03*
D20*
%TO.P,D1,2,A*%
%TO.N,Net-(D1-A)*%
X116840000Y-88900000D03*
%TD*%
D10*
%TO.P,C2,1*%
%TO.N,Net-(SW1-B)*%
X136250000Y-89000000D03*
D14*
%TO.P,C2,2*%
%TO.N,GND*%
X136250000Y-99000000D03*
%TD*%
D21*
%TO.N,Net-(D1-K)*%
X116840000Y-99060000D02*
X122440000Y-99060000D01*
X122500000Y-99000000D02*
X126830000Y-99000000D01*
D22*
X122440000Y-99060000D02*
X122500000Y-99000000D01*
D21*
X126830000Y-99000000D02*
X129750000Y-96080000D01*
%TO.N,Net-(SW1-B)*%
X136250000Y-89000000D02*
X137750000Y-89000000D01*
X142750000Y-86750000D02*
X144500000Y-88500000D01*
X137750000Y-89000000D02*
X140000000Y-86750000D01*
X140000000Y-86750000D02*
X142750000Y-86750000D01*
X134250000Y-91000000D02*
X136250000Y-89000000D01*
X129750000Y-91000000D02*
X134250000Y-91000000D01*
%TO.N,Net-(D1-A)*%
X116840000Y-88900000D02*
X109545000Y-88900000D01*
X109545000Y-88900000D02*
X107695000Y-90750000D01*
%TO.N,Net-(J2-Pin_1)*%
X141985000Y-98250000D02*
X141985000Y-93515000D01*
X152000000Y-96500000D02*
X154095300Y-96500000D01*
X150500000Y-95000000D02*
X152000000Y-96500000D01*
X148500000Y-88500000D02*
X150500000Y-90500000D01*
X154095300Y-96500000D02*
X156715300Y-96500000D01*
X141985000Y-93515000D02*
X147000000Y-88500000D01*
X150500000Y-90500000D02*
X150500000Y-95000000D01*
X147000000Y-88500000D02*
X148500000Y-88500000D01*
%TD*%
%TA.AperFunction,Conductor*%
%TO.N,GND*%
G36*
X155174325Y-90225472D02*
G01*
X155225436Y-90152478D01*
X155292918Y-90007763D01*
X155339090Y-89955323D01*
X155406283Y-89936171D01*
X155473165Y-89956386D01*
X155517682Y-90007762D01*
X155585165Y-90152481D01*
X155585166Y-90152483D01*
X155636273Y-90225471D01*
X155636274Y-90225472D01*
X156261520Y-89600225D01*
X156261767Y-89603516D01*
X156312428Y-89732598D01*
X156398886Y-89841013D01*
X156513459Y-89919127D01*
X156617601Y-89951250D01*
X155989826Y-90579025D01*
X155989826Y-90579026D01*
X156062812Y-90630131D01*
X156062815Y-90630132D01*
X156078274Y-90637341D01*
X156130714Y-90683513D01*
X156149867Y-90750706D01*
X156129652Y-90817587D01*
X156078278Y-90862105D01*
X156062569Y-90869430D01*
X156062565Y-90869432D01*
X155876158Y-90999954D01*
X155715254Y-91160858D01*
X155584732Y-91347265D01*
X155584731Y-91347267D01*
X155517682Y-91491054D01*
X155471509Y-91543493D01*
X155404316Y-91562645D01*
X155337435Y-91542429D01*
X155292918Y-91491054D01*
X155268310Y-91438282D01*
X155225868Y-91347266D01*
X155095347Y-91160861D01*
X155095345Y-91160858D01*
X154934441Y-90999954D01*
X154748034Y-90869432D01*
X154748030Y-90869430D01*
X154732322Y-90862105D01*
X154679883Y-90815931D01*
X154660733Y-90748737D01*
X154680950Y-90681857D01*
X154732328Y-90637340D01*
X154747781Y-90630134D01*
X154820772Y-90579025D01*
X154192320Y-89950572D01*
X154232419Y-89944529D01*
X154357354Y-89884363D01*
X154459005Y-89790045D01*
X154528339Y-89669955D01*
X154545150Y-89596297D01*
X155174325Y-90225472D01*
G37*
%TD.AperFunction*%
%TA.AperFunction,Conductor*%
G36*
X164693039Y-82769685D02*
G01*
X164738794Y-82822489D01*
X164750000Y-82874000D01*
X164750000Y-103126000D01*
X164730315Y-103193039D01*
X164677511Y-103238794D01*
X164626000Y-103250000D01*
X100624000Y-103250000D01*
X100556961Y-103230315D01*
X100511206Y-103177511D01*
X100500000Y-103126000D01*
X100500000Y-100207870D01*
X115239500Y-100207870D01*
X115239501Y-100207876D01*
X115245908Y-100267483D01*
X115296202Y-100402328D01*
X115296206Y-100402335D01*
X115382452Y-100517544D01*
X115382455Y-100517547D01*
X115497664Y-100603793D01*
X115497671Y-100603797D01*
X115632517Y-100654091D01*
X115632516Y-100654091D01*
X115639444Y-100654835D01*
X115692127Y-100660500D01*
X117987872Y-100660499D01*
X118047483Y-100654091D01*
X118182331Y-100603796D01*
X118297546Y-100517546D01*
X118383796Y-100402331D01*
X118434091Y-100267483D01*
X118440500Y-100207873D01*
X118440500Y-99834500D01*
X118460185Y-99767461D01*
X118512989Y-99721706D01*
X118564500Y-99710500D01*
X121345329Y-99710500D01*
X121412368Y-99730185D01*
X121446904Y-99763377D01*
X121499954Y-99839141D01*
X121660858Y-100000045D01*
X121674778Y-100009792D01*
X121847266Y-100130568D01*
X122053504Y-100226739D01*
X122273308Y-100285635D01*
X122435230Y-100299801D01*
X122499998Y-100305468D01*
X122500000Y-100305468D01*
X122500002Y-100305468D01*
X122556673Y-100300509D01*
X122726692Y-100285635D01*
X122946496Y-100226739D01*
X123152734Y-100130568D01*
X123339139Y-100000047D01*
X123500047Y-99839139D01*
X123595108Y-99703377D01*
X123649685Y-99659752D01*
X123696683Y-99650500D01*
X126744495Y-99650500D01*
X126760505Y-99652267D01*
X126760528Y-99652026D01*
X126768289Y-99652758D01*
X126768296Y-99652760D01*
X126840203Y-99650500D01*
X126870925Y-99650500D01*
X126878190Y-99649581D01*
X126884016Y-99649122D01*
X126932569Y-99647597D01*
X126952956Y-99641673D01*
X126971996Y-99637731D01*
X126993058Y-99635071D01*
X127038235Y-99617183D01*
X127043735Y-99615300D01*
X127090398Y-99601744D01*
X127108665Y-99590939D01*
X127126136Y-99582380D01*
X127145871Y-99574568D01*
X127185177Y-99546010D01*
X127190043Y-99542813D01*
X127231865Y-99518081D01*
X127246870Y-99503075D01*
X127261668Y-99490436D01*
X127278837Y-99477963D01*
X127309809Y-99440522D01*
X127313713Y-99436231D01*
X127999945Y-98749999D01*
X134971127Y-98749999D01*
X134971128Y-98750000D01*
X135934314Y-98750000D01*
X135922359Y-98761955D01*
X135864835Y-98874852D01*
X135845014Y-99000000D01*
X135864835Y-99125148D01*
X135922359Y-99238045D01*
X135934314Y-99250000D01*
X134971128Y-99250000D01*
X135023730Y-99446317D01*
X135023734Y-99446326D01*
X135119865Y-99652482D01*
X135250342Y-99838820D01*
X135411179Y-99999657D01*
X135597517Y-100130134D01*
X135803673Y-100226265D01*
X135803682Y-100226269D01*
X135999999Y-100278872D01*
X136000000Y-100278871D01*
X136000000Y-99315686D01*
X136011955Y-99327641D01*
X136124852Y-99385165D01*
X136218519Y-99400000D01*
X136281481Y-99400000D01*
X136375148Y-99385165D01*
X136488045Y-99327641D01*
X136500000Y-99315686D01*
X136500000Y-100278872D01*
X136696317Y-100226269D01*
X136696326Y-100226265D01*
X136902482Y-100130134D01*
X137088820Y-99999657D01*
X137249657Y-99838820D01*
X137380134Y-99652482D01*
X137476265Y-99446326D01*
X137476269Y-99446317D01*
X137528872Y-99250000D01*
X136565686Y-99250000D01*
X136577641Y-99238045D01*
X136635165Y-99125148D01*
X136654986Y-99000000D01*
X136635165Y-98874852D01*
X136577641Y-98761955D01*
X136565686Y-98750000D01*
X137528872Y-98750000D01*
X137528872Y-98749999D01*
X137476269Y-98553682D01*
X137476265Y-98553673D01*
X137380134Y-98347517D01*
X137249657Y-98161179D01*
X137088820Y-98000342D01*
X136902482Y-97869865D01*
X136696328Y-97773734D01*
X136500000Y-97721127D01*
X136500000Y-98684314D01*
X136488045Y-98672359D01*
X136375148Y-98614835D01*
X136281481Y-98600000D01*
X136218519Y-98600000D01*
X136124852Y-98614835D01*
X136011955Y-98672359D01*
X136000000Y-98684314D01*
X136000000Y-97721127D01*
X135803671Y-97773734D01*
X135597517Y-97869865D01*
X135411179Y-98000342D01*
X135250342Y-98161179D01*
X135119865Y-98347517D01*
X135023734Y-98553673D01*
X135023730Y-98553682D01*
X134971127Y-98749999D01*
X127999945Y-98749999D01*
X129180627Y-97569318D01*
X129241950Y-97535833D01*
X129268308Y-97532999D01*
X130797871Y-97532999D01*
X130797872Y-97532999D01*
X130857483Y-97526591D01*
X130992331Y-97476296D01*
X131107546Y-97390046D01*
X131193796Y-97274831D01*
X131244091Y-97139983D01*
X131250500Y-97080373D01*
X131250499Y-95079628D01*
X131244091Y-95020017D01*
X131213610Y-94938294D01*
X131193797Y-94885171D01*
X131193793Y-94885164D01*
X131107547Y-94769955D01*
X131107544Y-94769952D01*
X130992335Y-94683706D01*
X130992326Y-94683701D01*
X130961196Y-94672091D01*
X130905262Y-94630221D01*
X130880844Y-94564757D01*
X130895695Y-94496484D01*
X130906675Y-94479746D01*
X131017653Y-94337162D01*
X131017655Y-94337159D01*
X131132215Y-94125468D01*
X131132221Y-94125454D01*
X131210380Y-93897791D01*
X131228367Y-93790000D01*
X130244852Y-93790000D01*
X130293559Y-93652953D01*
X130303877Y-93502114D01*
X130273116Y-93354085D01*
X130239910Y-93290000D01*
X131228366Y-93290000D01*
X131228366Y-93289999D01*
X131210380Y-93182208D01*
X131132221Y-92954545D01*
X131132215Y-92954531D01*
X131017655Y-92742840D01*
X131017649Y-92742831D01*
X130869806Y-92552883D01*
X130869797Y-92552873D01*
X130692710Y-92389851D01*
X130692704Y-92389847D01*
X130668611Y-92374106D01*
X130623255Y-92320959D01*
X130613832Y-92251728D01*
X130643335Y-92188392D01*
X130668608Y-92166493D01*
X130693010Y-92150551D01*
X130870171Y-91987463D01*
X131018072Y-91797439D01*
X131062424Y-91715482D01*
X131111643Y-91665892D01*
X131171479Y-91650500D01*
X134164495Y-91650500D01*
X134180505Y-91652267D01*
X134180528Y-91652026D01*
X134188289Y-91652758D01*
X134188296Y-91652760D01*
X134260203Y-91650500D01*
X134290925Y-91650500D01*
X134298190Y-91649581D01*
X134304016Y-91649122D01*
X134352569Y-91647597D01*
X134372956Y-91641673D01*
X134391996Y-91637731D01*
X134413058Y-91635071D01*
X134458235Y-91617183D01*
X134463735Y-91615300D01*
X134510398Y-91601744D01*
X134528665Y-91590939D01*
X134546136Y-91582380D01*
X134565871Y-91574568D01*
X134605177Y-91546010D01*
X134610043Y-91542813D01*
X134651865Y-91518081D01*
X134666870Y-91503075D01*
X134681668Y-91490436D01*
X134698837Y-91477963D01*
X134729809Y-91440522D01*
X134733723Y-91436221D01*
X135863062Y-90306882D01*
X135924383Y-90273399D01*
X135982834Y-90274790D01*
X136023308Y-90285635D01*
X136185230Y-90299801D01*
X136249998Y-90305468D01*
X136250000Y-90305468D01*
X136250002Y-90305468D01*
X136306673Y-90300509D01*
X136476692Y-90285635D01*
X136696496Y-90226739D01*
X136902734Y-90130568D01*
X137089139Y-90000047D01*
X137250047Y-89839139D01*
X137345108Y-89703377D01*
X137399685Y-89659752D01*
X137446683Y-89650500D01*
X137664495Y-89650500D01*
X137680505Y-89652267D01*
X137680528Y-89652026D01*
X137688289Y-89652758D01*
X137688296Y-89652760D01*
X137760203Y-89650500D01*
X137790925Y-89650500D01*
X137798190Y-89649581D01*
X137804016Y-89649122D01*
X137852569Y-89647597D01*
X137872956Y-89641673D01*
X137891996Y-89637731D01*
X137913058Y-89635071D01*
X137958235Y-89617183D01*
X137963735Y-89615300D01*
X138010398Y-89601744D01*
X138028665Y-89590939D01*
X138046136Y-89582380D01*
X138065871Y-89574568D01*
X138105177Y-89546010D01*
X138110043Y-89542813D01*
X138151865Y-89518081D01*
X138166870Y-89503075D01*
X138181668Y-89490436D01*
X138198837Y-89477963D01*
X138229809Y-89440522D01*
X138233713Y-89436231D01*
X140233127Y-87436819D01*
X140294450Y-87403334D01*
X140320808Y-87400500D01*
X141104051Y-87400500D01*
X141171090Y-87420185D01*
X141216845Y-87472989D01*
X141226789Y-87542147D01*
X141197764Y-87605703D01*
X141187590Y-87616137D01*
X141109018Y-87687764D01*
X140974943Y-87865308D01*
X140974938Y-87865316D01*
X140875775Y-88064461D01*
X140875769Y-88064476D01*
X140814885Y-88278462D01*
X140814884Y-88278464D01*
X140794357Y-88499999D01*
X140794357Y-88500000D01*
X140814884Y-88721535D01*
X140814885Y-88721537D01*
X140875769Y-88935523D01*
X140875775Y-88935538D01*
X140974938Y-89134683D01*
X140974943Y-89134691D01*
X141109020Y-89312238D01*
X141273437Y-89462123D01*
X141273439Y-89462125D01*
X141462595Y-89579245D01*
X141462596Y-89579245D01*
X141462599Y-89579247D01*
X141670060Y-89659618D01*
X141888757Y-89700500D01*
X141888759Y-89700500D01*
X142111241Y-89700500D01*
X142111243Y-89700500D01*
X142329940Y-89659618D01*
X142537401Y-89579247D01*
X142726562Y-89462124D01*
X142866282Y-89334751D01*
X142890979Y-89312238D01*
X142906688Y-89291437D01*
X143025058Y-89134689D01*
X143124229Y-88935528D01*
X143130734Y-88912661D01*
X143168012Y-88853571D01*
X143231322Y-88824013D01*
X143300561Y-88833375D01*
X143353748Y-88878684D01*
X143369264Y-88912658D01*
X143375770Y-88935523D01*
X143375772Y-88935530D01*
X143375775Y-88935538D01*
X143474938Y-89134683D01*
X143474943Y-89134691D01*
X143609020Y-89312238D01*
X143773437Y-89462123D01*
X143773439Y-89462125D01*
X143962595Y-89579245D01*
X143962596Y-89579245D01*
X143962599Y-89579247D01*
X144170060Y-89659618D01*
X144388757Y-89700500D01*
X144388759Y-89700500D01*
X144580191Y-89700500D01*
X144647230Y-89720185D01*
X144692985Y-89772989D01*
X144702929Y-89842147D01*
X144673904Y-89905703D01*
X144667872Y-89912181D01*
X141585483Y-92994569D01*
X141572910Y-93004643D01*
X141573065Y-93004830D01*
X141567059Y-93009798D01*
X141551508Y-93026359D01*
X141517809Y-93062244D01*
X141506949Y-93073104D01*
X141496088Y-93083965D01*
X141496078Y-93083977D01*
X141491587Y-93089765D01*
X141487801Y-93094197D01*
X141454552Y-93129606D01*
X141444322Y-93148213D01*
X141433646Y-93164464D01*
X141420640Y-93181232D01*
X141420636Y-93181238D01*
X141401348Y-93225811D01*
X141398777Y-93231058D01*
X141375372Y-93273630D01*
X141375372Y-93273631D01*
X141370091Y-93294199D01*
X141363791Y-93312601D01*
X141355364Y-93332073D01*
X141347766Y-93380047D01*
X141346581Y-93385770D01*
X141334500Y-93432818D01*
X141334500Y-93454044D01*
X141332973Y-93473444D01*
X141329653Y-93494403D01*
X141334225Y-93542767D01*
X141334500Y-93548606D01*
X141334500Y-96325500D01*
X141314815Y-96392539D01*
X141262011Y-96438294D01*
X141210500Y-96449500D01*
X140637129Y-96449500D01*
X140637123Y-96449501D01*
X140577516Y-96455908D01*
X140442671Y-96506202D01*
X140442664Y-96506206D01*
X140327455Y-96592452D01*
X140327452Y-96592455D01*
X140241206Y-96707664D01*
X140241202Y-96707671D01*
X140190908Y-96842517D01*
X140184781Y-96899510D01*
X140184501Y-96902123D01*
X140184500Y-96902135D01*
X140184500Y-99597870D01*
X140184501Y-99597876D01*
X140190908Y-99657483D01*
X140241202Y-99792328D01*
X140241206Y-99792335D01*
X140327452Y-99907544D01*
X140327455Y-99907547D01*
X140442664Y-99993793D01*
X140442671Y-99993797D01*
X140577517Y-100044091D01*
X140577516Y-100044091D01*
X140584444Y-100044835D01*
X140637127Y-100050500D01*
X143332872Y-100050499D01*
X143392483Y-100044091D01*
X143527331Y-99993796D01*
X143642546Y-99907546D01*
X143728796Y-99792331D01*
X143779091Y-99657483D01*
X143785500Y-99597873D01*
X143785500Y-98250004D01*
X145179953Y-98250004D01*
X145200113Y-98519026D01*
X145200113Y-98519028D01*
X145260142Y-98782033D01*
X145260148Y-98782052D01*
X145358709Y-99033181D01*
X145358708Y-99033181D01*
X145493602Y-99266822D01*
X145547294Y-99334151D01*
X146382452Y-98498992D01*
X146392188Y-98528956D01*
X146480186Y-98667619D01*
X146599903Y-98780040D01*
X146734510Y-98854041D01*
X145899848Y-99688702D01*
X146082483Y-99813220D01*
X146082485Y-99813221D01*
X146325539Y-99930269D01*
X146325537Y-99930269D01*
X146583337Y-100009790D01*
X146583343Y-100009792D01*
X146850101Y-100049999D01*
X146850110Y-100050000D01*
X147119890Y-100050000D01*
X147119898Y-100049999D01*
X147386656Y-100009792D01*
X147386662Y-100009790D01*
X147644461Y-99930269D01*
X147887521Y-99813218D01*
X148070150Y-99688702D01*
X147232534Y-98851086D01*
X147300629Y-98824126D01*
X147433492Y-98727595D01*
X147538175Y-98601055D01*
X147586631Y-98498079D01*
X148422703Y-99334151D01*
X148422704Y-99334150D01*
X148476393Y-99266828D01*
X148476400Y-99266817D01*
X148611290Y-99033181D01*
X148709851Y-98782052D01*
X148709857Y-98782033D01*
X148769886Y-98519028D01*
X148769886Y-98519026D01*
X148790047Y-98250004D01*
X148790047Y-98249995D01*
X148769886Y-97980973D01*
X148769886Y-97980971D01*
X148709857Y-97717966D01*
X148709851Y-97717947D01*
X148611290Y-97466818D01*
X148611291Y-97466818D01*
X148476397Y-97233177D01*
X148422704Y-97165847D01*
X147587546Y-98001004D01*
X147577812Y-97971044D01*
X147489814Y-97832381D01*
X147370097Y-97719960D01*
X147235489Y-97645958D01*
X148070150Y-96811296D01*
X147887517Y-96686779D01*
X147887516Y-96686778D01*
X147644460Y-96569730D01*
X147644462Y-96569730D01*
X147386662Y-96490209D01*
X147386656Y-96490207D01*
X147119898Y-96450000D01*
X146850101Y-96450000D01*
X146583343Y-96490207D01*
X146583337Y-96490209D01*
X146325538Y-96569730D01*
X146082485Y-96686778D01*
X146082476Y-96686783D01*
X145899848Y-96811296D01*
X146737465Y-97648913D01*
X146669371Y-97675874D01*
X146536508Y-97772405D01*
X146431825Y-97898945D01*
X146383368Y-98001921D01*
X145547295Y-97165848D01*
X145493600Y-97233180D01*
X145358709Y-97466818D01*
X145260148Y-97717947D01*
X145260142Y-97717966D01*
X145200113Y-97980971D01*
X145200113Y-97980973D01*
X145179953Y-98249995D01*
X145179953Y-98250004D01*
X143785500Y-98250004D01*
X143785499Y-96902128D01*
X143779091Y-96842517D01*
X143775970Y-96834150D01*
X143728797Y-96707671D01*
X143728793Y-96707664D01*
X143642547Y-96592455D01*
X143642544Y-96592452D01*
X143527335Y-96506206D01*
X143527328Y-96506202D01*
X143392482Y-96455908D01*
X143392483Y-96455908D01*
X143332883Y-96449501D01*
X143332881Y-96449500D01*
X143332873Y-96449500D01*
X143332865Y-96449500D01*
X142759500Y-96449500D01*
X142692461Y-96429815D01*
X142646706Y-96377011D01*
X142635500Y-96325500D01*
X142635500Y-93835807D01*
X142655185Y-93768768D01*
X142671814Y-93748131D01*
X146683127Y-89736817D01*
X146744450Y-89703333D01*
X146770808Y-89700499D01*
X147747871Y-89700499D01*
X147747872Y-89700499D01*
X147807483Y-89694091D01*
X147942331Y-89643796D01*
X148057546Y-89557546D01*
X148143796Y-89442331D01*
X148179214Y-89347371D01*
X148221085Y-89291437D01*
X148286549Y-89267020D01*
X148354822Y-89281871D01*
X148383077Y-89303023D01*
X149813181Y-90733127D01*
X149846666Y-90794450D01*
X149849500Y-90820808D01*
X149849500Y-94914494D01*
X149847732Y-94930505D01*
X149847974Y-94930528D01*
X149847240Y-94938294D01*
X149849500Y-95010203D01*
X149849500Y-95040920D01*
X149849501Y-95040940D01*
X149850418Y-95048206D01*
X149850876Y-95054024D01*
X149852402Y-95102567D01*
X149852403Y-95102570D01*
X149858323Y-95122948D01*
X149862268Y-95141996D01*
X149864928Y-95163054D01*
X149864931Y-95163064D01*
X149882813Y-95208230D01*
X149884705Y-95213758D01*
X149898254Y-95260395D01*
X149898255Y-95260397D01*
X149909060Y-95278666D01*
X149917617Y-95296134D01*
X149923226Y-95310300D01*
X149925432Y-95315872D01*
X149953983Y-95355170D01*
X149957188Y-95360049D01*
X149981919Y-95401865D01*
X149981923Y-95401869D01*
X149996925Y-95416871D01*
X150009563Y-95431669D01*
X150022033Y-95448833D01*
X150022036Y-95448836D01*
X150022037Y-95448837D01*
X150059476Y-95479809D01*
X150063776Y-95483722D01*
X150807649Y-96227595D01*
X151479564Y-96899510D01*
X151489635Y-96912080D01*
X151489822Y-96911926D01*
X151494796Y-96917937D01*
X151494798Y-96917940D01*
X151523345Y-96944748D01*
X151547243Y-96967190D01*
X151568967Y-96988913D01*
X151574757Y-96993405D01*
X151579197Y-96997197D01*
X151608498Y-97024711D01*
X151614607Y-97030448D01*
X151614609Y-97030449D01*
X151633205Y-97040672D01*
X151649470Y-97051357D01*
X151666232Y-97064360D01*
X151666235Y-97064361D01*
X151666236Y-97064362D01*
X151710823Y-97083656D01*
X151716059Y-97086221D01*
X151758632Y-97109627D01*
X151774340Y-97113659D01*
X151779186Y-97114904D01*
X151797598Y-97121207D01*
X151817073Y-97129635D01*
X151865071Y-97137237D01*
X151870740Y-97138411D01*
X151917823Y-97150500D01*
X151939051Y-97150500D01*
X151958448Y-97152026D01*
X151979403Y-97155345D01*
X151979404Y-97155346D01*
X151979404Y-97155345D01*
X151979405Y-97155346D01*
X152027761Y-97150775D01*
X152033599Y-97150500D01*
X152472994Y-97150500D01*
X152540033Y-97170185D01*
X152585788Y-97222989D01*
X152595732Y-97292147D01*
X152566707Y-97355703D01*
X152532733Y-97383161D01*
X152520210Y-97390046D01*
X152402816Y-97454584D01*
X152402804Y-97454591D01*
X152148278Y-97639515D01*
X152148268Y-97639523D01*
X151918908Y-97854907D01*
X151918906Y-97854909D01*
X151718354Y-98097334D01*
X151718351Y-98097338D01*
X151549764Y-98362990D01*
X151549761Y-98362996D01*
X151415799Y-98647678D01*
X151415797Y-98647683D01*
X151318570Y-98946916D01*
X151259611Y-99255988D01*
X151259610Y-99255995D01*
X151239856Y-99569994D01*
X151239856Y-99570005D01*
X151259610Y-99884004D01*
X151259611Y-99884011D01*
X151259612Y-99884015D01*
X151306644Y-100130568D01*
X151318570Y-100193083D01*
X151415797Y-100492316D01*
X151415799Y-100492321D01*
X151549761Y-100777003D01*
X151549764Y-100777009D01*
X151718351Y-101042661D01*
X151718354Y-101042665D01*
X151918906Y-101285090D01*
X151918908Y-101285092D01*
X152148268Y-101500476D01*
X152148278Y-101500484D01*
X152402804Y-101685408D01*
X152402809Y-101685410D01*
X152402816Y-101685416D01*
X152678534Y-101836994D01*
X152678539Y-101836996D01*
X152678541Y-101836997D01*
X152678542Y-101836998D01*
X152971071Y-101952818D01*
X152971074Y-101952819D01*
X153275823Y-102031065D01*
X153275827Y-102031066D01*
X153341310Y-102039338D01*
X153587970Y-102070499D01*
X153587979Y-102070499D01*
X153587982Y-102070500D01*
X153587984Y-102070500D01*
X153902616Y-102070500D01*
X153902618Y-102070500D01*
X153902621Y-102070499D01*
X153902629Y-102070499D01*
X154088893Y-102046968D01*
X154214773Y-102031066D01*
X154519525Y-101952819D01*
X154519528Y-101952818D01*
X154812057Y-101836998D01*
X154812058Y-101836997D01*
X154812056Y-101836997D01*
X154812066Y-101836994D01*
X155087784Y-101685416D01*
X155342330Y-101500478D01*
X155571690Y-101285094D01*
X155772247Y-101042663D01*
X155940837Y-100777007D01*
X156074803Y-100492315D01*
X156172031Y-100193079D01*
X156230988Y-99884015D01*
X156230989Y-99884004D01*
X156250744Y-99570005D01*
X156919856Y-99570005D01*
X156939610Y-99884004D01*
X156939611Y-99884011D01*
X156939612Y-99884015D01*
X156986644Y-100130568D01*
X156998570Y-100193083D01*
X157095797Y-100492316D01*
X157095799Y-100492321D01*
X157229761Y-100777003D01*
X157229764Y-100777009D01*
X157398351Y-101042661D01*
X157398354Y-101042665D01*
X157598906Y-101285090D01*
X157598908Y-101285092D01*
X157828268Y-101500476D01*
X157828278Y-101500484D01*
X158082804Y-101685408D01*
X158082809Y-101685410D01*
X158082816Y-101685416D01*
X158358534Y-101836994D01*
X158358539Y-101836996D01*
X158358541Y-101836997D01*
X158358542Y-101836998D01*
X158651071Y-101952818D01*
X158651074Y-101952819D01*
X158955823Y-102031065D01*
X158955827Y-102031066D01*
X159021310Y-102039338D01*
X159267970Y-102070499D01*
X159267979Y-102070499D01*
X159267982Y-102070500D01*
X159267984Y-102070500D01*
X159582616Y-102070500D01*
X159582618Y-102070500D01*
X159582621Y-102070499D01*
X159582629Y-102070499D01*
X159768893Y-102046968D01*
X159894773Y-102031066D01*
X160199525Y-101952819D01*
X160199528Y-101952818D01*
X160492057Y-101836998D01*
X160492058Y-101836997D01*
X160492056Y-101836997D01*
X160492066Y-101836994D01*
X160767784Y-101685416D01*
X161022330Y-101500478D01*
X161251690Y-101285094D01*
X161452247Y-101042663D01*
X161620837Y-100777007D01*
X161754803Y-100492315D01*
X161852031Y-100193079D01*
X161910988Y-99884015D01*
X161910989Y-99884004D01*
X161930744Y-99570005D01*
X161930744Y-99569994D01*
X161910989Y-99255995D01*
X161910988Y-99255988D01*
X161910988Y-99255985D01*
X161852031Y-98946921D01*
X161754803Y-98647685D01*
X161620837Y-98362993D01*
X161549129Y-98249999D01*
X161452248Y-98097338D01*
X161452245Y-98097334D01*
X161251693Y-97854909D01*
X161251691Y-97854907D01*
X161115209Y-97726741D01*
X161022330Y-97639522D01*
X161022327Y-97639520D01*
X161022321Y-97639515D01*
X160767795Y-97454591D01*
X160767788Y-97454586D01*
X160767784Y-97454584D01*
X160492066Y-97303006D01*
X160492063Y-97303004D01*
X160492058Y-97303002D01*
X160492057Y-97303001D01*
X160199528Y-97187181D01*
X160199525Y-97187180D01*
X159894776Y-97108934D01*
X159894763Y-97108932D01*
X159582629Y-97069500D01*
X159582618Y-97069500D01*
X159267982Y-97069500D01*
X159267970Y-97069500D01*
X158955836Y-97108932D01*
X158955823Y-97108934D01*
X158651074Y-97187180D01*
X158651071Y-97187181D01*
X158358542Y-97303001D01*
X158358541Y-97303002D01*
X158082816Y-97454584D01*
X158082804Y-97454591D01*
X157828278Y-97639515D01*
X157828268Y-97639523D01*
X157598908Y-97854907D01*
X157598906Y-97854909D01*
X157398354Y-98097334D01*
X157398351Y-98097338D01*
X157229764Y-98362990D01*
X157229761Y-98362996D01*
X157095799Y-98647678D01*
X157095797Y-98647683D01*
X156998570Y-98946916D01*
X156939611Y-99255988D01*
X156939610Y-99255995D01*
X156919856Y-99569994D01*
X156919856Y-99570005D01*
X156250744Y-99570005D01*
X156250744Y-99569994D01*
X156230989Y-99255995D01*
X156230988Y-99255988D01*
X156230988Y-99255985D01*
X156172031Y-98946921D01*
X156074803Y-98647685D01*
X155940837Y-98362993D01*
X155869129Y-98249999D01*
X155772248Y-98097338D01*
X155772245Y-98097334D01*
X155571693Y-97854909D01*
X155571691Y-97854907D01*
X155435209Y-97726741D01*
X155342330Y-97639522D01*
X155342327Y-97639520D01*
X155342321Y-97639515D01*
X155137801Y-97490922D01*
X155095135Y-97435592D01*
X155089156Y-97365979D01*
X155109109Y-97319484D01*
X155190408Y-97203375D01*
X155244985Y-97159752D01*
X155291983Y-97150500D01*
X155518617Y-97150500D01*
X155585656Y-97170185D01*
X155620192Y-97203377D01*
X155715254Y-97339141D01*
X155876158Y-97500045D01*
X155890078Y-97509792D01*
X156062566Y-97630568D01*
X156268804Y-97726739D01*
X156488608Y-97785635D01*
X156650530Y-97799801D01*
X156715298Y-97805468D01*
X156715300Y-97805468D01*
X156715302Y-97805468D01*
X156771973Y-97800509D01*
X156941992Y-97785635D01*
X157161796Y-97726739D01*
X157368034Y-97630568D01*
X157554439Y-97500047D01*
X157715347Y-97339139D01*
X157845868Y-97152734D01*
X157942039Y-96946496D01*
X158000935Y-96726692D01*
X158020768Y-96500000D01*
X158019911Y-96490209D01*
X158000935Y-96273313D01*
X158000935Y-96273308D01*
X157942039Y-96053504D01*
X157845868Y-95847266D01*
X157715347Y-95660861D01*
X157715345Y-95660858D01*
X157554441Y-95499954D01*
X157368034Y-95369432D01*
X157352914Y-95362381D01*
X157300476Y-95316211D01*
X157281323Y-95249018D01*
X157301538Y-95182136D01*
X157352914Y-95137618D01*
X157368034Y-95130568D01*
X157554439Y-95000047D01*
X157715347Y-94839139D01*
X157845868Y-94652734D01*
X157942039Y-94446496D01*
X158000935Y-94226692D01*
X158020768Y-94000000D01*
X158019911Y-93990209D01*
X158000935Y-93773313D01*
X158000935Y-93773308D01*
X157942039Y-93553504D01*
X157845868Y-93347266D01*
X157715347Y-93160861D01*
X157642165Y-93087679D01*
X157608682Y-93026359D01*
X157613666Y-92956667D01*
X157642165Y-92912320D01*
X157715347Y-92839139D01*
X157845868Y-92652734D01*
X157942039Y-92446496D01*
X158000935Y-92226692D01*
X158020768Y-92000000D01*
X158000935Y-91773308D01*
X157950739Y-91585972D01*
X157942041Y-91553511D01*
X157942038Y-91553502D01*
X157889359Y-91440533D01*
X157845868Y-91347266D01*
X157715347Y-91160861D01*
X157715345Y-91160858D01*
X157554441Y-90999954D01*
X157368034Y-90869432D01*
X157368030Y-90869430D01*
X157352322Y-90862105D01*
X157299883Y-90815931D01*
X157280733Y-90748737D01*
X157300950Y-90681857D01*
X157352328Y-90637340D01*
X157367781Y-90630134D01*
X157440772Y-90579025D01*
X156812320Y-89950572D01*
X156852419Y-89944529D01*
X156977354Y-89884363D01*
X157079005Y-89790045D01*
X157148339Y-89669955D01*
X157165150Y-89596297D01*
X157794325Y-90225472D01*
X157845436Y-90152478D01*
X157941564Y-89946331D01*
X157941569Y-89946317D01*
X158000439Y-89726610D01*
X158000441Y-89726599D01*
X158020266Y-89500002D01*
X158020266Y-89499997D01*
X158000441Y-89273400D01*
X158000439Y-89273389D01*
X157941569Y-89053682D01*
X157941565Y-89053673D01*
X157845433Y-88847516D01*
X157845431Y-88847512D01*
X157794326Y-88774526D01*
X157794325Y-88774526D01*
X157169079Y-89399772D01*
X157168833Y-89396484D01*
X157118172Y-89267402D01*
X157031714Y-89158987D01*
X156917141Y-89080873D01*
X156812997Y-89048749D01*
X157440772Y-88420974D01*
X157440771Y-88420973D01*
X157367783Y-88369866D01*
X157367781Y-88369865D01*
X157161626Y-88273734D01*
X157161617Y-88273730D01*
X156941910Y-88214860D01*
X156941899Y-88214858D01*
X156715302Y-88195034D01*
X156715298Y-88195034D01*
X156488700Y-88214858D01*
X156488689Y-88214860D01*
X156268982Y-88273730D01*
X156268973Y-88273734D01*
X156062813Y-88369868D01*
X155989827Y-88420972D01*
X155989826Y-88420973D01*
X156618280Y-89049427D01*
X156578181Y-89055471D01*
X156453246Y-89115637D01*
X156351595Y-89209955D01*
X156282261Y-89330045D01*
X156265449Y-89403702D01*
X155636273Y-88774526D01*
X155636272Y-88774527D01*
X155585168Y-88847513D01*
X155517682Y-88992237D01*
X155471510Y-89044676D01*
X155404316Y-89063828D01*
X155337435Y-89043612D01*
X155292918Y-88992237D01*
X155225434Y-88847517D01*
X155108705Y-88680813D01*
X155086378Y-88614607D01*
X155103388Y-88546840D01*
X155137390Y-88509374D01*
X155342330Y-88360478D01*
X155571690Y-88145094D01*
X155772247Y-87902663D01*
X155940837Y-87637007D01*
X156074803Y-87352315D01*
X156172031Y-87053079D01*
X156230988Y-86744015D01*
X156250744Y-86430005D01*
X156919856Y-86430005D01*
X156939610Y-86744004D01*
X156939611Y-86744011D01*
X156998570Y-87053083D01*
X157095797Y-87352316D01*
X157095799Y-87352321D01*
X157229761Y-87637003D01*
X157229764Y-87637009D01*
X157398351Y-87902661D01*
X157398354Y-87902665D01*
X157598906Y-88145090D01*
X157598908Y-88145092D01*
X157598910Y-88145094D01*
X157766949Y-88302893D01*
X157828268Y-88360476D01*
X157828278Y-88360484D01*
X158082804Y-88545408D01*
X158082809Y-88545410D01*
X158082816Y-88545416D01*
X158358534Y-88696994D01*
X158358539Y-88696996D01*
X158358541Y-88696997D01*
X158358542Y-88696998D01*
X158651071Y-88812818D01*
X158651074Y-88812819D01*
X158907602Y-88878684D01*
X158955827Y-88891066D01*
X159021310Y-88899338D01*
X159267970Y-88930499D01*
X159267979Y-88930499D01*
X159267982Y-88930500D01*
X159267984Y-88930500D01*
X159582616Y-88930500D01*
X159582618Y-88930500D01*
X159582621Y-88930499D01*
X159582629Y-88930499D01*
X159824052Y-88900000D01*
X159894773Y-88891066D01*
X160199525Y-88812819D01*
X160199528Y-88812818D01*
X160492057Y-88696998D01*
X160492058Y-88696997D01*
X160492056Y-88696997D01*
X160492066Y-88696994D01*
X160767784Y-88545416D01*
X161022330Y-88360478D01*
X161251690Y-88145094D01*
X161452247Y-87902663D01*
X161620837Y-87637007D01*
X161754803Y-87352315D01*
X161852031Y-87053079D01*
X161910988Y-86744015D01*
X161930744Y-86430000D01*
X161925132Y-86340807D01*
X161910989Y-86115995D01*
X161910988Y-86115988D01*
X161910988Y-86115985D01*
X161852031Y-85806921D01*
X161754803Y-85507685D01*
X161620837Y-85222993D01*
X161465655Y-84978464D01*
X161452248Y-84957338D01*
X161452245Y-84957334D01*
X161251693Y-84714909D01*
X161251691Y-84714907D01*
X161022331Y-84499523D01*
X161022321Y-84499515D01*
X160767795Y-84314591D01*
X160767788Y-84314586D01*
X160767784Y-84314584D01*
X160492066Y-84163006D01*
X160492063Y-84163004D01*
X160492058Y-84163002D01*
X160492057Y-84163001D01*
X160199528Y-84047181D01*
X160199525Y-84047180D01*
X159894776Y-83968934D01*
X159894763Y-83968932D01*
X159582629Y-83929500D01*
X159582618Y-83929500D01*
X159267982Y-83929500D01*
X159267970Y-83929500D01*
X158955836Y-83968932D01*
X158955823Y-83968934D01*
X158651074Y-84047180D01*
X158651071Y-84047181D01*
X158358542Y-84163001D01*
X158358541Y-84163002D01*
X158082816Y-84314584D01*
X158082804Y-84314591D01*
X157828278Y-84499515D01*
X157828268Y-84499523D01*
X157598908Y-84714907D01*
X157598906Y-84714909D01*
X157398354Y-84957334D01*
X157398351Y-84957338D01*
X157229764Y-85222990D01*
X157229761Y-85222996D01*
X157095799Y-85507678D01*
X157095797Y-85507683D01*
X156998570Y-85806916D01*
X156939611Y-86115988D01*
X156939610Y-86115995D01*
X156919856Y-86429994D01*
X156919856Y-86430005D01*
X156250744Y-86430005D01*
X156250744Y-86430000D01*
X156245132Y-86340807D01*
X156230989Y-86115995D01*
X156230988Y-86115988D01*
X156230988Y-86115985D01*
X156172031Y-85806921D01*
X156074803Y-85507685D01*
X155940837Y-85222993D01*
X155785655Y-84978464D01*
X155772248Y-84957338D01*
X155772245Y-84957334D01*
X155571693Y-84714909D01*
X155571691Y-84714907D01*
X155342331Y-84499523D01*
X155342321Y-84499515D01*
X155087795Y-84314591D01*
X155087788Y-84314586D01*
X155087784Y-84314584D01*
X154812066Y-84163006D01*
X154812063Y-84163004D01*
X154812058Y-84163002D01*
X154812057Y-84163001D01*
X154519528Y-84047181D01*
X154519525Y-84047180D01*
X154214776Y-83968934D01*
X154214763Y-83968932D01*
X153902629Y-83929500D01*
X153902618Y-83929500D01*
X153587982Y-83929500D01*
X153587970Y-83929500D01*
X153275836Y-83968932D01*
X153275823Y-83968934D01*
X152971074Y-84047180D01*
X152971071Y-84047181D01*
X152678542Y-84163001D01*
X152678541Y-84163002D01*
X152402816Y-84314584D01*
X152402804Y-84314591D01*
X152148278Y-84499515D01*
X152148268Y-84499523D01*
X151918908Y-84714907D01*
X151918906Y-84714909D01*
X151718354Y-84957334D01*
X151718351Y-84957338D01*
X151549764Y-85222990D01*
X151549761Y-85222996D01*
X151415799Y-85507678D01*
X151415797Y-85507683D01*
X151318570Y-85806916D01*
X151259611Y-86115988D01*
X151259610Y-86115995D01*
X151239856Y-86429994D01*
X151239856Y-86430005D01*
X151259610Y-86744004D01*
X151259611Y-86744011D01*
X151318570Y-87053083D01*
X151415797Y-87352316D01*
X151415799Y-87352321D01*
X151549761Y-87637003D01*
X151549764Y-87637009D01*
X151718351Y-87902661D01*
X151718354Y-87902665D01*
X151918906Y-88145090D01*
X151918908Y-88145092D01*
X151918910Y-88145094D01*
X152086949Y-88302893D01*
X152148268Y-88360476D01*
X152148278Y-88360484D01*
X152402804Y-88545408D01*
X152402809Y-88545410D01*
X152402816Y-88545416D01*
X152678534Y-88696994D01*
X152678539Y-88696996D01*
X152678541Y-88696997D01*
X152678542Y-88696998D01*
X152857399Y-88767812D01*
X152912485Y-88810793D01*
X152935588Y-88876732D01*
X152924134Y-88935508D01*
X152869035Y-89053668D01*
X152869030Y-89053682D01*
X152810160Y-89273389D01*
X152810158Y-89273400D01*
X152790334Y-89499997D01*
X152790334Y-89500002D01*
X152810158Y-89726599D01*
X152810160Y-89726610D01*
X152869030Y-89946317D01*
X152869034Y-89946326D01*
X152965165Y-90152481D01*
X152965166Y-90152483D01*
X153016273Y-90225471D01*
X153016273Y-90225472D01*
X153641520Y-89600224D01*
X153641767Y-89603516D01*
X153692428Y-89732598D01*
X153778886Y-89841013D01*
X153893459Y-89919127D01*
X153997601Y-89951250D01*
X153369826Y-90579025D01*
X153369826Y-90579026D01*
X153442812Y-90630131D01*
X153442815Y-90630132D01*
X153458274Y-90637341D01*
X153510714Y-90683513D01*
X153529867Y-90750706D01*
X153509652Y-90817587D01*
X153458278Y-90862105D01*
X153442569Y-90869430D01*
X153442565Y-90869432D01*
X153256158Y-90999954D01*
X153095254Y-91160858D01*
X152964732Y-91347265D01*
X152964731Y-91347267D01*
X152868561Y-91553502D01*
X152868558Y-91553511D01*
X152809666Y-91773302D01*
X152809664Y-91773313D01*
X152789832Y-91999998D01*
X152789832Y-92000001D01*
X152809664Y-92226686D01*
X152809666Y-92226697D01*
X152868558Y-92446488D01*
X152868561Y-92446497D01*
X152964731Y-92652732D01*
X152964732Y-92652734D01*
X153095254Y-92839141D01*
X153168432Y-92912319D01*
X153201917Y-92973642D01*
X153196933Y-93043334D01*
X153168432Y-93087681D01*
X153095254Y-93160858D01*
X152964732Y-93347265D01*
X152964731Y-93347267D01*
X152868561Y-93553502D01*
X152868558Y-93553511D01*
X152809666Y-93773302D01*
X152809664Y-93773313D01*
X152789832Y-93999998D01*
X152789832Y-94000001D01*
X152809664Y-94226686D01*
X152809666Y-94226697D01*
X152868558Y-94446488D01*
X152868561Y-94446497D01*
X152964731Y-94652732D01*
X152964732Y-94652734D01*
X153095254Y-94839141D01*
X153256158Y-95000045D01*
X153256161Y-95000047D01*
X153442566Y-95130568D01*
X153457687Y-95137619D01*
X153510125Y-95183791D01*
X153529276Y-95250985D01*
X153509060Y-95317866D01*
X153457687Y-95362380D01*
X153442566Y-95369432D01*
X153442564Y-95369433D01*
X153256158Y-95499954D01*
X153095254Y-95660858D01*
X153000192Y-95796623D01*
X152945615Y-95840248D01*
X152898617Y-95849500D01*
X152320808Y-95849500D01*
X152253769Y-95829815D01*
X152233127Y-95813181D01*
X151186819Y-94766873D01*
X151153334Y-94705550D01*
X151150500Y-94679192D01*
X151150500Y-90585501D01*
X151152268Y-90569488D01*
X151152026Y-90569466D01*
X151152758Y-90561710D01*
X151152760Y-90561703D01*
X151150500Y-90489796D01*
X151150500Y-90459075D01*
X151149579Y-90451788D01*
X151149122Y-90445979D01*
X151147597Y-90397431D01*
X151141676Y-90377053D01*
X151137731Y-90358004D01*
X151135071Y-90336942D01*
X151117186Y-90291771D01*
X151115298Y-90286254D01*
X151101744Y-90239602D01*
X151101744Y-90239601D01*
X151090939Y-90221332D01*
X151082379Y-90203858D01*
X151080391Y-90198836D01*
X151074568Y-90184129D01*
X151046014Y-90144828D01*
X151042810Y-90139950D01*
X151018082Y-90098137D01*
X151018081Y-90098135D01*
X151003075Y-90083129D01*
X150990435Y-90068330D01*
X150977961Y-90051160D01*
X150940528Y-90020194D01*
X150936206Y-90016260D01*
X149020434Y-88100488D01*
X149010361Y-88087914D01*
X149010174Y-88088070D01*
X149005201Y-88082059D01*
X148952756Y-88032810D01*
X148931035Y-88011089D01*
X148925240Y-88006594D01*
X148920798Y-88002799D01*
X148885396Y-87969554D01*
X148885388Y-87969548D01*
X148866792Y-87959325D01*
X148850531Y-87948644D01*
X148833763Y-87935637D01*
X148810295Y-87925482D01*
X148789178Y-87916343D01*
X148783956Y-87913786D01*
X148741368Y-87890373D01*
X148741365Y-87890372D01*
X148720801Y-87885092D01*
X148702396Y-87878790D01*
X148682927Y-87870365D01*
X148682921Y-87870363D01*
X148634951Y-87862766D01*
X148629236Y-87861582D01*
X148612772Y-87857355D01*
X148582180Y-87849500D01*
X148582177Y-87849500D01*
X148560955Y-87849500D01*
X148541555Y-87847973D01*
X148520596Y-87844653D01*
X148520595Y-87844653D01*
X148496786Y-87846903D01*
X148472230Y-87849225D01*
X148466392Y-87849500D01*
X148322351Y-87849500D01*
X148255312Y-87829815D01*
X148209557Y-87777011D01*
X148199061Y-87738752D01*
X148194091Y-87692516D01*
X148143797Y-87557671D01*
X148143793Y-87557664D01*
X148057547Y-87442455D01*
X148057544Y-87442452D01*
X147942335Y-87356206D01*
X147942328Y-87356202D01*
X147807482Y-87305908D01*
X147807483Y-87305908D01*
X147747883Y-87299501D01*
X147747881Y-87299500D01*
X147747873Y-87299500D01*
X147747864Y-87299500D01*
X146252129Y-87299500D01*
X146252123Y-87299501D01*
X146192516Y-87305908D01*
X146057671Y-87356202D01*
X146057664Y-87356206D01*
X145942455Y-87442452D01*
X145942452Y-87442455D01*
X145856206Y-87557664D01*
X145856202Y-87557671D01*
X145805908Y-87692517D01*
X145799501Y-87752116D01*
X145799500Y-87752135D01*
X145799500Y-87889247D01*
X145779815Y-87956286D01*
X145727011Y-88002041D01*
X145657853Y-88011985D01*
X145594297Y-87982960D01*
X145564500Y-87944519D01*
X145525061Y-87865316D01*
X145525056Y-87865308D01*
X145390979Y-87687761D01*
X145226562Y-87537876D01*
X145226560Y-87537874D01*
X145037404Y-87420754D01*
X145037398Y-87420752D01*
X144829940Y-87340382D01*
X144611243Y-87299500D01*
X144388757Y-87299500D01*
X144354477Y-87305908D01*
X144310358Y-87314155D01*
X144240843Y-87307123D01*
X144199893Y-87279947D01*
X143270434Y-86350488D01*
X143260361Y-86337914D01*
X143260174Y-86338070D01*
X143255201Y-86332059D01*
X143202756Y-86282810D01*
X143181035Y-86261089D01*
X143175240Y-86256594D01*
X143170798Y-86252799D01*
X143135396Y-86219554D01*
X143135388Y-86219548D01*
X143116792Y-86209325D01*
X143100531Y-86198644D01*
X143083763Y-86185637D01*
X143060180Y-86175432D01*
X143039178Y-86166343D01*
X143033956Y-86163786D01*
X142991368Y-86140373D01*
X142991366Y-86140372D01*
X142991362Y-86140370D01*
X142991093Y-86140264D01*
X142990913Y-86140123D01*
X142984531Y-86136615D01*
X142985097Y-86135585D01*
X142936010Y-86097280D01*
X142912909Y-86031340D01*
X142929127Y-85963378D01*
X142937786Y-85950255D01*
X143025058Y-85834689D01*
X143124229Y-85635528D01*
X143130734Y-85612661D01*
X143168012Y-85553571D01*
X143231322Y-85524013D01*
X143300561Y-85533375D01*
X143353748Y-85578684D01*
X143369264Y-85612658D01*
X143375770Y-85635523D01*
X143375772Y-85635530D01*
X143375775Y-85635538D01*
X143474938Y-85834683D01*
X143474943Y-85834691D01*
X143609020Y-86012238D01*
X143773437Y-86162123D01*
X143773439Y-86162125D01*
X143962595Y-86279245D01*
X143962596Y-86279245D01*
X143962599Y-86279247D01*
X144170060Y-86359618D01*
X144388757Y-86400500D01*
X144388759Y-86400500D01*
X144611241Y-86400500D01*
X144611243Y-86400500D01*
X144829940Y-86359618D01*
X145037401Y-86279247D01*
X145226562Y-86162124D01*
X145390981Y-86012236D01*
X145525058Y-85834689D01*
X145624229Y-85635528D01*
X145630734Y-85612661D01*
X145668012Y-85553571D01*
X145731322Y-85524013D01*
X145800561Y-85533375D01*
X145853748Y-85578684D01*
X145869264Y-85612658D01*
X145875770Y-85635523D01*
X145875772Y-85635530D01*
X145875775Y-85635538D01*
X145974938Y-85834683D01*
X145974943Y-85834691D01*
X146109020Y-86012238D01*
X146273437Y-86162123D01*
X146273439Y-86162125D01*
X146462595Y-86279245D01*
X146462596Y-86279245D01*
X146462599Y-86279247D01*
X146670060Y-86359618D01*
X146888757Y-86400500D01*
X146888759Y-86400500D01*
X147111241Y-86400500D01*
X147111243Y-86400500D01*
X147329940Y-86359618D01*
X147537401Y-86279247D01*
X147726562Y-86162124D01*
X147890981Y-86012236D01*
X148025058Y-85834689D01*
X148124229Y-85635528D01*
X148185115Y-85421536D01*
X148205643Y-85200000D01*
X148185115Y-84978464D01*
X148124229Y-84764472D01*
X148124224Y-84764461D01*
X148025061Y-84565316D01*
X148025056Y-84565308D01*
X147890979Y-84387761D01*
X147726562Y-84237876D01*
X147726560Y-84237874D01*
X147537404Y-84120754D01*
X147537398Y-84120752D01*
X147329940Y-84040382D01*
X147111243Y-83999500D01*
X146888757Y-83999500D01*
X146670060Y-84040382D01*
X146538864Y-84091207D01*
X146462601Y-84120752D01*
X146462595Y-84120754D01*
X146273439Y-84237874D01*
X146273437Y-84237876D01*
X146109020Y-84387761D01*
X145974943Y-84565308D01*
X145974938Y-84565316D01*
X145875775Y-84764461D01*
X145875769Y-84764476D01*
X145869266Y-84787335D01*
X145831987Y-84846429D01*
X145768677Y-84875986D01*
X145699438Y-84866624D01*
X145646251Y-84821314D01*
X145630734Y-84787335D01*
X145624230Y-84764476D01*
X145624229Y-84764472D01*
X145624224Y-84764461D01*
X145525061Y-84565316D01*
X145525056Y-84565308D01*
X145390979Y-84387761D01*
X145226562Y-84237876D01*
X145226560Y-84237874D01*
X145037404Y-84120754D01*
X145037398Y-84120752D01*
X144829940Y-84040382D01*
X144611243Y-83999500D01*
X144388757Y-83999500D01*
X144170060Y-84040382D01*
X144038864Y-84091207D01*
X143962601Y-84120752D01*
X143962595Y-84120754D01*
X143773439Y-84237874D01*
X143773437Y-84237876D01*
X143609020Y-84387761D01*
X143474943Y-84565308D01*
X143474938Y-84565316D01*
X143375775Y-84764461D01*
X143375769Y-84764476D01*
X143369266Y-84787335D01*
X143331987Y-84846429D01*
X143268677Y-84875986D01*
X143199438Y-84866624D01*
X143146251Y-84821314D01*
X143130734Y-84787335D01*
X143124230Y-84764476D01*
X143124229Y-84764472D01*
X143124224Y-84764461D01*
X143025061Y-84565316D01*
X143025056Y-84565308D01*
X142890979Y-84387761D01*
X142726562Y-84237876D01*
X142726560Y-84237874D01*
X142537404Y-84120754D01*
X142537398Y-84120752D01*
X142329940Y-84040382D01*
X142111243Y-83999500D01*
X141888757Y-83999500D01*
X141670060Y-84040382D01*
X141538864Y-84091207D01*
X141462601Y-84120752D01*
X141462595Y-84120754D01*
X141273439Y-84237874D01*
X141273437Y-84237876D01*
X141109020Y-84387761D01*
X140974943Y-84565308D01*
X140974938Y-84565316D01*
X140875775Y-84764461D01*
X140875769Y-84764476D01*
X140814885Y-84978462D01*
X140814884Y-84978464D01*
X140794357Y-85199999D01*
X140794357Y-85200000D01*
X140814884Y-85421535D01*
X140814885Y-85421537D01*
X140875769Y-85635523D01*
X140875775Y-85635538D01*
X140974938Y-85834683D01*
X140974943Y-85834691D01*
X141024846Y-85900773D01*
X141049538Y-85966135D01*
X141034973Y-86034469D01*
X140985775Y-86084082D01*
X140925892Y-86099500D01*
X140085506Y-86099500D01*
X140069495Y-86097732D01*
X140069473Y-86097974D01*
X140061706Y-86097239D01*
X139989783Y-86099500D01*
X139959075Y-86099500D01*
X139959071Y-86099500D01*
X139959060Y-86099501D01*
X139951804Y-86100417D01*
X139945986Y-86100875D01*
X139897433Y-86102401D01*
X139882873Y-86106630D01*
X139877040Y-86108325D01*
X139857996Y-86112269D01*
X139836942Y-86114929D01*
X139836940Y-86114929D01*
X139791781Y-86132808D01*
X139786255Y-86134700D01*
X139739601Y-86148254D01*
X139721325Y-86159063D01*
X139703860Y-86167619D01*
X139684124Y-86175433D01*
X139644824Y-86203986D01*
X139639942Y-86207193D01*
X139598136Y-86231917D01*
X139583124Y-86246929D01*
X139568336Y-86259558D01*
X139551167Y-86272032D01*
X139551165Y-86272034D01*
X139520194Y-86309470D01*
X139516262Y-86313791D01*
X137527160Y-88302893D01*
X137465837Y-88336378D01*
X137396145Y-88331394D01*
X137340212Y-88289522D01*
X137337904Y-88286335D01*
X137250045Y-88160858D01*
X137089141Y-87999954D01*
X136902734Y-87869432D01*
X136902732Y-87869431D01*
X136696497Y-87773261D01*
X136696488Y-87773258D01*
X136476697Y-87714366D01*
X136476693Y-87714365D01*
X136476692Y-87714365D01*
X136476691Y-87714364D01*
X136476686Y-87714364D01*
X136250002Y-87694532D01*
X136249998Y-87694532D01*
X136023313Y-87714364D01*
X136023302Y-87714366D01*
X135803511Y-87773258D01*
X135803502Y-87773261D01*
X135597267Y-87869431D01*
X135597265Y-87869432D01*
X135410858Y-87999954D01*
X135249954Y-88160858D01*
X135119432Y-88347265D01*
X135119431Y-88347267D01*
X135023261Y-88553502D01*
X135023258Y-88553511D01*
X134964366Y-88773302D01*
X134964364Y-88773313D01*
X134944532Y-88999998D01*
X134944532Y-89000001D01*
X134964364Y-89226686D01*
X134964366Y-89226697D01*
X134975209Y-89267163D01*
X134973546Y-89337013D01*
X134943115Y-89386937D01*
X134016873Y-90313181D01*
X133955550Y-90346666D01*
X133929192Y-90349500D01*
X131171479Y-90349500D01*
X131104440Y-90329815D01*
X131062424Y-90284517D01*
X131018073Y-90202562D01*
X131018070Y-90202558D01*
X130969340Y-90139950D01*
X130870171Y-90012537D01*
X130693010Y-89849449D01*
X130491422Y-89717745D01*
X130491419Y-89717743D01*
X130491418Y-89717743D01*
X130270905Y-89621017D01*
X130037472Y-89561904D01*
X129893329Y-89549960D01*
X129857600Y-89547000D01*
X129642400Y-89547000D01*
X129609898Y-89549693D01*
X129462527Y-89561904D01*
X129229094Y-89621017D01*
X129008581Y-89717743D01*
X129008578Y-89717745D01*
X128806990Y-89849449D01*
X128629829Y-90012537D01*
X128612172Y-90035223D01*
X128481929Y-90202558D01*
X128367321Y-90414334D01*
X128367318Y-90414343D01*
X128289134Y-90642083D01*
X128267245Y-90773261D01*
X128249500Y-90879601D01*
X128249500Y-91120399D01*
X128256252Y-91160861D01*
X128289134Y-91357916D01*
X128367318Y-91585656D01*
X128367321Y-91585665D01*
X128481929Y-91797441D01*
X128525451Y-91853358D01*
X128629829Y-91987463D01*
X128749757Y-92097864D01*
X128806994Y-92150555D01*
X128831384Y-92166489D01*
X128876742Y-92219634D01*
X128886166Y-92288866D01*
X128856665Y-92352202D01*
X128831390Y-92374104D01*
X128807297Y-92389846D01*
X128807289Y-92389851D01*
X128630202Y-92552873D01*
X128630193Y-92552883D01*
X128482350Y-92742831D01*
X128482344Y-92742840D01*
X128367784Y-92954531D01*
X128367778Y-92954545D01*
X128289619Y-93182208D01*
X128271633Y-93289999D01*
X128271634Y-93290000D01*
X129255148Y-93290000D01*
X129206441Y-93427047D01*
X129196123Y-93577886D01*
X129226884Y-93725915D01*
X129260090Y-93790000D01*
X128271633Y-93790000D01*
X128289619Y-93897791D01*
X128367778Y-94125454D01*
X128367784Y-94125468D01*
X128482344Y-94337159D01*
X128482350Y-94337168D01*
X128593324Y-94479747D01*
X128618967Y-94544741D01*
X128605401Y-94613281D01*
X128556932Y-94663605D01*
X128538804Y-94672091D01*
X128507671Y-94683702D01*
X128507664Y-94683706D01*
X128392455Y-94769952D01*
X128392452Y-94769955D01*
X128306206Y-94885164D01*
X128306202Y-94885171D01*
X128255908Y-95020017D01*
X128249501Y-95079616D01*
X128249501Y-95079623D01*
X128249500Y-95079635D01*
X128249500Y-96609191D01*
X128229815Y-96676230D01*
X128213181Y-96696872D01*
X126596873Y-98313181D01*
X126535550Y-98346666D01*
X126509192Y-98349500D01*
X123696683Y-98349500D01*
X123629644Y-98329815D01*
X123595108Y-98296623D01*
X123500045Y-98160858D01*
X123339141Y-97999954D01*
X123152734Y-97869432D01*
X123152732Y-97869431D01*
X122946497Y-97773261D01*
X122946488Y-97773258D01*
X122726697Y-97714366D01*
X122726693Y-97714365D01*
X122726692Y-97714365D01*
X122726691Y-97714364D01*
X122726686Y-97714364D01*
X122500002Y-97694532D01*
X122499998Y-97694532D01*
X122273313Y-97714364D01*
X122273302Y-97714366D01*
X122053511Y-97773258D01*
X122053502Y-97773261D01*
X121847267Y-97869431D01*
X121847265Y-97869432D01*
X121660858Y-97999954D01*
X121499954Y-98160858D01*
X121369430Y-98347269D01*
X121369294Y-98347505D01*
X121369206Y-98347588D01*
X121366327Y-98351701D01*
X121365500Y-98351122D01*
X121318725Y-98395718D01*
X121261910Y-98409500D01*
X118564499Y-98409500D01*
X118497460Y-98389815D01*
X118451705Y-98337011D01*
X118440499Y-98285500D01*
X118440499Y-97912129D01*
X118440498Y-97912123D01*
X118440497Y-97912116D01*
X118434091Y-97852517D01*
X118404530Y-97773261D01*
X118383797Y-97717671D01*
X118383793Y-97717664D01*
X118297547Y-97602455D01*
X118297544Y-97602452D01*
X118182335Y-97516206D01*
X118182328Y-97516202D01*
X118047482Y-97465908D01*
X118047483Y-97465908D01*
X117987883Y-97459501D01*
X117987881Y-97459500D01*
X117987873Y-97459500D01*
X117987864Y-97459500D01*
X115692129Y-97459500D01*
X115692123Y-97459501D01*
X115632516Y-97465908D01*
X115497671Y-97516202D01*
X115497664Y-97516206D01*
X115382455Y-97602452D01*
X115382452Y-97602455D01*
X115296206Y-97717664D01*
X115296202Y-97717671D01*
X115245908Y-97852517D01*
X115240917Y-97898945D01*
X115239501Y-97912123D01*
X115239500Y-97912135D01*
X115239500Y-100207870D01*
X100500000Y-100207870D01*
X100500000Y-95750004D01*
X105889953Y-95750004D01*
X105910113Y-96019026D01*
X105910113Y-96019028D01*
X105970142Y-96282033D01*
X105970148Y-96282052D01*
X106068709Y-96533181D01*
X106068708Y-96533181D01*
X106203602Y-96766822D01*
X106257294Y-96834151D01*
X107092452Y-95998992D01*
X107102188Y-96028956D01*
X107190186Y-96167619D01*
X107309903Y-96280040D01*
X107444510Y-96354041D01*
X106609848Y-97188702D01*
X106792483Y-97313220D01*
X106792485Y-97313221D01*
X107035539Y-97430269D01*
X107035537Y-97430269D01*
X107293337Y-97509790D01*
X107293343Y-97509792D01*
X107560101Y-97549999D01*
X107560110Y-97550000D01*
X107829890Y-97550000D01*
X107829898Y-97549999D01*
X108096656Y-97509792D01*
X108096662Y-97509790D01*
X108354461Y-97430269D01*
X108597521Y-97313218D01*
X108780150Y-97188702D01*
X107942534Y-96351086D01*
X108010629Y-96324126D01*
X108143492Y-96227595D01*
X108248175Y-96101055D01*
X108296631Y-95998079D01*
X109132703Y-96834151D01*
X109132704Y-96834150D01*
X109186393Y-96766828D01*
X109186400Y-96766817D01*
X109321290Y-96533181D01*
X109419851Y-96282052D01*
X109419857Y-96282033D01*
X109479886Y-96019028D01*
X109479886Y-96019026D01*
X109500047Y-95750004D01*
X109500047Y-95749995D01*
X109479886Y-95480973D01*
X109479886Y-95480971D01*
X109419857Y-95217966D01*
X109419851Y-95217947D01*
X109321290Y-94966818D01*
X109321291Y-94966818D01*
X109186397Y-94733177D01*
X109132704Y-94665847D01*
X108297546Y-95501004D01*
X108287812Y-95471044D01*
X108199814Y-95332381D01*
X108080097Y-95219960D01*
X107945489Y-95145958D01*
X108780150Y-94311296D01*
X108597517Y-94186779D01*
X108597516Y-94186778D01*
X108354460Y-94069730D01*
X108354462Y-94069730D01*
X108096662Y-93990209D01*
X108096656Y-93990207D01*
X107829898Y-93950000D01*
X107560101Y-93950000D01*
X107293343Y-93990207D01*
X107293337Y-93990209D01*
X107035538Y-94069730D01*
X106792485Y-94186778D01*
X106792476Y-94186783D01*
X106609848Y-94311296D01*
X107447465Y-95148913D01*
X107379371Y-95175874D01*
X107246508Y-95272405D01*
X107141825Y-95398945D01*
X107093368Y-95501921D01*
X106257295Y-94665848D01*
X106203600Y-94733180D01*
X106068709Y-94966818D01*
X105970148Y-95217947D01*
X105970142Y-95217966D01*
X105910113Y-95480971D01*
X105910113Y-95480973D01*
X105889953Y-95749995D01*
X105889953Y-95750004D01*
X100500000Y-95750004D01*
X100500000Y-92097870D01*
X105894500Y-92097870D01*
X105894501Y-92097876D01*
X105900908Y-92157483D01*
X105951202Y-92292328D01*
X105951206Y-92292335D01*
X106037452Y-92407544D01*
X106037455Y-92407547D01*
X106152664Y-92493793D01*
X106152671Y-92493797D01*
X106287517Y-92544091D01*
X106287516Y-92544091D01*
X106294444Y-92544835D01*
X106347127Y-92550500D01*
X109042872Y-92550499D01*
X109102483Y-92544091D01*
X109237331Y-92493796D01*
X109352546Y-92407546D01*
X109438796Y-92292331D01*
X109489091Y-92157483D01*
X109495500Y-92097873D01*
X109495499Y-89920807D01*
X109515184Y-89853769D01*
X109531818Y-89833127D01*
X109778127Y-89586819D01*
X109839450Y-89553334D01*
X109865808Y-89550500D01*
X115294222Y-89550500D01*
X115361261Y-89570185D01*
X115407016Y-89622989D01*
X115408783Y-89627046D01*
X115409534Y-89628861D01*
X115541160Y-89843653D01*
X115541161Y-89843656D01*
X115594155Y-89905703D01*
X115704776Y-90035224D01*
X115833114Y-90144835D01*
X115896343Y-90198838D01*
X115896346Y-90198839D01*
X116111140Y-90330466D01*
X116223617Y-90377055D01*
X116343889Y-90426873D01*
X116588852Y-90485683D01*
X116840000Y-90505449D01*
X117091148Y-90485683D01*
X117336111Y-90426873D01*
X117568859Y-90330466D01*
X117783659Y-90198836D01*
X117975224Y-90035224D01*
X118138836Y-89843659D01*
X118270466Y-89628859D01*
X118366873Y-89396111D01*
X118425683Y-89151148D01*
X118445449Y-88900000D01*
X118433644Y-88749999D01*
X121221127Y-88749999D01*
X121221128Y-88750000D01*
X122184314Y-88750000D01*
X122172359Y-88761955D01*
X122114835Y-88874852D01*
X122095014Y-89000000D01*
X122114835Y-89125148D01*
X122172359Y-89238045D01*
X122184314Y-89250000D01*
X121221128Y-89250000D01*
X121273730Y-89446317D01*
X121273734Y-89446326D01*
X121369865Y-89652482D01*
X121500342Y-89838820D01*
X121661179Y-89999657D01*
X121847517Y-90130134D01*
X122053673Y-90226265D01*
X122053682Y-90226269D01*
X122249999Y-90278872D01*
X122250000Y-90278871D01*
X122250000Y-89315686D01*
X122261955Y-89327641D01*
X122374852Y-89385165D01*
X122468519Y-89400000D01*
X122531481Y-89400000D01*
X122625148Y-89385165D01*
X122738045Y-89327641D01*
X122750000Y-89315686D01*
X122750000Y-90278872D01*
X122946317Y-90226269D01*
X122946326Y-90226265D01*
X123152482Y-90130134D01*
X123338820Y-89999657D01*
X123499657Y-89838820D01*
X123630134Y-89652482D01*
X123726265Y-89446326D01*
X123726269Y-89446317D01*
X123778872Y-89250000D01*
X122815686Y-89250000D01*
X122827641Y-89238045D01*
X122885165Y-89125148D01*
X122904986Y-89000000D01*
X122885165Y-88874852D01*
X122827641Y-88761955D01*
X122815686Y-88750000D01*
X123778872Y-88750000D01*
X123778872Y-88749999D01*
X123726269Y-88553682D01*
X123726265Y-88553673D01*
X123630134Y-88347517D01*
X123499657Y-88161179D01*
X123338820Y-88000342D01*
X123152482Y-87869865D01*
X122946328Y-87773734D01*
X122750000Y-87721127D01*
X122750000Y-88684314D01*
X122738045Y-88672359D01*
X122625148Y-88614835D01*
X122531481Y-88600000D01*
X122468519Y-88600000D01*
X122374852Y-88614835D01*
X122261955Y-88672359D01*
X122250000Y-88684314D01*
X122250000Y-87721127D01*
X122053671Y-87773734D01*
X121847517Y-87869865D01*
X121661179Y-88000342D01*
X121500342Y-88161179D01*
X121369865Y-88347517D01*
X121273734Y-88553673D01*
X121273730Y-88553682D01*
X121221127Y-88749999D01*
X118433644Y-88749999D01*
X118425683Y-88648852D01*
X118366873Y-88403889D01*
X118346199Y-88353977D01*
X118270466Y-88171140D01*
X118138839Y-87956346D01*
X118138838Y-87956343D01*
X118081532Y-87889247D01*
X117975224Y-87764776D01*
X117825621Y-87637003D01*
X117783656Y-87601161D01*
X117783653Y-87601160D01*
X117568859Y-87469533D01*
X117336110Y-87373126D01*
X117091151Y-87314317D01*
X116840000Y-87294551D01*
X116588848Y-87314317D01*
X116343889Y-87373126D01*
X116111140Y-87469533D01*
X115896346Y-87601160D01*
X115896343Y-87601161D01*
X115704776Y-87764776D01*
X115541161Y-87956343D01*
X115541160Y-87956346D01*
X115409534Y-88171138D01*
X115408783Y-88172954D01*
X115408311Y-88173538D01*
X115407320Y-88175485D01*
X115406911Y-88175276D01*
X115364941Y-88227357D01*
X115298647Y-88249421D01*
X115294222Y-88249500D01*
X109630504Y-88249500D01*
X109614493Y-88247732D01*
X109614471Y-88247974D01*
X109606704Y-88247240D01*
X109606703Y-88247240D01*
X109534796Y-88249500D01*
X109504075Y-88249500D01*
X109504071Y-88249500D01*
X109504061Y-88249501D01*
X109496793Y-88250419D01*
X109490976Y-88250876D01*
X109442436Y-88252402D01*
X109442425Y-88252404D01*
X109422049Y-88258323D01*
X109403008Y-88262266D01*
X109381953Y-88264926D01*
X109381937Y-88264930D01*
X109336776Y-88282810D01*
X109331250Y-88284702D01*
X109284602Y-88298255D01*
X109266332Y-88309060D01*
X109248863Y-88317618D01*
X109229128Y-88325432D01*
X109229126Y-88325433D01*
X109189839Y-88353977D01*
X109184956Y-88357184D01*
X109143132Y-88381919D01*
X109128126Y-88396926D01*
X109113336Y-88409558D01*
X109096167Y-88422032D01*
X109096165Y-88422034D01*
X109065194Y-88459470D01*
X109061262Y-88463791D01*
X108611871Y-88913181D01*
X108550548Y-88946666D01*
X108524190Y-88949500D01*
X106347129Y-88949500D01*
X106347123Y-88949501D01*
X106287516Y-88955908D01*
X106152671Y-89006202D01*
X106152664Y-89006206D01*
X106037455Y-89092452D01*
X106037452Y-89092455D01*
X105951206Y-89207664D01*
X105951202Y-89207671D01*
X105900908Y-89342517D01*
X105894501Y-89402116D01*
X105894500Y-89402135D01*
X105894500Y-92097870D01*
X100500000Y-92097870D01*
X100500000Y-82874000D01*
X100519685Y-82806961D01*
X100572489Y-82761206D01*
X100624000Y-82750000D01*
X164626000Y-82750000D01*
X164693039Y-82769685D01*
G37*
%TD.AperFunction*%
%TD*%
M02*
