%TF.GenerationSoftware,KiCad,Pcbnew,7.0.9*%
%TF.CreationDate,2023-12-13T20:57:05-06:00*%
%TF.ProjectId,12V to 5V converter,31325620-746f-4203-9556-20636f6e7665,1.0*%
%TF.SameCoordinates,Original*%
%TF.FileFunction,Drillmap*%
%TF.FilePolarity,Positive*%
%FSLAX45Y45*%
G04 Gerber Fmt 4.5, Leading zero omitted, Abs format (unit mm)*
G04 Created by KiCad (PCBNEW 7.0.9) date 2023-12-13 20:57:05*
%MOMM*%
%LPD*%
G01*
G04 APERTURE LIST*
%ADD10C,0.100000*%
%ADD11C,0.200000*%
G04 APERTURE END LIST*
D10*
X10025000Y-10350000D02*
X10025000Y-8250000D01*
X10025000Y-8250000D02*
X16500000Y-8250000D01*
X16500000Y-8250000D02*
X16500000Y-10350000D01*
X16500000Y-10350000D02*
X10025000Y-10350000D01*
D11*
X10280777Y-10666484D02*
X10280777Y-10466484D01*
X10280777Y-10466484D02*
X10328396Y-10466484D01*
X10328396Y-10466484D02*
X10356967Y-10476008D01*
X10356967Y-10476008D02*
X10376015Y-10495055D01*
X10376015Y-10495055D02*
X10385539Y-10514103D01*
X10385539Y-10514103D02*
X10395063Y-10552198D01*
X10395063Y-10552198D02*
X10395063Y-10580770D01*
X10395063Y-10580770D02*
X10385539Y-10618865D01*
X10385539Y-10618865D02*
X10376015Y-10637912D01*
X10376015Y-10637912D02*
X10356967Y-10656960D01*
X10356967Y-10656960D02*
X10328396Y-10666484D01*
X10328396Y-10666484D02*
X10280777Y-10666484D01*
X10480777Y-10666484D02*
X10480777Y-10533150D01*
X10480777Y-10571246D02*
X10490301Y-10552198D01*
X10490301Y-10552198D02*
X10499824Y-10542674D01*
X10499824Y-10542674D02*
X10518872Y-10533150D01*
X10518872Y-10533150D02*
X10537920Y-10533150D01*
X10604586Y-10666484D02*
X10604586Y-10533150D01*
X10604586Y-10466484D02*
X10595063Y-10476008D01*
X10595063Y-10476008D02*
X10604586Y-10485531D01*
X10604586Y-10485531D02*
X10614110Y-10476008D01*
X10614110Y-10476008D02*
X10604586Y-10466484D01*
X10604586Y-10466484D02*
X10604586Y-10485531D01*
X10728396Y-10666484D02*
X10709348Y-10656960D01*
X10709348Y-10656960D02*
X10699824Y-10637912D01*
X10699824Y-10637912D02*
X10699824Y-10466484D01*
X10833158Y-10666484D02*
X10814110Y-10656960D01*
X10814110Y-10656960D02*
X10804586Y-10637912D01*
X10804586Y-10637912D02*
X10804586Y-10466484D01*
X11061729Y-10666484D02*
X11061729Y-10466484D01*
X11061729Y-10466484D02*
X11128396Y-10609341D01*
X11128396Y-10609341D02*
X11195062Y-10466484D01*
X11195062Y-10466484D02*
X11195062Y-10666484D01*
X11376015Y-10666484D02*
X11376015Y-10561722D01*
X11376015Y-10561722D02*
X11366491Y-10542674D01*
X11366491Y-10542674D02*
X11347443Y-10533150D01*
X11347443Y-10533150D02*
X11309348Y-10533150D01*
X11309348Y-10533150D02*
X11290301Y-10542674D01*
X11376015Y-10656960D02*
X11356967Y-10666484D01*
X11356967Y-10666484D02*
X11309348Y-10666484D01*
X11309348Y-10666484D02*
X11290301Y-10656960D01*
X11290301Y-10656960D02*
X11280777Y-10637912D01*
X11280777Y-10637912D02*
X11280777Y-10618865D01*
X11280777Y-10618865D02*
X11290301Y-10599817D01*
X11290301Y-10599817D02*
X11309348Y-10590293D01*
X11309348Y-10590293D02*
X11356967Y-10590293D01*
X11356967Y-10590293D02*
X11376015Y-10580770D01*
X11471253Y-10533150D02*
X11471253Y-10733150D01*
X11471253Y-10542674D02*
X11490301Y-10533150D01*
X11490301Y-10533150D02*
X11528396Y-10533150D01*
X11528396Y-10533150D02*
X11547443Y-10542674D01*
X11547443Y-10542674D02*
X11556967Y-10552198D01*
X11556967Y-10552198D02*
X11566491Y-10571246D01*
X11566491Y-10571246D02*
X11566491Y-10628389D01*
X11566491Y-10628389D02*
X11556967Y-10647436D01*
X11556967Y-10647436D02*
X11547443Y-10656960D01*
X11547443Y-10656960D02*
X11528396Y-10666484D01*
X11528396Y-10666484D02*
X11490301Y-10666484D01*
X11490301Y-10666484D02*
X11471253Y-10656960D01*
X11652205Y-10647436D02*
X11661729Y-10656960D01*
X11661729Y-10656960D02*
X11652205Y-10666484D01*
X11652205Y-10666484D02*
X11642682Y-10656960D01*
X11642682Y-10656960D02*
X11652205Y-10647436D01*
X11652205Y-10647436D02*
X11652205Y-10666484D01*
X11652205Y-10542674D02*
X11661729Y-10552198D01*
X11661729Y-10552198D02*
X11652205Y-10561722D01*
X11652205Y-10561722D02*
X11642682Y-10552198D01*
X11642682Y-10552198D02*
X11652205Y-10542674D01*
X11652205Y-10542674D02*
X11652205Y-10561722D01*
M02*
