M48
; DRILL file {KiCad 7.0.9} date Wed Dec 13 20:57:03 2023
; FORMAT={-:-/ absolute / inch / decimal}
; #@! TF.CreationDate,2023-12-13T20:57:03-06:00
; #@! TF.GenerationSoftware,Kicad,Pcbnew,7.0.9
; #@! TF.FileFunction,Plated,1,2,PTH
FMAT,2
INCH
; #@! TA.AperFunction,Plated,PTH,ComponentDrill
T1C0.0315
; #@! TA.AperFunction,Plated,PTH,ComponentDrill
T2C0.0354
; #@! TA.AperFunction,Plated,PTH,ComponentDrill
T3C0.0362
; #@! TA.AperFunction,Plated,PTH,ComponentDrill
T4C0.0433
; #@! TA.AperFunction,Plated,PTH,ComponentDrill
T5C0.0512
; #@! TA.AperFunction,Plated,PTH,ComponentDrill
T6C0.0906
%
G90
G05
T1
X4.8228Y-3.5039
X4.8228Y-3.8976
X5.3642Y-3.5039
X5.3642Y-3.8976
T2
X5.5906Y-3.3543
X5.5906Y-3.4843
X5.689Y-3.3543
X5.689Y-3.4843
X5.7874Y-3.3543
X5.7874Y-3.4843
T3
X6.0667Y-3.5236
X6.0667Y-3.622
X6.0667Y-3.7008
X6.0667Y-3.7992
X6.1699Y-3.5236
X6.1699Y-3.622
X6.1699Y-3.7008
X6.1699Y-3.7992
T4
X4.6Y-3.5
X4.6Y-3.9
X5.1083Y-3.5827
X5.1083Y-3.6827
X5.1083Y-3.7827
T5
X4.24Y-3.5728
X4.24Y-3.7697
X5.59Y-3.8681
X5.7868Y-3.8681
T6
X6.053Y-3.4028
X6.053Y-3.9201
X6.2766Y-3.4028
X6.2766Y-3.9201
T0
M30
